M48
;Layer_Color=9474304
;FILE_FORMAT=4:4
METRIC,LZ
;TYPE=PLATED
T01F00S00C0.7112
T02F00S00C0.8000
T03F00S00C1.0000
T04F00S00C1.4000
;TYPE=NON_PLATED
T05F00S00C0.5000
T06F00S00C0.9000
%
T01
X00463804Y0012319
X00502666Y00136144
X00626618Y00129794
X00584708Y00276098
X0052452Y00253814
X00542544Y00386334
X00374904Y0021082
X0027051Y00154178
X0012895Y00247396
X00105918Y0022733
X00071882Y001905
X00059944Y00105918
X00050546Y00322326
T02
X0034036Y0024511
X0035306
X0036576
X0036195Y0030734
X0034925
X0033655
T03
X0025845Y0011859
Y0017859
X0033845
Y0011859
X00264204Y00262342
Y00322342
X00184204
Y00262342
T04
X00469937Y00084648
X00508037
X00546137
X00584237
X00622337
X00623006Y00367168
X00584906
X00546806
X00508706
X00470606
X00432506
X00394406
X00356306
X00318206
X00280106
X00242006
X00241337Y00084648
X00279437
X00317537
X00355637
X00393737
X00431837
T05
X000596Y0002731
Y0006731
T06
X00095985Y00415966
X00125985
X000296Y00402827
Y00372826
M30
