M48
;Layer_Color=9474304
;FILE_FORMAT=4:4
METRIC,LZ
;TYPE=PLATED
T01F00S00C0.7112
T02F00S00C0.8000
T03F00S00C1.0000
T04F00S00C1.4000
;TYPE=NON_PLATED
T05F00S00C0.5000
T06F00S00C0.8000
T08F00S00C0.9000
%
T01
X00514604Y00114554
X0060198Y00108712
X0059055Y00196088
X00559562Y00281178
X0053467Y00289814
X00518414Y00291338
X00493776Y00291668
X00673608Y0040259
X0037084Y00306832
X00404368Y0020193
X0044039Y00112776
X00273558Y00173228
X00254534Y00345694
X0027381Y0041072
X00067056Y0034417
X00067818Y0018448
X00108712Y0009398
X0010783Y0006096
X0012954Y00114808
X00030226Y0013335
X00018796Y00168402
T02
X0031115Y0022098
X0032385
X0033655
X0035814Y0028194
X0037084
X0038354
T03
X0030036Y0012621
Y0018621
X0028003Y0023035
Y0029035
X0020003
Y0023035
X0038036Y0018621
Y0012621
T04
X0046863Y0008509
X0050673
X0054483
X0058293
X0062103
Y003683
X0058293
X0054483
X0050673
X0046863
X0043053
X0039243
X0035433
X0031623
X0027813
X0024003
Y0008509
X0027813
X0031623
X0035433
X0039243
X0043053
T05
X000596Y0002731
Y0006731
T06
X0005987Y0026264
T08
X0009954Y0042037
X0012954
X0003302Y0040259
Y0037259
M30
