G04*
G04 #@! TF.GenerationSoftware,Altium Limited,Altium Designer,24.1.2 (44)*
G04*
G04 Layer_Color=16711935*
%FSLAX44Y44*%
%MOMM*%
G71*
G04*
G04 #@! TF.SameCoordinates,5DE7BCAC-930E-4ACC-850D-064FDCF0EFED*
G04*
G04*
G04 #@! TF.FilePolarity,Positive*
G04*
G01*
G75*
%ADD11C,0.2000*%
G36*
X108489Y417456D02*
X108572D01*
X108664Y417447D01*
X108775Y417438D01*
X109006Y417401D01*
X109247Y417364D01*
X109487Y417299D01*
X109718Y417216D01*
X109727D01*
X109746Y417207D01*
X109774Y417188D01*
X109811Y417170D01*
X109922Y417114D01*
X110051Y417031D01*
X110199Y416920D01*
X110356Y416791D01*
X110504Y416633D01*
X110643Y416458D01*
Y416449D01*
X110661Y416430D01*
X110670Y416402D01*
X110698Y416365D01*
X110717Y416319D01*
X110744Y416264D01*
X110809Y416125D01*
X110874Y415949D01*
X110929Y415755D01*
X110966Y415533D01*
X110985Y415302D01*
X110190Y415228D01*
Y415237D01*
Y415247D01*
X110181Y415274D01*
Y415311D01*
X110162Y415395D01*
X110134Y415515D01*
X110097Y415635D01*
X110060Y415774D01*
X109995Y415903D01*
X109931Y416023D01*
X109922Y416032D01*
X109894Y416069D01*
X109848Y416134D01*
X109774Y416199D01*
X109681Y416282D01*
X109579Y416365D01*
X109441Y416449D01*
X109293Y416522D01*
X109284D01*
X109274Y416532D01*
X109247Y416541D01*
X109219Y416550D01*
X109127Y416578D01*
X109006Y416615D01*
X108858Y416652D01*
X108692Y416680D01*
X108507Y416698D01*
X108304Y416707D01*
X108220D01*
X108128Y416698D01*
X108017Y416689D01*
X107887Y416670D01*
X107740Y416652D01*
X107592Y416615D01*
X107453Y416569D01*
X107435Y416559D01*
X107388Y416541D01*
X107324Y416504D01*
X107240Y416467D01*
X107157Y416402D01*
X107065Y416338D01*
X106972Y416264D01*
X106898Y416171D01*
X106889Y416162D01*
X106870Y416125D01*
X106843Y416079D01*
X106806Y416005D01*
X106769Y415931D01*
X106741Y415838D01*
X106723Y415737D01*
X106713Y415626D01*
Y415616D01*
Y415570D01*
X106723Y415515D01*
X106732Y415441D01*
X106760Y415367D01*
X106787Y415274D01*
X106833Y415182D01*
X106898Y415099D01*
X106908Y415089D01*
X106935Y415062D01*
X106972Y415025D01*
X107037Y414969D01*
X107111Y414914D01*
X107213Y414849D01*
X107333Y414784D01*
X107472Y414729D01*
X107481Y414720D01*
X107527Y414710D01*
X107601Y414683D01*
X107647Y414673D01*
X107712Y414655D01*
X107777Y414627D01*
X107860Y414609D01*
X107952Y414581D01*
X108063Y414553D01*
X108174Y414525D01*
X108304Y414488D01*
X108451Y414451D01*
X108609Y414414D01*
X108618D01*
X108646Y414405D01*
X108692Y414396D01*
X108747Y414378D01*
X108821Y414359D01*
X108905Y414341D01*
X109089Y414285D01*
X109293Y414220D01*
X109506Y414156D01*
X109690Y414091D01*
X109774Y414054D01*
X109848Y414017D01*
X109857D01*
X109866Y414008D01*
X109922Y413971D01*
X110005Y413924D01*
X110097Y413851D01*
X110208Y413767D01*
X110319Y413666D01*
X110430Y413545D01*
X110522Y413416D01*
X110532Y413397D01*
X110560Y413351D01*
X110597Y413277D01*
X110633Y413185D01*
X110670Y413065D01*
X110707Y412926D01*
X110735Y412778D01*
X110744Y412621D01*
Y412612D01*
Y412602D01*
Y412575D01*
Y412538D01*
X110726Y412445D01*
X110707Y412325D01*
X110680Y412186D01*
X110633Y412029D01*
X110569Y411872D01*
X110476Y411715D01*
Y411706D01*
X110467Y411696D01*
X110421Y411641D01*
X110356Y411567D01*
X110273Y411474D01*
X110162Y411373D01*
X110023Y411262D01*
X109857Y411160D01*
X109672Y411068D01*
X109663D01*
X109644Y411058D01*
X109616Y411049D01*
X109579Y411031D01*
X109533Y411012D01*
X109468Y410994D01*
X109330Y410957D01*
X109154Y410920D01*
X108951Y410883D01*
X108738Y410855D01*
X108498Y410846D01*
X108378D01*
X108313Y410855D01*
X108248D01*
X108073Y410873D01*
X107878Y410901D01*
X107675Y410947D01*
X107453Y411003D01*
X107250Y411077D01*
X107240D01*
X107222Y411086D01*
X107194Y411105D01*
X107157Y411123D01*
X107065Y411169D01*
X106945Y411253D01*
X106806Y411345D01*
X106667Y411465D01*
X106538Y411604D01*
X106418Y411761D01*
Y411770D01*
X106408Y411780D01*
X106390Y411807D01*
X106371Y411835D01*
X106325Y411927D01*
X106270Y412048D01*
X106205Y412196D01*
X106159Y412371D01*
X106112Y412556D01*
X106094Y412760D01*
X106908Y412824D01*
Y412815D01*
Y412797D01*
X106917Y412769D01*
X106926Y412723D01*
X106954Y412621D01*
X106991Y412482D01*
X107046Y412334D01*
X107129Y412186D01*
X107231Y412048D01*
X107360Y411918D01*
X107379Y411909D01*
X107425Y411872D01*
X107518Y411816D01*
X107638Y411761D01*
X107795Y411706D01*
X107980Y411650D01*
X108211Y411613D01*
X108470Y411604D01*
X108600D01*
X108655Y411613D01*
X108729Y411622D01*
X108895Y411641D01*
X109080Y411678D01*
X109265Y411724D01*
X109441Y411798D01*
X109515Y411844D01*
X109589Y411890D01*
X109607Y411900D01*
X109644Y411937D01*
X109700Y412001D01*
X109755Y412075D01*
X109820Y412177D01*
X109875Y412288D01*
X109912Y412417D01*
X109931Y412565D01*
Y412584D01*
Y412621D01*
X109922Y412686D01*
X109903Y412760D01*
X109875Y412852D01*
X109829Y412944D01*
X109774Y413037D01*
X109690Y413129D01*
X109681Y413139D01*
X109635Y413166D01*
X109598Y413194D01*
X109561Y413213D01*
X109506Y413240D01*
X109441Y413277D01*
X109358Y413305D01*
X109265Y413342D01*
X109163Y413379D01*
X109043Y413425D01*
X108914Y413462D01*
X108766Y413508D01*
X108600Y413545D01*
X108414Y413592D01*
X108405D01*
X108368Y413601D01*
X108313Y413610D01*
X108248Y413629D01*
X108165Y413647D01*
X108063Y413675D01*
X107962Y413703D01*
X107851Y413730D01*
X107610Y413795D01*
X107379Y413860D01*
X107268Y413897D01*
X107166Y413934D01*
X107074Y413961D01*
X107000Y413998D01*
X106991D01*
X106972Y414008D01*
X106945Y414026D01*
X106908Y414045D01*
X106806Y414100D01*
X106686Y414174D01*
X106547Y414276D01*
X106408Y414387D01*
X106279Y414516D01*
X106168Y414655D01*
X106159Y414673D01*
X106122Y414720D01*
X106085Y414803D01*
X106029Y414914D01*
X105983Y415043D01*
X105937Y415200D01*
X105909Y415376D01*
X105900Y415561D01*
Y415570D01*
Y415579D01*
Y415607D01*
Y415644D01*
X105918Y415746D01*
X105937Y415875D01*
X105974Y416023D01*
X106020Y416180D01*
X106094Y416347D01*
X106196Y416522D01*
Y416532D01*
X106205Y416541D01*
X106251Y416596D01*
X106316Y416680D01*
X106408Y416772D01*
X106528Y416883D01*
X106676Y417003D01*
X106843Y417114D01*
X107037Y417216D01*
X107046D01*
X107065Y417225D01*
X107092Y417234D01*
X107129Y417253D01*
X107185Y417271D01*
X107250Y417299D01*
X107397Y417336D01*
X107573Y417382D01*
X107786Y417429D01*
X108017Y417456D01*
X108267Y417466D01*
X108414D01*
X108489Y417456D01*
D02*
G37*
G36*
X105326Y410957D02*
X104448D01*
X103496Y415154D01*
Y415163D01*
X103487Y415182D01*
X103477Y415219D01*
X103468Y415265D01*
X103459Y415330D01*
X103440Y415395D01*
X103422Y415478D01*
X103403Y415570D01*
X103357Y415764D01*
X103311Y415986D01*
X103265Y416227D01*
X103218Y416467D01*
Y416458D01*
X103209Y416421D01*
X103191Y416375D01*
X103181Y416301D01*
X103163Y416227D01*
X103135Y416134D01*
X103089Y415931D01*
X103034Y415727D01*
X103015Y415626D01*
X102987Y415533D01*
X102969Y415450D01*
X102950Y415376D01*
X102932Y415321D01*
X102923Y415284D01*
X101712Y410957D01*
X100685D01*
X99779Y414202D01*
Y414211D01*
X99761Y414257D01*
X99742Y414322D01*
X99724Y414405D01*
X99696Y414516D01*
X99659Y414636D01*
X99622Y414775D01*
X99585Y414932D01*
X99539Y415108D01*
X99502Y415284D01*
X99419Y415663D01*
X99335Y416060D01*
X99271Y416467D01*
Y416458D01*
X99261Y416439D01*
Y416402D01*
X99243Y416356D01*
X99234Y416301D01*
X99215Y416236D01*
X99206Y416153D01*
X99178Y416060D01*
X99132Y415857D01*
X99076Y415616D01*
X99021Y415358D01*
X98947Y415071D01*
X97949Y410957D01*
X97089D01*
X98845Y417355D01*
X99677D01*
X101018Y412482D01*
Y412473D01*
X101027Y412454D01*
X101037Y412427D01*
X101046Y412380D01*
X101074Y412279D01*
X101101Y412159D01*
X101138Y412029D01*
X101175Y411909D01*
X101203Y411807D01*
X101212Y411761D01*
X101222Y411733D01*
Y411743D01*
X101231Y411752D01*
X101240Y411807D01*
X101258Y411890D01*
X101286Y411992D01*
X101314Y412103D01*
X101351Y412233D01*
X101379Y412362D01*
X101416Y412482D01*
X102766Y417355D01*
X103653D01*
X105326Y410957D01*
D02*
G37*
G36*
X94444Y412353D02*
X94454Y412362D01*
X94500Y412399D01*
X94555Y412454D01*
X94648Y412519D01*
X94749Y412602D01*
X94879Y412695D01*
X95027Y412797D01*
X95193Y412898D01*
X95203D01*
X95212Y412907D01*
X95267Y412944D01*
X95360Y412991D01*
X95471Y413046D01*
X95600Y413111D01*
X95739Y413176D01*
X95878Y413240D01*
X96016Y413296D01*
Y412538D01*
X96007D01*
X95989Y412519D01*
X95951Y412510D01*
X95905Y412482D01*
X95850Y412454D01*
X95785Y412417D01*
X95628Y412325D01*
X95443Y412223D01*
X95258Y412094D01*
X95064Y411946D01*
X94870Y411789D01*
X94860Y411780D01*
X94851Y411770D01*
X94824Y411743D01*
X94787Y411715D01*
X94703Y411622D01*
X94592Y411511D01*
X94481Y411382D01*
X94361Y411234D01*
X94260Y411086D01*
X94167Y410929D01*
X93659D01*
Y417355D01*
X94444D01*
Y412353D01*
D02*
G37*
G36*
X30337Y387031D02*
X30328D01*
X30319D01*
X30291Y387022D01*
X30254D01*
X30171Y387004D01*
X30051Y386976D01*
X29931Y386939D01*
X29792Y386902D01*
X29662Y386837D01*
X29542Y386772D01*
X29533Y386763D01*
X29496Y386735D01*
X29431Y386689D01*
X29367Y386615D01*
X29283Y386523D01*
X29200Y386421D01*
X29117Y386283D01*
X29043Y386134D01*
Y386125D01*
X29034Y386116D01*
X29025Y386088D01*
X29015Y386061D01*
X28988Y385968D01*
X28951Y385848D01*
X28914Y385700D01*
X28886Y385534D01*
X28867Y385349D01*
X28858Y385145D01*
Y385062D01*
X28867Y384970D01*
X28877Y384859D01*
X28895Y384729D01*
X28914Y384581D01*
X28951Y384433D01*
X28997Y384295D01*
X29006Y384276D01*
X29025Y384230D01*
X29061Y384165D01*
X29098Y384082D01*
X29163Y383999D01*
X29228Y383906D01*
X29302Y383814D01*
X29394Y383740D01*
X29404Y383731D01*
X29441Y383712D01*
X29487Y383684D01*
X29561Y383647D01*
X29635Y383610D01*
X29727Y383583D01*
X29829Y383564D01*
X29940Y383555D01*
X29949D01*
X29995D01*
X30051Y383564D01*
X30125Y383573D01*
X30199Y383601D01*
X30291Y383629D01*
X30384Y383675D01*
X30467Y383740D01*
X30476Y383749D01*
X30504Y383777D01*
X30541Y383814D01*
X30596Y383879D01*
X30652Y383953D01*
X30716Y384054D01*
X30781Y384174D01*
X30837Y384313D01*
X30846Y384322D01*
X30855Y384369D01*
X30883Y384443D01*
X30892Y384489D01*
X30911Y384553D01*
X30938Y384618D01*
X30957Y384701D01*
X30984Y384794D01*
X31012Y384905D01*
X31040Y385016D01*
X31077Y385145D01*
X31114Y385293D01*
X31151Y385450D01*
Y385460D01*
X31160Y385487D01*
X31169Y385534D01*
X31188Y385589D01*
X31206Y385663D01*
X31225Y385746D01*
X31280Y385931D01*
X31345Y386134D01*
X31410Y386347D01*
X31474Y386532D01*
X31511Y386615D01*
X31549Y386689D01*
Y386698D01*
X31558Y386708D01*
X31595Y386763D01*
X31641Y386846D01*
X31715Y386939D01*
X31798Y387050D01*
X31900Y387161D01*
X32020Y387272D01*
X32150Y387364D01*
X32168Y387373D01*
X32214Y387401D01*
X32288Y387438D01*
X32381Y387475D01*
X32501Y387512D01*
X32640Y387549D01*
X32787Y387577D01*
X32945Y387586D01*
X32954D01*
X32963D01*
X32991D01*
X33028D01*
X33120Y387568D01*
X33240Y387549D01*
X33379Y387521D01*
X33536Y387475D01*
X33693Y387410D01*
X33851Y387318D01*
X33860D01*
X33869Y387309D01*
X33925Y387262D01*
X33999Y387198D01*
X34091Y387115D01*
X34193Y387004D01*
X34304Y386865D01*
X34405Y386698D01*
X34498Y386514D01*
Y386504D01*
X34507Y386486D01*
X34516Y386458D01*
X34535Y386421D01*
X34553Y386375D01*
X34572Y386310D01*
X34609Y386171D01*
X34646Y385996D01*
X34683Y385792D01*
X34711Y385580D01*
X34720Y385339D01*
Y385219D01*
X34711Y385154D01*
Y385090D01*
X34692Y384914D01*
X34664Y384720D01*
X34618Y384517D01*
X34563Y384295D01*
X34489Y384091D01*
Y384082D01*
X34479Y384063D01*
X34461Y384036D01*
X34442Y383999D01*
X34396Y383906D01*
X34313Y383786D01*
X34220Y383647D01*
X34100Y383509D01*
X33962Y383379D01*
X33804Y383259D01*
X33795D01*
X33786Y383250D01*
X33758Y383231D01*
X33730Y383213D01*
X33638Y383167D01*
X33518Y383111D01*
X33370Y383046D01*
X33194Y383000D01*
X33009Y382954D01*
X32806Y382936D01*
X32741Y383749D01*
X32750D01*
X32769D01*
X32797Y383758D01*
X32843Y383768D01*
X32945Y383795D01*
X33083Y383832D01*
X33231Y383888D01*
X33379Y383971D01*
X33518Y384073D01*
X33647Y384202D01*
X33656Y384221D01*
X33693Y384267D01*
X33749Y384359D01*
X33804Y384480D01*
X33860Y384637D01*
X33915Y384822D01*
X33952Y385053D01*
X33962Y385312D01*
Y385441D01*
X33952Y385497D01*
X33943Y385571D01*
X33925Y385737D01*
X33888Y385922D01*
X33841Y386107D01*
X33767Y386283D01*
X33721Y386356D01*
X33675Y386430D01*
X33666Y386449D01*
X33629Y386486D01*
X33564Y386541D01*
X33490Y386597D01*
X33388Y386661D01*
X33277Y386717D01*
X33148Y386754D01*
X33000Y386772D01*
X32982D01*
X32945D01*
X32880Y386763D01*
X32806Y386745D01*
X32713Y386717D01*
X32621Y386671D01*
X32529Y386615D01*
X32436Y386532D01*
X32427Y386523D01*
X32399Y386477D01*
X32371Y386440D01*
X32353Y386403D01*
X32325Y386347D01*
X32288Y386283D01*
X32260Y386199D01*
X32223Y386107D01*
X32186Y386005D01*
X32140Y385885D01*
X32103Y385756D01*
X32057Y385607D01*
X32020Y385441D01*
X31974Y385256D01*
Y385247D01*
X31965Y385210D01*
X31955Y385154D01*
X31937Y385090D01*
X31918Y385007D01*
X31891Y384905D01*
X31863Y384803D01*
X31835Y384692D01*
X31770Y384452D01*
X31706Y384221D01*
X31669Y384110D01*
X31632Y384008D01*
X31604Y383916D01*
X31567Y383842D01*
Y383832D01*
X31558Y383814D01*
X31539Y383786D01*
X31521Y383749D01*
X31465Y383647D01*
X31391Y383527D01*
X31290Y383389D01*
X31179Y383250D01*
X31049Y383120D01*
X30911Y383009D01*
X30892Y383000D01*
X30846Y382963D01*
X30763Y382926D01*
X30652Y382871D01*
X30522Y382825D01*
X30365Y382778D01*
X30189Y382751D01*
X30004Y382741D01*
X29995D01*
X29986D01*
X29958D01*
X29921D01*
X29820Y382760D01*
X29690Y382778D01*
X29542Y382815D01*
X29385Y382862D01*
X29219Y382936D01*
X29043Y383037D01*
X29034D01*
X29025Y383046D01*
X28969Y383093D01*
X28886Y383158D01*
X28793Y383250D01*
X28682Y383370D01*
X28562Y383518D01*
X28451Y383684D01*
X28349Y383879D01*
Y383888D01*
X28340Y383906D01*
X28331Y383934D01*
X28312Y383971D01*
X28294Y384026D01*
X28266Y384091D01*
X28229Y384239D01*
X28183Y384415D01*
X28137Y384627D01*
X28109Y384859D01*
X28100Y385108D01*
Y385256D01*
X28109Y385330D01*
Y385413D01*
X28118Y385506D01*
X28128Y385617D01*
X28165Y385848D01*
X28202Y386088D01*
X28266Y386329D01*
X28349Y386560D01*
Y386569D01*
X28359Y386588D01*
X28377Y386615D01*
X28396Y386652D01*
X28451Y386763D01*
X28534Y386893D01*
X28645Y387041D01*
X28775Y387198D01*
X28932Y387346D01*
X29108Y387484D01*
X29117D01*
X29135Y387503D01*
X29163Y387512D01*
X29200Y387540D01*
X29246Y387558D01*
X29302Y387586D01*
X29441Y387651D01*
X29616Y387715D01*
X29810Y387771D01*
X30032Y387808D01*
X30263Y387826D01*
X30337Y387031D01*
D02*
G37*
G36*
X34609Y381290D02*
X30411Y380337D01*
X30402D01*
X30384Y380328D01*
X30347Y380319D01*
X30300Y380310D01*
X30236Y380301D01*
X30171Y380282D01*
X30088Y380264D01*
X29995Y380245D01*
X29801Y380199D01*
X29579Y380153D01*
X29339Y380106D01*
X29098Y380060D01*
X29108D01*
X29145Y380051D01*
X29191Y380032D01*
X29265Y380023D01*
X29339Y380005D01*
X29431Y379977D01*
X29635Y379931D01*
X29838Y379875D01*
X29940Y379857D01*
X30032Y379829D01*
X30115Y379810D01*
X30189Y379792D01*
X30245Y379774D01*
X30282Y379764D01*
X34609Y378553D01*
Y377527D01*
X31364Y376621D01*
X31354D01*
X31308Y376602D01*
X31243Y376584D01*
X31160Y376565D01*
X31049Y376538D01*
X30929Y376501D01*
X30790Y376464D01*
X30633Y376427D01*
X30457Y376380D01*
X30282Y376343D01*
X29903Y376260D01*
X29505Y376177D01*
X29098Y376112D01*
X29108D01*
X29126Y376103D01*
X29163D01*
X29209Y376085D01*
X29265Y376075D01*
X29330Y376057D01*
X29413Y376048D01*
X29505Y376020D01*
X29709Y375974D01*
X29949Y375918D01*
X30208Y375863D01*
X30494Y375789D01*
X34609Y374790D01*
Y373930D01*
X28211Y375687D01*
Y376519D01*
X33083Y377860D01*
X33093D01*
X33111Y377869D01*
X33139Y377878D01*
X33185Y377887D01*
X33287Y377915D01*
X33407Y377943D01*
X33536Y377980D01*
X33656Y378017D01*
X33758Y378045D01*
X33804Y378054D01*
X33832Y378063D01*
X33823D01*
X33814Y378072D01*
X33758Y378082D01*
X33675Y378100D01*
X33573Y378128D01*
X33462Y378156D01*
X33333Y378193D01*
X33203Y378220D01*
X33083Y378257D01*
X28211Y379607D01*
Y380495D01*
X34609Y382168D01*
Y381290D01*
D02*
G37*
G36*
X28386Y373560D02*
X28470Y373551D01*
X28562Y373533D01*
X28655Y373514D01*
X28756Y373477D01*
X28766D01*
X28775Y373468D01*
X28830Y373450D01*
X28914Y373413D01*
X29025Y373357D01*
X29154Y373283D01*
X29302Y373191D01*
X29450Y373089D01*
X29607Y372960D01*
X29616D01*
X29625Y372941D01*
X29681Y372895D01*
X29764Y372812D01*
X29884Y372691D01*
X30023Y372553D01*
X30189Y372377D01*
X30374Y372164D01*
X30568Y371933D01*
X30578Y371924D01*
X30605Y371887D01*
X30652Y371832D01*
X30707Y371767D01*
X30781Y371684D01*
X30864Y371582D01*
X30957Y371480D01*
X31058Y371360D01*
X31280Y371129D01*
X31502Y370898D01*
X31613Y370787D01*
X31724Y370685D01*
X31826Y370593D01*
X31928Y370519D01*
X31937D01*
X31946Y370500D01*
X31974Y370482D01*
X32011Y370463D01*
X32113Y370398D01*
X32233Y370325D01*
X32381Y370260D01*
X32538Y370195D01*
X32713Y370158D01*
X32880Y370140D01*
X32889D01*
X32898D01*
X32954Y370149D01*
X33046Y370158D01*
X33148Y370186D01*
X33277Y370223D01*
X33407Y370288D01*
X33536Y370371D01*
X33666Y370482D01*
X33684Y370500D01*
X33721Y370546D01*
X33767Y370611D01*
X33832Y370713D01*
X33888Y370842D01*
X33943Y370990D01*
X33980Y371166D01*
X33989Y371360D01*
Y371415D01*
X33980Y371452D01*
X33971Y371563D01*
X33943Y371693D01*
X33906Y371832D01*
X33841Y371989D01*
X33758Y372137D01*
X33647Y372275D01*
X33629Y372294D01*
X33582Y372331D01*
X33509Y372386D01*
X33398Y372442D01*
X33268Y372506D01*
X33102Y372562D01*
X32917Y372599D01*
X32704Y372617D01*
X32787Y373422D01*
X32797D01*
X32824Y373413D01*
X32871D01*
X32935Y373403D01*
X33009Y373385D01*
X33093Y373366D01*
X33194Y373339D01*
X33296Y373311D01*
X33518Y373237D01*
X33740Y373126D01*
X33851Y373061D01*
X33962Y372978D01*
X34063Y372895D01*
X34156Y372802D01*
X34165Y372793D01*
X34174Y372775D01*
X34202Y372747D01*
X34230Y372701D01*
X34267Y372645D01*
X34304Y372580D01*
X34350Y372506D01*
X34396Y372414D01*
X34442Y372312D01*
X34489Y372201D01*
X34526Y372081D01*
X34563Y371952D01*
X34590Y371813D01*
X34618Y371665D01*
X34627Y371508D01*
X34636Y371342D01*
Y371249D01*
X34627Y371184D01*
X34618Y371110D01*
X34609Y371018D01*
X34590Y370916D01*
X34572Y370815D01*
X34507Y370574D01*
X34415Y370334D01*
X34359Y370214D01*
X34294Y370093D01*
X34211Y369982D01*
X34119Y369881D01*
X34109Y369871D01*
X34100Y369853D01*
X34063Y369835D01*
X34026Y369798D01*
X33980Y369751D01*
X33915Y369705D01*
X33851Y369659D01*
X33767Y369603D01*
X33592Y369511D01*
X33370Y369418D01*
X33259Y369381D01*
X33129Y369363D01*
X33000Y369344D01*
X32861Y369335D01*
X32843D01*
X32797D01*
X32723Y369344D01*
X32621Y369354D01*
X32510Y369372D01*
X32381Y369409D01*
X32242Y369446D01*
X32103Y369502D01*
X32085Y369511D01*
X32039Y369529D01*
X31965Y369566D01*
X31863Y369622D01*
X31752Y369696D01*
X31613Y369788D01*
X31474Y369899D01*
X31317Y370029D01*
X31299Y370047D01*
X31243Y370093D01*
X31197Y370140D01*
X31151Y370186D01*
X31095Y370241D01*
X31021Y370315D01*
X30947Y370389D01*
X30864Y370482D01*
X30772Y370574D01*
X30670Y370685D01*
X30568Y370805D01*
X30448Y370935D01*
X30328Y371083D01*
X30199Y371231D01*
X30189Y371240D01*
X30171Y371258D01*
X30143Y371295D01*
X30106Y371342D01*
X30051Y371397D01*
X29995Y371462D01*
X29875Y371610D01*
X29736Y371767D01*
X29598Y371915D01*
X29478Y372044D01*
X29431Y372100D01*
X29385Y372146D01*
X29376Y372155D01*
X29348Y372183D01*
X29311Y372220D01*
X29256Y372266D01*
X29191Y372312D01*
X29126Y372368D01*
X28969Y372479D01*
Y369326D01*
X28211D01*
Y373570D01*
X28220D01*
X28257D01*
X28312D01*
X28386Y373560D01*
D02*
G37*
G36*
X67021Y207001D02*
X67104D01*
X67206Y206992D01*
X67317Y206973D01*
X67446Y206955D01*
X67714Y206908D01*
X67992Y206834D01*
X68269Y206733D01*
X68398Y206668D01*
X68528Y206594D01*
X68537Y206585D01*
X68556Y206576D01*
X68593Y206548D01*
X68630Y206511D01*
X68685Y206474D01*
X68750Y206418D01*
X68824Y206354D01*
X68898Y206280D01*
X68972Y206196D01*
X69055Y206113D01*
X69221Y205901D01*
X69379Y205651D01*
X69517Y205374D01*
Y205364D01*
X69536Y205337D01*
X69545Y205290D01*
X69573Y205235D01*
X69591Y205161D01*
X69619Y205068D01*
X69656Y204967D01*
X69684Y204856D01*
X69711Y204736D01*
X69748Y204597D01*
X69795Y204310D01*
X69832Y203987D01*
X69850Y203654D01*
Y203645D01*
Y203608D01*
Y203552D01*
X69841Y203487D01*
Y203395D01*
X69832Y203303D01*
X69822Y203182D01*
X69804Y203062D01*
X69758Y202794D01*
X69693Y202498D01*
X69600Y202202D01*
X69471Y201916D01*
X69462Y201907D01*
X69453Y201879D01*
X69434Y201842D01*
X69397Y201796D01*
X69360Y201731D01*
X69314Y201657D01*
X69194Y201490D01*
X69036Y201306D01*
X68852Y201121D01*
X68639Y200936D01*
X68389Y200779D01*
X68380Y200769D01*
X68352Y200760D01*
X68315Y200742D01*
X68269Y200714D01*
X68195Y200686D01*
X68121Y200658D01*
X68029Y200621D01*
X67927Y200584D01*
X67816Y200547D01*
X67696Y200510D01*
X67437Y200455D01*
X67141Y200409D01*
X66836Y200390D01*
X66744D01*
X66679Y200399D01*
X66596Y200409D01*
X66494Y200418D01*
X66392Y200427D01*
X66272Y200455D01*
X66022Y200510D01*
X65745Y200594D01*
X65606Y200649D01*
X65477Y200714D01*
X65347Y200797D01*
X65218Y200880D01*
X65209Y200889D01*
X65190Y200899D01*
X65153Y200926D01*
X65107Y200973D01*
X65061Y201019D01*
X64996Y201084D01*
X64931Y201158D01*
X64858Y201232D01*
X64784Y201324D01*
X64710Y201435D01*
X64626Y201546D01*
X64552Y201666D01*
X64488Y201805D01*
X64414Y201943D01*
X64358Y202091D01*
X64303Y202258D01*
X65135Y202452D01*
Y202443D01*
X65144Y202424D01*
X65163Y202387D01*
X65181Y202341D01*
X65199Y202286D01*
X65227Y202212D01*
X65301Y202064D01*
X65394Y201897D01*
X65505Y201731D01*
X65643Y201574D01*
X65791Y201435D01*
X65810Y201416D01*
X65865Y201380D01*
X65958Y201333D01*
X66078Y201269D01*
X66235Y201213D01*
X66411Y201158D01*
X66623Y201121D01*
X66855Y201111D01*
X66929D01*
X66975Y201121D01*
X67039D01*
X67113Y201130D01*
X67289Y201158D01*
X67483Y201195D01*
X67687Y201259D01*
X67899Y201352D01*
X68093Y201472D01*
X68103D01*
X68112Y201490D01*
X68177Y201537D01*
X68260Y201611D01*
X68362Y201722D01*
X68482Y201860D01*
X68593Y202017D01*
X68694Y202212D01*
X68787Y202424D01*
Y202433D01*
X68796Y202452D01*
X68805Y202480D01*
X68815Y202526D01*
X68833Y202581D01*
X68852Y202646D01*
X68879Y202803D01*
X68916Y202988D01*
X68953Y203192D01*
X68972Y203414D01*
X68981Y203654D01*
Y203663D01*
Y203691D01*
Y203737D01*
Y203793D01*
X68972Y203857D01*
Y203941D01*
X68962Y204033D01*
X68953Y204135D01*
X68925Y204357D01*
X68879Y204597D01*
X68824Y204837D01*
X68750Y205078D01*
Y205087D01*
X68741Y205105D01*
X68722Y205133D01*
X68704Y205179D01*
X68648Y205290D01*
X68565Y205420D01*
X68463Y205568D01*
X68334Y205725D01*
X68186Y205864D01*
X68010Y205993D01*
X68001D01*
X67983Y206002D01*
X67955Y206021D01*
X67918Y206039D01*
X67871Y206058D01*
X67816Y206085D01*
X67687Y206141D01*
X67520Y206196D01*
X67335Y206243D01*
X67132Y206280D01*
X66919Y206289D01*
X66855D01*
X66799Y206280D01*
X66734D01*
X66670Y206270D01*
X66503Y206233D01*
X66309Y206187D01*
X66115Y206113D01*
X65911Y206012D01*
X65810Y205956D01*
X65717Y205882D01*
X65708Y205873D01*
X65699Y205864D01*
X65671Y205836D01*
X65634Y205808D01*
X65597Y205762D01*
X65551Y205706D01*
X65495Y205651D01*
X65449Y205577D01*
X65394Y205494D01*
X65329Y205401D01*
X65273Y205309D01*
X65218Y205198D01*
X65172Y205078D01*
X65126Y204948D01*
X65079Y204810D01*
X65042Y204662D01*
X64192Y204874D01*
Y204884D01*
X64201Y204921D01*
X64219Y204976D01*
X64247Y205050D01*
X64275Y205133D01*
X64312Y205235D01*
X64358Y205346D01*
X64414Y205466D01*
X64543Y205725D01*
X64710Y205984D01*
X64811Y206113D01*
X64913Y206243D01*
X65024Y206354D01*
X65153Y206465D01*
X65163Y206474D01*
X65181Y206492D01*
X65227Y206511D01*
X65273Y206548D01*
X65347Y206594D01*
X65421Y206640D01*
X65523Y206686D01*
X65625Y206733D01*
X65745Y206788D01*
X65875Y206834D01*
X66013Y206881D01*
X66161Y206927D01*
X66318Y206964D01*
X66485Y206982D01*
X66660Y207001D01*
X66845Y207010D01*
X66947D01*
X67021Y207001D01*
D02*
G37*
G36*
X60956Y205364D02*
X63739D01*
Y204643D01*
X60808Y200501D01*
X60170D01*
Y204643D01*
X59301D01*
Y205364D01*
X60170D01*
Y206899D01*
X60956D01*
Y205364D01*
D02*
G37*
G36*
X111408Y272980D02*
X111482Y272971D01*
X111565Y272961D01*
X111667Y272952D01*
X111769Y272924D01*
X112000Y272869D01*
X112231Y272786D01*
X112351Y272730D01*
X112471Y272665D01*
X112582Y272591D01*
X112693Y272508D01*
X112702Y272499D01*
X112721Y272490D01*
X112739Y272453D01*
X112776Y272416D01*
X112823Y272370D01*
X112869Y272314D01*
X112924Y272240D01*
X112971Y272157D01*
X113026Y272074D01*
X113082Y271972D01*
X113183Y271750D01*
X113266Y271491D01*
X113294Y271353D01*
X113313Y271205D01*
X112490Y271140D01*
Y271149D01*
Y271168D01*
X112480Y271195D01*
X112471Y271242D01*
X112444Y271343D01*
X112407Y271482D01*
X112351Y271621D01*
X112277Y271778D01*
X112185Y271917D01*
X112074Y272046D01*
X112055Y272055D01*
X112018Y272092D01*
X111944Y272138D01*
X111843Y272194D01*
X111732Y272249D01*
X111593Y272296D01*
X111436Y272333D01*
X111260Y272342D01*
X111205D01*
X111168Y272333D01*
X111057Y272323D01*
X110927Y272286D01*
X110770Y272240D01*
X110613Y272166D01*
X110447Y272055D01*
X110372Y271991D01*
X110299Y271917D01*
X110289Y271907D01*
X110280Y271898D01*
X110262Y271870D01*
X110234Y271843D01*
X110169Y271741D01*
X110095Y271611D01*
X110030Y271454D01*
X109966Y271260D01*
X109920Y271029D01*
X109901Y270909D01*
Y270779D01*
Y270770D01*
Y270752D01*
Y270715D01*
X109910Y270668D01*
Y270613D01*
X109920Y270548D01*
X109947Y270400D01*
X109993Y270225D01*
X110058Y270049D01*
X110151Y269883D01*
X110280Y269725D01*
Y269716D01*
X110299Y269707D01*
X110345Y269661D01*
X110428Y269596D01*
X110539Y269522D01*
X110687Y269457D01*
X110853Y269393D01*
X111047Y269346D01*
X111158Y269328D01*
X111334D01*
X111408Y269337D01*
X111501Y269346D01*
X111611Y269374D01*
X111722Y269402D01*
X111843Y269448D01*
X111963Y269503D01*
X111972Y269513D01*
X112009Y269531D01*
X112065Y269577D01*
X112138Y269624D01*
X112212Y269688D01*
X112286Y269771D01*
X112370Y269855D01*
X112434Y269956D01*
X113174Y269855D01*
X112555Y266563D01*
X109374D01*
Y267312D01*
X111935D01*
X112277Y269041D01*
X112268Y269032D01*
X112249Y269023D01*
X112222Y269004D01*
X112175Y268976D01*
X112120Y268949D01*
X112055Y268912D01*
X111907Y268838D01*
X111722Y268764D01*
X111519Y268699D01*
X111297Y268653D01*
X111186Y268634D01*
X110983D01*
X110927Y268644D01*
X110853Y268653D01*
X110770Y268662D01*
X110678Y268681D01*
X110576Y268708D01*
X110354Y268773D01*
X110234Y268819D01*
X110114Y268884D01*
X109993Y268949D01*
X109873Y269023D01*
X109762Y269115D01*
X109651Y269217D01*
X109642Y269226D01*
X109624Y269244D01*
X109596Y269272D01*
X109559Y269319D01*
X109513Y269383D01*
X109466Y269448D01*
X109411Y269531D01*
X109355Y269624D01*
X109309Y269725D01*
X109254Y269836D01*
X109208Y269966D01*
X109161Y270095D01*
X109124Y270234D01*
X109097Y270391D01*
X109078Y270548D01*
X109069Y270715D01*
Y270724D01*
Y270752D01*
Y270798D01*
X109078Y270863D01*
X109087Y270937D01*
X109097Y271020D01*
X109115Y271121D01*
X109134Y271223D01*
X109189Y271464D01*
X109282Y271713D01*
X109337Y271843D01*
X109411Y271963D01*
X109485Y272092D01*
X109577Y272212D01*
X109587Y272222D01*
X109605Y272249D01*
X109642Y272286D01*
X109688Y272333D01*
X109753Y272388D01*
X109827Y272462D01*
X109920Y272527D01*
X110021Y272601D01*
X110132Y272675D01*
X110262Y272739D01*
X110400Y272804D01*
X110548Y272869D01*
X110705Y272915D01*
X110881Y272952D01*
X111066Y272980D01*
X111260Y272989D01*
X111343D01*
X111408Y272980D01*
D02*
G37*
G36*
X116863D02*
X116946D01*
X117048Y272971D01*
X117159Y272952D01*
X117288Y272934D01*
X117556Y272887D01*
X117834Y272813D01*
X118111Y272712D01*
X118240Y272647D01*
X118370Y272573D01*
X118379Y272564D01*
X118398Y272554D01*
X118435Y272527D01*
X118472Y272490D01*
X118527Y272453D01*
X118592Y272397D01*
X118666Y272333D01*
X118740Y272259D01*
X118814Y272175D01*
X118897Y272092D01*
X119063Y271880D01*
X119221Y271630D01*
X119359Y271353D01*
Y271343D01*
X119378Y271316D01*
X119387Y271269D01*
X119415Y271214D01*
X119433Y271140D01*
X119461Y271047D01*
X119498Y270946D01*
X119526Y270835D01*
X119553Y270715D01*
X119590Y270576D01*
X119637Y270289D01*
X119674Y269966D01*
X119692Y269633D01*
Y269624D01*
Y269587D01*
Y269531D01*
X119683Y269466D01*
Y269374D01*
X119674Y269282D01*
X119664Y269161D01*
X119646Y269041D01*
X119600Y268773D01*
X119535Y268477D01*
X119443Y268181D01*
X119313Y267895D01*
X119304Y267885D01*
X119295Y267858D01*
X119276Y267821D01*
X119239Y267775D01*
X119202Y267710D01*
X119156Y267636D01*
X119036Y267469D01*
X118878Y267285D01*
X118694Y267100D01*
X118481Y266915D01*
X118231Y266758D01*
X118222Y266748D01*
X118194Y266739D01*
X118157Y266721D01*
X118111Y266693D01*
X118037Y266665D01*
X117963Y266637D01*
X117871Y266600D01*
X117769Y266563D01*
X117658Y266526D01*
X117538Y266489D01*
X117279Y266434D01*
X116983Y266388D01*
X116678Y266369D01*
X116586D01*
X116521Y266378D01*
X116438Y266388D01*
X116336Y266397D01*
X116234Y266406D01*
X116114Y266434D01*
X115864Y266489D01*
X115587Y266573D01*
X115448Y266628D01*
X115319Y266693D01*
X115190Y266776D01*
X115060Y266859D01*
X115051Y266868D01*
X115032Y266878D01*
X114995Y266905D01*
X114949Y266952D01*
X114903Y266998D01*
X114838Y267063D01*
X114773Y267136D01*
X114699Y267211D01*
X114626Y267303D01*
X114551Y267414D01*
X114468Y267525D01*
X114394Y267645D01*
X114330Y267784D01*
X114256Y267922D01*
X114200Y268070D01*
X114145Y268237D01*
X114977Y268431D01*
Y268422D01*
X114986Y268403D01*
X115005Y268366D01*
X115023Y268320D01*
X115042Y268265D01*
X115069Y268190D01*
X115143Y268043D01*
X115236Y267876D01*
X115347Y267710D01*
X115485Y267553D01*
X115633Y267414D01*
X115652Y267395D01*
X115707Y267358D01*
X115800Y267312D01*
X115920Y267248D01*
X116077Y267192D01*
X116253Y267136D01*
X116465Y267100D01*
X116697Y267090D01*
X116770D01*
X116817Y267100D01*
X116881D01*
X116955Y267109D01*
X117131Y267136D01*
X117325Y267174D01*
X117529Y267238D01*
X117741Y267331D01*
X117935Y267451D01*
X117945D01*
X117954Y267469D01*
X118019Y267516D01*
X118102Y267590D01*
X118203Y267701D01*
X118324Y267839D01*
X118435Y267996D01*
X118536Y268190D01*
X118629Y268403D01*
Y268412D01*
X118638Y268431D01*
X118647Y268459D01*
X118657Y268505D01*
X118675Y268560D01*
X118694Y268625D01*
X118721Y268782D01*
X118758Y268967D01*
X118795Y269171D01*
X118814Y269393D01*
X118823Y269633D01*
Y269642D01*
Y269670D01*
Y269716D01*
Y269771D01*
X118814Y269836D01*
Y269919D01*
X118805Y270012D01*
X118795Y270114D01*
X118767Y270336D01*
X118721Y270576D01*
X118666Y270816D01*
X118592Y271057D01*
Y271066D01*
X118583Y271084D01*
X118564Y271112D01*
X118546Y271158D01*
X118490Y271269D01*
X118407Y271399D01*
X118305Y271547D01*
X118176Y271704D01*
X118028Y271843D01*
X117852Y271972D01*
X117843D01*
X117824Y271981D01*
X117797Y272000D01*
X117760Y272018D01*
X117713Y272037D01*
X117658Y272064D01*
X117529Y272120D01*
X117362Y272175D01*
X117177Y272222D01*
X116974Y272259D01*
X116761Y272268D01*
X116697D01*
X116641Y272259D01*
X116576D01*
X116512Y272249D01*
X116345Y272212D01*
X116151Y272166D01*
X115957Y272092D01*
X115753Y271991D01*
X115652Y271935D01*
X115559Y271861D01*
X115550Y271852D01*
X115541Y271843D01*
X115513Y271815D01*
X115476Y271787D01*
X115439Y271741D01*
X115393Y271685D01*
X115337Y271630D01*
X115291Y271556D01*
X115236Y271473D01*
X115171Y271380D01*
X115115Y271288D01*
X115060Y271177D01*
X115014Y271057D01*
X114968Y270927D01*
X114921Y270789D01*
X114884Y270641D01*
X114034Y270853D01*
Y270863D01*
X114043Y270900D01*
X114061Y270955D01*
X114089Y271029D01*
X114117Y271112D01*
X114154Y271214D01*
X114200Y271325D01*
X114256Y271445D01*
X114385Y271704D01*
X114551Y271963D01*
X114653Y272092D01*
X114755Y272222D01*
X114866Y272333D01*
X114995Y272444D01*
X115005Y272453D01*
X115023Y272471D01*
X115069Y272490D01*
X115115Y272527D01*
X115190Y272573D01*
X115263Y272619D01*
X115365Y272665D01*
X115467Y272712D01*
X115587Y272767D01*
X115716Y272813D01*
X115855Y272860D01*
X116003Y272906D01*
X116160Y272943D01*
X116327Y272961D01*
X116502Y272980D01*
X116687Y272989D01*
X116789D01*
X116863Y272980D01*
D02*
G37*
G36*
X72607Y146931D02*
Y146921D01*
Y146884D01*
Y146838D01*
Y146774D01*
X72598Y146690D01*
Y146598D01*
X72589Y146487D01*
X72579Y146376D01*
X72552Y146126D01*
X72515Y145867D01*
X72459Y145618D01*
X72422Y145498D01*
X72385Y145387D01*
Y145377D01*
X72376Y145359D01*
X72358Y145331D01*
X72339Y145294D01*
X72284Y145192D01*
X72200Y145063D01*
X72089Y144915D01*
X71960Y144767D01*
X71794Y144610D01*
X71590Y144471D01*
X71581D01*
X71562Y144453D01*
X71535Y144444D01*
X71488Y144416D01*
X71433Y144388D01*
X71359Y144360D01*
X71285Y144333D01*
X71193Y144296D01*
X71091Y144259D01*
X70980Y144231D01*
X70860Y144203D01*
X70721Y144176D01*
X70582Y144157D01*
X70434Y144138D01*
X70102Y144120D01*
X70018D01*
X69954Y144129D01*
X69880D01*
X69787Y144138D01*
X69686Y144148D01*
X69584Y144157D01*
X69353Y144194D01*
X69103Y144249D01*
X68863Y144323D01*
X68632Y144425D01*
X68622D01*
X68604Y144444D01*
X68576Y144462D01*
X68539Y144481D01*
X68437Y144555D01*
X68317Y144656D01*
X68179Y144786D01*
X68049Y144934D01*
X67920Y145119D01*
X67818Y145322D01*
Y145331D01*
X67809Y145350D01*
X67800Y145387D01*
X67781Y145433D01*
X67762Y145488D01*
X67744Y145562D01*
X67716Y145646D01*
X67698Y145747D01*
X67679Y145858D01*
X67652Y145978D01*
X67633Y146108D01*
X67615Y146247D01*
X67596Y146404D01*
X67587Y146570D01*
X67578Y146746D01*
Y146931D01*
Y150629D01*
X68428D01*
Y146931D01*
Y146921D01*
Y146894D01*
Y146847D01*
Y146792D01*
X68437Y146727D01*
Y146644D01*
X68447Y146468D01*
X68465Y146265D01*
X68493Y146062D01*
X68530Y145867D01*
X68548Y145784D01*
X68576Y145701D01*
X68585Y145682D01*
X68604Y145636D01*
X68650Y145571D01*
X68706Y145479D01*
X68770Y145387D01*
X68863Y145285D01*
X68974Y145183D01*
X69103Y145100D01*
X69122Y145091D01*
X69168Y145063D01*
X69251Y145035D01*
X69362Y144998D01*
X69491Y144952D01*
X69658Y144924D01*
X69833Y144897D01*
X70028Y144887D01*
X70120D01*
X70176Y144897D01*
X70259D01*
X70342Y144906D01*
X70545Y144943D01*
X70767Y144989D01*
X70980Y145063D01*
X71183Y145165D01*
X71276Y145230D01*
X71359Y145303D01*
X71368Y145313D01*
X71378Y145322D01*
X71396Y145350D01*
X71424Y145387D01*
X71452Y145442D01*
X71488Y145498D01*
X71526Y145581D01*
X71562Y145664D01*
X71599Y145766D01*
X71627Y145886D01*
X71664Y146025D01*
X71692Y146173D01*
X71720Y146339D01*
X71738Y146515D01*
X71757Y146718D01*
Y146931D01*
Y150629D01*
X72607D01*
Y146931D01*
D02*
G37*
G36*
X75973Y150647D02*
X76047Y150638D01*
X76139Y150629D01*
X76241Y150610D01*
X76342Y150592D01*
X76583Y150527D01*
X76823Y150435D01*
X76943Y150379D01*
X77064Y150315D01*
X77175Y150231D01*
X77276Y150139D01*
X77285Y150130D01*
X77304Y150120D01*
X77323Y150083D01*
X77359Y150046D01*
X77406Y150000D01*
X77452Y149936D01*
X77498Y149871D01*
X77554Y149788D01*
X77646Y149612D01*
X77738Y149390D01*
X77776Y149279D01*
X77794Y149150D01*
X77812Y149020D01*
X77822Y148882D01*
Y148863D01*
Y148817D01*
X77812Y148743D01*
X77803Y148641D01*
X77785Y148530D01*
X77748Y148401D01*
X77711Y148262D01*
X77655Y148123D01*
X77646Y148105D01*
X77628Y148059D01*
X77591Y147985D01*
X77535Y147883D01*
X77461Y147772D01*
X77369Y147633D01*
X77258Y147495D01*
X77128Y147337D01*
X77110Y147319D01*
X77064Y147263D01*
X77017Y147217D01*
X76971Y147171D01*
X76916Y147116D01*
X76842Y147042D01*
X76768Y146968D01*
X76675Y146884D01*
X76583Y146792D01*
X76472Y146690D01*
X76352Y146589D01*
X76222Y146468D01*
X76074Y146348D01*
X75926Y146219D01*
X75917Y146209D01*
X75899Y146191D01*
X75862Y146163D01*
X75815Y146126D01*
X75760Y146071D01*
X75695Y146015D01*
X75547Y145895D01*
X75390Y145757D01*
X75242Y145618D01*
X75113Y145498D01*
X75057Y145451D01*
X75011Y145405D01*
X75002Y145396D01*
X74974Y145368D01*
X74937Y145331D01*
X74891Y145276D01*
X74845Y145211D01*
X74789Y145146D01*
X74678Y144989D01*
X77831D01*
Y144231D01*
X73587D01*
Y144240D01*
Y144277D01*
Y144333D01*
X73597Y144407D01*
X73606Y144490D01*
X73624Y144582D01*
X73643Y144675D01*
X73680Y144776D01*
Y144786D01*
X73689Y144795D01*
X73707Y144850D01*
X73744Y144934D01*
X73800Y145044D01*
X73874Y145174D01*
X73966Y145322D01*
X74068Y145470D01*
X74197Y145627D01*
Y145636D01*
X74216Y145646D01*
X74262Y145701D01*
X74345Y145784D01*
X74466Y145904D01*
X74604Y146043D01*
X74780Y146209D01*
X74993Y146394D01*
X75224Y146589D01*
X75233Y146598D01*
X75270Y146625D01*
X75325Y146672D01*
X75390Y146727D01*
X75473Y146801D01*
X75575Y146884D01*
X75677Y146977D01*
X75797Y147079D01*
X76028Y147301D01*
X76259Y147522D01*
X76370Y147633D01*
X76472Y147744D01*
X76564Y147846D01*
X76638Y147948D01*
Y147957D01*
X76657Y147966D01*
X76675Y147994D01*
X76694Y148031D01*
X76758Y148133D01*
X76832Y148253D01*
X76897Y148401D01*
X76962Y148558D01*
X76999Y148734D01*
X77017Y148900D01*
Y148909D01*
Y148918D01*
X77008Y148974D01*
X76999Y149066D01*
X76971Y149168D01*
X76934Y149298D01*
X76869Y149427D01*
X76786Y149556D01*
X76675Y149686D01*
X76657Y149704D01*
X76610Y149741D01*
X76546Y149788D01*
X76444Y149852D01*
X76315Y149908D01*
X76167Y149963D01*
X75991Y150000D01*
X75797Y150009D01*
X75742D01*
X75704Y150000D01*
X75594Y149991D01*
X75464Y149963D01*
X75325Y149926D01*
X75168Y149861D01*
X75020Y149778D01*
X74882Y149667D01*
X74863Y149649D01*
X74826Y149603D01*
X74771Y149529D01*
X74715Y149418D01*
X74651Y149288D01*
X74595Y149122D01*
X74558Y148937D01*
X74539Y148724D01*
X73735Y148807D01*
Y148817D01*
X73744Y148844D01*
Y148891D01*
X73754Y148955D01*
X73772Y149029D01*
X73791Y149113D01*
X73818Y149214D01*
X73846Y149316D01*
X73920Y149538D01*
X74031Y149760D01*
X74096Y149871D01*
X74179Y149982D01*
X74262Y150083D01*
X74355Y150176D01*
X74364Y150185D01*
X74382Y150194D01*
X74410Y150222D01*
X74456Y150250D01*
X74512Y150287D01*
X74577Y150324D01*
X74651Y150370D01*
X74743Y150416D01*
X74845Y150463D01*
X74956Y150509D01*
X75076Y150546D01*
X75205Y150583D01*
X75344Y150610D01*
X75492Y150638D01*
X75649Y150647D01*
X75815Y150657D01*
X75908D01*
X75973Y150647D01*
D02*
G37*
G36*
X136521Y132340D02*
X136604Y132331D01*
X136706Y132322D01*
X136808Y132313D01*
X136928Y132285D01*
X137178Y132229D01*
X137455Y132146D01*
X137594Y132091D01*
X137723Y132026D01*
X137852Y131943D01*
X137982Y131860D01*
X137991Y131851D01*
X138010Y131841D01*
X138047Y131813D01*
X138093Y131767D01*
X138139Y131721D01*
X138204Y131656D01*
X138268Y131582D01*
X138343Y131508D01*
X138417Y131416D01*
X138490Y131305D01*
X138574Y131194D01*
X138648Y131074D01*
X138712Y130935D01*
X138786Y130796D01*
X138842Y130648D01*
X138897Y130482D01*
X138065Y130288D01*
Y130297D01*
X138056Y130316D01*
X138037Y130353D01*
X138019Y130399D01*
X138000Y130454D01*
X137973Y130528D01*
X137899Y130676D01*
X137806Y130843D01*
X137695Y131009D01*
X137557Y131166D01*
X137409Y131305D01*
X137390Y131323D01*
X137335Y131360D01*
X137242Y131407D01*
X137122Y131471D01*
X136965Y131527D01*
X136789Y131582D01*
X136577Y131619D01*
X136345Y131629D01*
X136271D01*
X136225Y131619D01*
X136160D01*
X136087Y131610D01*
X135911Y131582D01*
X135717Y131545D01*
X135513Y131481D01*
X135301Y131388D01*
X135106Y131268D01*
X135097D01*
X135088Y131250D01*
X135023Y131203D01*
X134940Y131129D01*
X134838Y131018D01*
X134718Y130880D01*
X134607Y130723D01*
X134506Y130528D01*
X134413Y130316D01*
Y130306D01*
X134404Y130288D01*
X134395Y130260D01*
X134385Y130214D01*
X134367Y130159D01*
X134348Y130094D01*
X134321Y129937D01*
X134284Y129752D01*
X134247Y129548D01*
X134228Y129326D01*
X134219Y129086D01*
Y129077D01*
Y129049D01*
Y129003D01*
Y128947D01*
X134228Y128883D01*
Y128799D01*
X134237Y128707D01*
X134247Y128605D01*
X134274Y128383D01*
X134321Y128143D01*
X134376Y127903D01*
X134450Y127662D01*
Y127653D01*
X134459Y127634D01*
X134478Y127607D01*
X134496Y127561D01*
X134552Y127450D01*
X134635Y127320D01*
X134737Y127172D01*
X134866Y127015D01*
X135014Y126876D01*
X135190Y126747D01*
X135199D01*
X135218Y126738D01*
X135245Y126719D01*
X135282Y126701D01*
X135328Y126682D01*
X135384Y126654D01*
X135513Y126599D01*
X135680Y126544D01*
X135865Y126497D01*
X136068Y126460D01*
X136281Y126451D01*
X136345D01*
X136401Y126460D01*
X136466D01*
X136530Y126469D01*
X136697Y126507D01*
X136891Y126553D01*
X137085Y126627D01*
X137289Y126728D01*
X137390Y126784D01*
X137483Y126858D01*
X137492Y126867D01*
X137501Y126876D01*
X137529Y126904D01*
X137566Y126932D01*
X137603Y126978D01*
X137649Y127034D01*
X137705Y127089D01*
X137751Y127163D01*
X137806Y127246D01*
X137871Y127339D01*
X137926Y127431D01*
X137982Y127542D01*
X138028Y127662D01*
X138074Y127792D01*
X138121Y127930D01*
X138158Y128078D01*
X139008Y127866D01*
Y127856D01*
X138999Y127819D01*
X138980Y127764D01*
X138953Y127690D01*
X138925Y127607D01*
X138888Y127505D01*
X138842Y127394D01*
X138786Y127274D01*
X138657Y127015D01*
X138490Y126756D01*
X138389Y126627D01*
X138287Y126497D01*
X138176Y126386D01*
X138047Y126275D01*
X138037Y126266D01*
X138019Y126248D01*
X137973Y126229D01*
X137926Y126192D01*
X137852Y126146D01*
X137779Y126100D01*
X137677Y126053D01*
X137575Y126007D01*
X137455Y125952D01*
X137325Y125906D01*
X137187Y125859D01*
X137039Y125813D01*
X136882Y125776D01*
X136715Y125758D01*
X136540Y125739D01*
X136355Y125730D01*
X136253D01*
X136179Y125739D01*
X136096D01*
X135994Y125748D01*
X135883Y125767D01*
X135754Y125785D01*
X135486Y125832D01*
X135208Y125906D01*
X134931Y126007D01*
X134801Y126072D01*
X134672Y126146D01*
X134663Y126155D01*
X134644Y126164D01*
X134607Y126192D01*
X134570Y126229D01*
X134515Y126266D01*
X134450Y126322D01*
X134376Y126386D01*
X134302Y126460D01*
X134228Y126544D01*
X134145Y126627D01*
X133979Y126839D01*
X133821Y127089D01*
X133683Y127366D01*
Y127376D01*
X133664Y127403D01*
X133655Y127450D01*
X133627Y127505D01*
X133609Y127579D01*
X133581Y127671D01*
X133544Y127773D01*
X133516Y127884D01*
X133489Y128004D01*
X133452Y128143D01*
X133405Y128430D01*
X133368Y128753D01*
X133350Y129086D01*
Y129095D01*
Y129132D01*
Y129188D01*
X133359Y129252D01*
Y129345D01*
X133368Y129437D01*
X133378Y129558D01*
X133396Y129678D01*
X133442Y129946D01*
X133507Y130242D01*
X133600Y130538D01*
X133729Y130824D01*
X133738Y130833D01*
X133747Y130861D01*
X133766Y130898D01*
X133803Y130944D01*
X133840Y131009D01*
X133886Y131083D01*
X134006Y131250D01*
X134164Y131434D01*
X134348Y131619D01*
X134561Y131804D01*
X134811Y131961D01*
X134820Y131971D01*
X134848Y131980D01*
X134885Y131998D01*
X134931Y132026D01*
X135005Y132054D01*
X135079Y132082D01*
X135171Y132119D01*
X135273Y132156D01*
X135384Y132192D01*
X135504Y132229D01*
X135763Y132285D01*
X136059Y132331D01*
X136364Y132350D01*
X136456D01*
X136521Y132340D01*
D02*
G37*
G36*
X141930Y132257D02*
X142050Y132239D01*
X142198Y132211D01*
X142364Y132165D01*
X142531Y132109D01*
X142697Y132035D01*
X142706D01*
X142716Y132026D01*
X142771Y131998D01*
X142854Y131943D01*
X142947Y131878D01*
X143058Y131786D01*
X143169Y131684D01*
X143280Y131564D01*
X143372Y131425D01*
X143381Y131407D01*
X143409Y131360D01*
X143446Y131277D01*
X143492Y131175D01*
X143539Y131055D01*
X143575Y130917D01*
X143603Y130759D01*
X143612Y130602D01*
Y130584D01*
Y130528D01*
X143603Y130454D01*
X143585Y130353D01*
X143557Y130232D01*
X143511Y130103D01*
X143455Y129974D01*
X143381Y129844D01*
X143372Y129826D01*
X143344Y129789D01*
X143289Y129724D01*
X143215Y129650D01*
X143123Y129567D01*
X143012Y129474D01*
X142882Y129391D01*
X142725Y129308D01*
X142734D01*
X142753Y129299D01*
X142780Y129289D01*
X142817Y129280D01*
X142919Y129243D01*
X143048Y129188D01*
X143196Y129114D01*
X143344Y129021D01*
X143483Y128901D01*
X143612Y128762D01*
X143622Y128744D01*
X143659Y128688D01*
X143714Y128596D01*
X143770Y128476D01*
X143825Y128328D01*
X143881Y128152D01*
X143918Y127949D01*
X143927Y127727D01*
Y127718D01*
Y127690D01*
Y127644D01*
X143918Y127588D01*
X143908Y127514D01*
X143890Y127431D01*
X143871Y127339D01*
X143853Y127237D01*
X143779Y127015D01*
X143723Y126895D01*
X143668Y126784D01*
X143594Y126664D01*
X143511Y126544D01*
X143418Y126423D01*
X143307Y126312D01*
X143298Y126303D01*
X143280Y126285D01*
X143243Y126257D01*
X143196Y126220D01*
X143141Y126174D01*
X143067Y126127D01*
X142984Y126072D01*
X142882Y126026D01*
X142780Y125970D01*
X142660Y125915D01*
X142540Y125869D01*
X142401Y125822D01*
X142253Y125785D01*
X142096Y125758D01*
X141939Y125739D01*
X141763Y125730D01*
X141680D01*
X141625Y125739D01*
X141551Y125748D01*
X141468Y125758D01*
X141375Y125776D01*
X141273Y125795D01*
X141052Y125850D01*
X140820Y125942D01*
X140700Y125998D01*
X140589Y126063D01*
X140478Y126146D01*
X140367Y126229D01*
X140358Y126238D01*
X140339Y126257D01*
X140312Y126285D01*
X140284Y126322D01*
X140238Y126368D01*
X140192Y126433D01*
X140136Y126497D01*
X140081Y126580D01*
X140025Y126673D01*
X139970Y126765D01*
X139868Y126987D01*
X139785Y127246D01*
X139757Y127385D01*
X139739Y127533D01*
X140525Y127634D01*
Y127625D01*
X140534Y127607D01*
X140543Y127570D01*
X140552Y127523D01*
X140561Y127468D01*
X140580Y127403D01*
X140626Y127265D01*
X140691Y127098D01*
X140774Y126941D01*
X140866Y126793D01*
X140977Y126664D01*
X140996Y126654D01*
X141033Y126617D01*
X141107Y126571D01*
X141199Y126525D01*
X141310Y126469D01*
X141449Y126423D01*
X141606Y126386D01*
X141773Y126377D01*
X141828D01*
X141865Y126386D01*
X141967Y126396D01*
X142096Y126423D01*
X142244Y126469D01*
X142401Y126534D01*
X142558Y126627D01*
X142706Y126756D01*
X142725Y126775D01*
X142771Y126830D01*
X142827Y126913D01*
X142901Y127024D01*
X142975Y127163D01*
X143030Y127320D01*
X143076Y127505D01*
X143095Y127708D01*
Y127718D01*
Y127736D01*
Y127764D01*
X143085Y127801D01*
X143076Y127903D01*
X143048Y128023D01*
X143012Y128171D01*
X142947Y128319D01*
X142854Y128467D01*
X142734Y128605D01*
X142716Y128624D01*
X142669Y128661D01*
X142596Y128716D01*
X142494Y128781D01*
X142364Y128846D01*
X142207Y128901D01*
X142031Y128938D01*
X141837Y128957D01*
X141754D01*
X141689Y128947D01*
X141606Y128938D01*
X141514Y128920D01*
X141403Y128901D01*
X141283Y128873D01*
X141375Y129567D01*
X141421D01*
X141458Y129558D01*
X141579D01*
X141680Y129576D01*
X141800Y129594D01*
X141939Y129622D01*
X142096Y129669D01*
X142244Y129733D01*
X142401Y129816D01*
X142411D01*
X142420Y129826D01*
X142466Y129863D01*
X142531Y129927D01*
X142605Y130011D01*
X142679Y130131D01*
X142743Y130269D01*
X142790Y130427D01*
X142808Y130519D01*
Y130621D01*
Y130630D01*
Y130639D01*
Y130695D01*
X142790Y130769D01*
X142771Y130870D01*
X142734Y130981D01*
X142688Y131102D01*
X142614Y131222D01*
X142512Y131333D01*
X142503Y131342D01*
X142457Y131379D01*
X142392Y131425D01*
X142309Y131481D01*
X142198Y131527D01*
X142069Y131573D01*
X141920Y131610D01*
X141754Y131619D01*
X141680D01*
X141597Y131601D01*
X141486Y131582D01*
X141366Y131545D01*
X141246Y131499D01*
X141116Y131425D01*
X140996Y131333D01*
X140987Y131323D01*
X140950Y131277D01*
X140894Y131213D01*
X140830Y131120D01*
X140765Y131000D01*
X140700Y130852D01*
X140645Y130676D01*
X140608Y130473D01*
X139822Y130611D01*
Y130621D01*
X139831Y130648D01*
X139840Y130686D01*
X139850Y130741D01*
X139868Y130806D01*
X139896Y130880D01*
X139951Y131055D01*
X140044Y131259D01*
X140155Y131462D01*
X140293Y131656D01*
X140469Y131832D01*
X140478Y131841D01*
X140497Y131851D01*
X140525Y131869D01*
X140561Y131897D01*
X140608Y131934D01*
X140672Y131971D01*
X140737Y132008D01*
X140820Y132054D01*
X141005Y132128D01*
X141218Y132202D01*
X141468Y132248D01*
X141597Y132267D01*
X141828D01*
X141930Y132257D01*
D02*
G37*
G36*
X105925Y77878D02*
X105981D01*
X106129Y77850D01*
X106304Y77822D01*
X106489Y77776D01*
X106693Y77711D01*
X106887Y77619D01*
X106896D01*
X106905Y77610D01*
X106933Y77591D01*
X106970Y77572D01*
X107063Y77517D01*
X107183Y77434D01*
X107312Y77332D01*
X107442Y77212D01*
X107571Y77064D01*
X107682Y76907D01*
Y76898D01*
X107691Y76888D01*
X107710Y76861D01*
X107719Y76824D01*
X107765Y76731D01*
X107811Y76611D01*
X107867Y76454D01*
X107904Y76278D01*
X107941Y76084D01*
X107950Y75871D01*
Y75825D01*
X107941Y75779D01*
Y75705D01*
X107932Y75622D01*
X107913Y75529D01*
X107885Y75418D01*
X107858Y75307D01*
X107821Y75178D01*
X107774Y75048D01*
X107719Y74919D01*
X107645Y74780D01*
X107562Y74651D01*
X107469Y74521D01*
X107358Y74392D01*
X107229Y74272D01*
X107220Y74263D01*
X107192Y74244D01*
X107155Y74216D01*
X107090Y74179D01*
X107007Y74124D01*
X106915Y74078D01*
X106794Y74022D01*
X106665Y73967D01*
X106508Y73902D01*
X106332Y73847D01*
X106138Y73800D01*
X105925Y73754D01*
X105685Y73708D01*
X105426Y73680D01*
X105149Y73662D01*
X104853Y73652D01*
X104844D01*
X104834D01*
X104807D01*
X104770D01*
X104677Y73662D01*
X104548D01*
X104400Y73671D01*
X104224Y73689D01*
X104030Y73708D01*
X103817Y73736D01*
X103605Y73773D01*
X103373Y73819D01*
X103152Y73874D01*
X102930Y73939D01*
X102717Y74022D01*
X102514Y74115D01*
X102319Y74216D01*
X102153Y74337D01*
X102144Y74346D01*
X102125Y74364D01*
X102088Y74401D01*
X102033Y74447D01*
X101977Y74503D01*
X101922Y74577D01*
X101848Y74669D01*
X101783Y74762D01*
X101719Y74873D01*
X101645Y74993D01*
X101589Y75132D01*
X101524Y75270D01*
X101478Y75427D01*
X101441Y75594D01*
X101423Y75770D01*
X101413Y75954D01*
Y76028D01*
X101423Y76084D01*
Y76149D01*
X101432Y76223D01*
X101469Y76398D01*
X101515Y76592D01*
X101589Y76796D01*
X101700Y76999D01*
X101765Y77101D01*
X101839Y77193D01*
X101848Y77203D01*
X101857Y77212D01*
X101885Y77240D01*
X101913Y77267D01*
X101959Y77314D01*
X102014Y77351D01*
X102144Y77452D01*
X102310Y77554D01*
X102514Y77646D01*
X102745Y77730D01*
X103004Y77785D01*
X103068Y76999D01*
X103059D01*
X103050Y76990D01*
X102994Y76981D01*
X102911Y76953D01*
X102809Y76916D01*
X102699Y76879D01*
X102588Y76824D01*
X102486Y76759D01*
X102403Y76694D01*
X102384Y76676D01*
X102347Y76639D01*
X102292Y76574D01*
X102227Y76481D01*
X102172Y76361D01*
X102116Y76232D01*
X102079Y76075D01*
X102061Y75908D01*
Y75844D01*
X102070Y75770D01*
X102088Y75686D01*
X102116Y75575D01*
X102153Y75465D01*
X102199Y75353D01*
X102273Y75243D01*
X102282Y75224D01*
X102319Y75178D01*
X102384Y75113D01*
X102477Y75030D01*
X102588Y74938D01*
X102717Y74836D01*
X102884Y74743D01*
X103068Y74651D01*
X103078D01*
X103096Y74642D01*
X103124Y74632D01*
X103161Y74614D01*
X103216Y74605D01*
X103281Y74586D01*
X103355Y74568D01*
X103448Y74549D01*
X103549Y74521D01*
X103660Y74503D01*
X103780Y74485D01*
X103910Y74475D01*
X104058Y74457D01*
X104206Y74447D01*
X104372Y74438D01*
X104538D01*
X104529Y74447D01*
X104474Y74485D01*
X104400Y74549D01*
X104307Y74632D01*
X104196Y74725D01*
X104095Y74845D01*
X103993Y74974D01*
X103900Y75122D01*
Y75132D01*
X103891Y75141D01*
X103863Y75196D01*
X103836Y75280D01*
X103790Y75391D01*
X103753Y75520D01*
X103725Y75668D01*
X103697Y75825D01*
X103688Y75992D01*
Y76066D01*
X103697Y76121D01*
X103706Y76195D01*
X103716Y76269D01*
X103734Y76361D01*
X103762Y76454D01*
X103827Y76666D01*
X103873Y76777D01*
X103938Y76888D01*
X104002Y76999D01*
X104076Y77119D01*
X104169Y77230D01*
X104270Y77332D01*
X104280Y77341D01*
X104298Y77360D01*
X104326Y77388D01*
X104372Y77415D01*
X104437Y77462D01*
X104501Y77508D01*
X104585Y77554D01*
X104677Y77610D01*
X104779Y77665D01*
X104890Y77711D01*
X105019Y77757D01*
X105149Y77804D01*
X105287Y77831D01*
X105444Y77859D01*
X105602Y77878D01*
X105768Y77887D01*
X105777D01*
X105796D01*
X105824D01*
X105870D01*
X105925Y77878D01*
D02*
G37*
G36*
X105861Y72959D02*
X105916Y72940D01*
X105990Y72913D01*
X106073Y72885D01*
X106175Y72848D01*
X106286Y72802D01*
X106406Y72746D01*
X106665Y72617D01*
X106924Y72450D01*
X107053Y72349D01*
X107183Y72247D01*
X107294Y72136D01*
X107405Y72007D01*
X107414Y71997D01*
X107432Y71979D01*
X107451Y71933D01*
X107488Y71886D01*
X107534Y71813D01*
X107580Y71739D01*
X107626Y71637D01*
X107673Y71535D01*
X107728Y71415D01*
X107774Y71286D01*
X107821Y71147D01*
X107867Y70999D01*
X107904Y70842D01*
X107922Y70675D01*
X107941Y70500D01*
X107950Y70315D01*
Y70213D01*
X107941Y70139D01*
Y70056D01*
X107932Y69954D01*
X107913Y69843D01*
X107895Y69714D01*
X107848Y69446D01*
X107774Y69168D01*
X107673Y68891D01*
X107608Y68761D01*
X107534Y68632D01*
X107525Y68623D01*
X107515Y68604D01*
X107488Y68567D01*
X107451Y68530D01*
X107414Y68475D01*
X107358Y68410D01*
X107294Y68336D01*
X107220Y68262D01*
X107136Y68188D01*
X107053Y68105D01*
X106841Y67939D01*
X106591Y67781D01*
X106314Y67643D01*
X106304D01*
X106277Y67624D01*
X106230Y67615D01*
X106175Y67587D01*
X106101Y67569D01*
X106009Y67541D01*
X105907Y67504D01*
X105796Y67476D01*
X105676Y67449D01*
X105537Y67412D01*
X105250Y67365D01*
X104927Y67328D01*
X104594Y67310D01*
X104585D01*
X104548D01*
X104492D01*
X104427Y67319D01*
X104335D01*
X104243Y67328D01*
X104122Y67338D01*
X104002Y67356D01*
X103734Y67402D01*
X103438Y67467D01*
X103142Y67559D01*
X102856Y67689D01*
X102846Y67698D01*
X102819Y67707D01*
X102782Y67726D01*
X102736Y67763D01*
X102671Y67800D01*
X102597Y67846D01*
X102430Y67966D01*
X102246Y68123D01*
X102061Y68308D01*
X101876Y68521D01*
X101719Y68771D01*
X101709Y68780D01*
X101700Y68808D01*
X101682Y68845D01*
X101654Y68891D01*
X101626Y68965D01*
X101598Y69039D01*
X101561Y69131D01*
X101524Y69233D01*
X101487Y69344D01*
X101450Y69464D01*
X101395Y69723D01*
X101349Y70019D01*
X101330Y70324D01*
Y70416D01*
X101340Y70481D01*
X101349Y70564D01*
X101358Y70666D01*
X101367Y70768D01*
X101395Y70888D01*
X101450Y71138D01*
X101534Y71415D01*
X101589Y71554D01*
X101654Y71683D01*
X101737Y71813D01*
X101820Y71942D01*
X101830Y71951D01*
X101839Y71970D01*
X101867Y72007D01*
X101913Y72053D01*
X101959Y72099D01*
X102024Y72164D01*
X102098Y72228D01*
X102172Y72302D01*
X102264Y72376D01*
X102375Y72450D01*
X102486Y72534D01*
X102606Y72608D01*
X102745Y72672D01*
X102884Y72746D01*
X103031Y72802D01*
X103198Y72857D01*
X103392Y72025D01*
X103383D01*
X103364Y72016D01*
X103327Y71997D01*
X103281Y71979D01*
X103226Y71960D01*
X103152Y71933D01*
X103004Y71859D01*
X102837Y71766D01*
X102671Y71655D01*
X102514Y71517D01*
X102375Y71369D01*
X102357Y71350D01*
X102319Y71295D01*
X102273Y71202D01*
X102209Y71082D01*
X102153Y70925D01*
X102098Y70749D01*
X102061Y70537D01*
X102051Y70305D01*
Y70231D01*
X102061Y70185D01*
Y70121D01*
X102070Y70047D01*
X102098Y69871D01*
X102135Y69677D01*
X102199Y69473D01*
X102292Y69261D01*
X102412Y69067D01*
Y69057D01*
X102430Y69048D01*
X102477Y68983D01*
X102551Y68900D01*
X102662Y68798D01*
X102800Y68678D01*
X102957Y68567D01*
X103152Y68466D01*
X103364Y68373D01*
X103373D01*
X103392Y68364D01*
X103420Y68355D01*
X103466Y68345D01*
X103521Y68327D01*
X103586Y68308D01*
X103743Y68281D01*
X103928Y68244D01*
X104132Y68207D01*
X104354Y68188D01*
X104594Y68179D01*
X104603D01*
X104631D01*
X104677D01*
X104733D01*
X104797Y68188D01*
X104881D01*
X104973Y68197D01*
X105075Y68207D01*
X105297Y68234D01*
X105537Y68281D01*
X105777Y68336D01*
X106018Y68410D01*
X106027D01*
X106046Y68419D01*
X106073Y68438D01*
X106119Y68456D01*
X106230Y68512D01*
X106360Y68595D01*
X106508Y68697D01*
X106665Y68826D01*
X106804Y68974D01*
X106933Y69150D01*
Y69159D01*
X106942Y69177D01*
X106961Y69205D01*
X106979Y69242D01*
X106998Y69288D01*
X107025Y69344D01*
X107081Y69473D01*
X107136Y69640D01*
X107183Y69825D01*
X107220Y70028D01*
X107229Y70241D01*
Y70305D01*
X107220Y70361D01*
Y70426D01*
X107210Y70490D01*
X107173Y70657D01*
X107127Y70851D01*
X107053Y71045D01*
X106952Y71248D01*
X106896Y71350D01*
X106822Y71443D01*
X106813Y71452D01*
X106804Y71461D01*
X106776Y71489D01*
X106748Y71526D01*
X106702Y71563D01*
X106646Y71609D01*
X106591Y71665D01*
X106517Y71711D01*
X106434Y71766D01*
X106341Y71831D01*
X106249Y71886D01*
X106138Y71942D01*
X106018Y71988D01*
X105888Y72034D01*
X105750Y72081D01*
X105602Y72118D01*
X105814Y72968D01*
X105824D01*
X105861Y72959D01*
D02*
G37*
G36*
X142399Y74502D02*
X142389Y74428D01*
Y74345D01*
X142380Y74151D01*
X142353Y73948D01*
X142325Y73726D01*
X142279Y73522D01*
X142251Y73421D01*
X142223Y73337D01*
Y73328D01*
X142214Y73319D01*
X142186Y73263D01*
X142149Y73180D01*
X142084Y73078D01*
X142001Y72968D01*
X141890Y72847D01*
X141761Y72736D01*
X141613Y72625D01*
X141604D01*
X141594Y72616D01*
X141539Y72579D01*
X141447Y72542D01*
X141326Y72487D01*
X141188Y72441D01*
X141021Y72394D01*
X140845Y72366D01*
X140651Y72357D01*
X140642D01*
X140624D01*
X140587D01*
X140540Y72366D01*
X140476D01*
X140411Y72376D01*
X140254Y72413D01*
X140069Y72468D01*
X139875Y72542D01*
X139681Y72653D01*
X139588Y72727D01*
X139496Y72801D01*
X139486Y72810D01*
X139477Y72819D01*
X139449Y72847D01*
X139422Y72884D01*
X139385Y72930D01*
X139348Y72986D01*
X139302Y73060D01*
X139246Y73134D01*
X139200Y73226D01*
X139154Y73328D01*
X139098Y73439D01*
X139052Y73559D01*
X139015Y73698D01*
X138969Y73837D01*
X138941Y73994D01*
X138913Y74160D01*
X138904Y74142D01*
X138885Y74105D01*
X138848Y74049D01*
X138812Y73975D01*
X138710Y73809D01*
X138645Y73726D01*
X138590Y73652D01*
X138571Y73633D01*
X138525Y73587D01*
X138451Y73513D01*
X138358Y73421D01*
X138229Y73319D01*
X138090Y73199D01*
X137924Y73078D01*
X137739Y72949D01*
X136001Y71849D01*
Y72903D01*
X137332Y73744D01*
X137341D01*
X137360Y73763D01*
X137388Y73781D01*
X137425Y73809D01*
X137526Y73874D01*
X137656Y73957D01*
X137795Y74058D01*
X137942Y74160D01*
X138081Y74262D01*
X138210Y74354D01*
X138220Y74364D01*
X138257Y74391D01*
X138312Y74437D01*
X138377Y74502D01*
X138516Y74641D01*
X138580Y74715D01*
X138636Y74789D01*
X138645Y74798D01*
X138654Y74817D01*
X138673Y74854D01*
X138701Y74909D01*
X138728Y74964D01*
X138756Y75029D01*
X138802Y75177D01*
Y75186D01*
X138812Y75205D01*
Y75242D01*
X138821Y75288D01*
X138830Y75353D01*
Y75427D01*
X138839Y75528D01*
Y76620D01*
X136001D01*
Y77470D01*
X142399D01*
Y74502D01*
D02*
G37*
G36*
X140818Y70739D02*
X140836Y70721D01*
X140845Y70684D01*
X140873Y70638D01*
X140901Y70582D01*
X140938Y70517D01*
X141030Y70360D01*
X141132Y70175D01*
X141262Y69990D01*
X141410Y69796D01*
X141567Y69602D01*
X141576Y69593D01*
X141585Y69584D01*
X141613Y69556D01*
X141641Y69519D01*
X141733Y69436D01*
X141844Y69325D01*
X141973Y69214D01*
X142121Y69094D01*
X142269Y68992D01*
X142427Y68899D01*
Y68391D01*
X136001D01*
Y69177D01*
X141003D01*
X140993Y69186D01*
X140956Y69232D01*
X140901Y69288D01*
X140836Y69380D01*
X140753Y69482D01*
X140661Y69611D01*
X140559Y69759D01*
X140457Y69926D01*
Y69935D01*
X140448Y69944D01*
X140411Y70000D01*
X140365Y70092D01*
X140309Y70203D01*
X140245Y70332D01*
X140180Y70471D01*
X140115Y70610D01*
X140060Y70749D01*
X140818D01*
Y70739D01*
D02*
G37*
G36*
X137795Y65580D02*
X137785D01*
X137767Y65571D01*
X137730Y65562D01*
X137683Y65553D01*
X137628Y65543D01*
X137563Y65525D01*
X137425Y65479D01*
X137258Y65414D01*
X137101Y65331D01*
X136953Y65238D01*
X136824Y65127D01*
X136814Y65109D01*
X136777Y65072D01*
X136731Y64998D01*
X136685Y64905D01*
X136629Y64794D01*
X136583Y64656D01*
X136546Y64499D01*
X136537Y64332D01*
Y64277D01*
X136546Y64240D01*
X136556Y64138D01*
X136583Y64008D01*
X136629Y63861D01*
X136694Y63703D01*
X136787Y63546D01*
X136916Y63398D01*
X136935Y63380D01*
X136990Y63334D01*
X137073Y63278D01*
X137184Y63204D01*
X137323Y63130D01*
X137480Y63075D01*
X137665Y63028D01*
X137868Y63010D01*
X137878D01*
X137896D01*
X137924D01*
X137961Y63019D01*
X138063Y63028D01*
X138183Y63056D01*
X138331Y63093D01*
X138479Y63158D01*
X138627Y63250D01*
X138765Y63370D01*
X138784Y63389D01*
X138821Y63435D01*
X138876Y63509D01*
X138941Y63611D01*
X139006Y63740D01*
X139061Y63898D01*
X139098Y64073D01*
X139117Y64267D01*
Y64351D01*
X139107Y64415D01*
X139098Y64499D01*
X139080Y64591D01*
X139061Y64702D01*
X139033Y64822D01*
X139727Y64730D01*
Y64683D01*
X139718Y64646D01*
Y64526D01*
X139736Y64425D01*
X139754Y64304D01*
X139782Y64166D01*
X139829Y64008D01*
X139893Y63861D01*
X139976Y63703D01*
Y63694D01*
X139986Y63685D01*
X140023Y63639D01*
X140087Y63574D01*
X140171Y63500D01*
X140291Y63426D01*
X140429Y63361D01*
X140587Y63315D01*
X140679Y63297D01*
X140781D01*
X140790D01*
X140799D01*
X140855D01*
X140929Y63315D01*
X141030Y63334D01*
X141141Y63370D01*
X141262Y63417D01*
X141382Y63491D01*
X141493Y63592D01*
X141502Y63602D01*
X141539Y63648D01*
X141585Y63713D01*
X141641Y63796D01*
X141687Y63907D01*
X141733Y64036D01*
X141770Y64184D01*
X141779Y64351D01*
Y64425D01*
X141761Y64508D01*
X141742Y64619D01*
X141705Y64739D01*
X141659Y64859D01*
X141585Y64988D01*
X141493Y65109D01*
X141483Y65118D01*
X141437Y65155D01*
X141372Y65210D01*
X141280Y65275D01*
X141160Y65340D01*
X141012Y65405D01*
X140836Y65460D01*
X140633Y65497D01*
X140772Y66283D01*
X140781D01*
X140808Y66274D01*
X140845Y66264D01*
X140901Y66255D01*
X140966Y66237D01*
X141040Y66209D01*
X141215Y66153D01*
X141419Y66061D01*
X141622Y65950D01*
X141816Y65811D01*
X141992Y65636D01*
X142001Y65627D01*
X142010Y65608D01*
X142029Y65580D01*
X142057Y65543D01*
X142094Y65497D01*
X142131Y65432D01*
X142168Y65368D01*
X142214Y65284D01*
X142288Y65100D01*
X142362Y64887D01*
X142408Y64637D01*
X142427Y64508D01*
Y64277D01*
X142417Y64175D01*
X142399Y64055D01*
X142371Y63907D01*
X142325Y63740D01*
X142269Y63574D01*
X142195Y63408D01*
Y63398D01*
X142186Y63389D01*
X142158Y63334D01*
X142103Y63250D01*
X142038Y63158D01*
X141946Y63047D01*
X141844Y62936D01*
X141724Y62825D01*
X141585Y62733D01*
X141567Y62723D01*
X141520Y62696D01*
X141437Y62659D01*
X141335Y62612D01*
X141215Y62566D01*
X141077Y62529D01*
X140920Y62501D01*
X140762Y62492D01*
X140744D01*
X140688D01*
X140614Y62501D01*
X140513Y62520D01*
X140393Y62548D01*
X140263Y62594D01*
X140134Y62649D01*
X140004Y62723D01*
X139986Y62733D01*
X139949Y62760D01*
X139884Y62816D01*
X139810Y62890D01*
X139727Y62982D01*
X139634Y63093D01*
X139551Y63223D01*
X139468Y63380D01*
Y63370D01*
X139459Y63352D01*
X139449Y63324D01*
X139440Y63287D01*
X139403Y63186D01*
X139348Y63056D01*
X139274Y62908D01*
X139181Y62760D01*
X139061Y62622D01*
X138922Y62492D01*
X138904Y62483D01*
X138848Y62446D01*
X138756Y62390D01*
X138636Y62335D01*
X138488Y62280D01*
X138312Y62224D01*
X138109Y62187D01*
X137887Y62178D01*
X137878D01*
X137850D01*
X137804D01*
X137748Y62187D01*
X137674Y62196D01*
X137591Y62215D01*
X137499Y62233D01*
X137397Y62252D01*
X137175Y62326D01*
X137055Y62381D01*
X136944Y62437D01*
X136824Y62511D01*
X136704Y62594D01*
X136583Y62686D01*
X136472Y62797D01*
X136463Y62807D01*
X136445Y62825D01*
X136417Y62862D01*
X136380Y62908D01*
X136334Y62964D01*
X136287Y63038D01*
X136232Y63121D01*
X136186Y63223D01*
X136130Y63324D01*
X136075Y63444D01*
X136029Y63565D01*
X135982Y63703D01*
X135945Y63851D01*
X135918Y64008D01*
X135899Y64166D01*
X135890Y64341D01*
Y64425D01*
X135899Y64480D01*
X135908Y64554D01*
X135918Y64637D01*
X135936Y64730D01*
X135955Y64831D01*
X136010Y65053D01*
X136103Y65284D01*
X136158Y65405D01*
X136223Y65515D01*
X136306Y65627D01*
X136389Y65737D01*
X136398Y65747D01*
X136417Y65765D01*
X136445Y65793D01*
X136482Y65821D01*
X136528Y65867D01*
X136593Y65913D01*
X136657Y65968D01*
X136741Y66024D01*
X136833Y66080D01*
X136925Y66135D01*
X137147Y66237D01*
X137406Y66320D01*
X137545Y66348D01*
X137693Y66366D01*
X137795Y65580D01*
D02*
G37*
G36*
X430149Y116792D02*
X427181D01*
X427107Y116801D01*
X427024D01*
X426829Y116811D01*
X426626Y116838D01*
X426404Y116866D01*
X426201Y116912D01*
X426099Y116940D01*
X426016Y116968D01*
X426007D01*
X425997Y116977D01*
X425942Y117005D01*
X425859Y117042D01*
X425757Y117107D01*
X425646Y117190D01*
X425526Y117301D01*
X425415Y117430D01*
X425304Y117578D01*
Y117587D01*
X425295Y117597D01*
X425258Y117652D01*
X425221Y117744D01*
X425165Y117865D01*
X425119Y118003D01*
X425073Y118170D01*
X425045Y118345D01*
X425036Y118539D01*
Y118549D01*
Y118567D01*
Y118604D01*
X425045Y118651D01*
Y118715D01*
X425054Y118780D01*
X425091Y118937D01*
X425147Y119122D01*
X425221Y119316D01*
X425332Y119510D01*
X425406Y119603D01*
X425480Y119695D01*
X425489Y119705D01*
X425498Y119714D01*
X425526Y119741D01*
X425563Y119769D01*
X425609Y119806D01*
X425664Y119843D01*
X425738Y119889D01*
X425812Y119945D01*
X425905Y119991D01*
X426007Y120037D01*
X426118Y120093D01*
X426238Y120139D01*
X426376Y120176D01*
X426515Y120222D01*
X426672Y120250D01*
X426839Y120278D01*
X426820Y120287D01*
X426783Y120305D01*
X426728Y120342D01*
X426654Y120379D01*
X426487Y120481D01*
X426404Y120546D01*
X426330Y120601D01*
X426312Y120620D01*
X426265Y120666D01*
X426191Y120740D01*
X426099Y120832D01*
X425997Y120962D01*
X425877Y121101D01*
X425757Y121267D01*
X425627Y121452D01*
X424527Y123190D01*
X425581D01*
X426423Y121859D01*
Y121849D01*
X426441Y121831D01*
X426460Y121803D01*
X426487Y121766D01*
X426552Y121665D01*
X426635Y121535D01*
X426737Y121396D01*
X426839Y121249D01*
X426940Y121110D01*
X427033Y120980D01*
X427042Y120971D01*
X427070Y120934D01*
X427116Y120879D01*
X427181Y120814D01*
X427319Y120675D01*
X427393Y120611D01*
X427467Y120555D01*
X427477Y120546D01*
X427495Y120537D01*
X427532Y120518D01*
X427588Y120490D01*
X427643Y120463D01*
X427708Y120435D01*
X427856Y120389D01*
X427865D01*
X427883Y120379D01*
X427920D01*
X427967Y120370D01*
X428031Y120361D01*
X428105D01*
X428207Y120352D01*
X429298D01*
Y123190D01*
X430149D01*
Y116792D01*
D02*
G37*
G36*
X421855Y118188D02*
X421865Y118197D01*
X421911Y118234D01*
X421966Y118290D01*
X422059Y118355D01*
X422160Y118438D01*
X422290Y118530D01*
X422438Y118632D01*
X422604Y118734D01*
X422613D01*
X422623Y118743D01*
X422678Y118780D01*
X422771Y118826D01*
X422882Y118882D01*
X423011Y118946D01*
X423150Y119011D01*
X423288Y119076D01*
X423427Y119131D01*
Y118373D01*
X423418D01*
X423399Y118355D01*
X423362Y118345D01*
X423316Y118318D01*
X423261Y118290D01*
X423196Y118253D01*
X423039Y118160D01*
X422854Y118059D01*
X422669Y117929D01*
X422475Y117781D01*
X422281Y117624D01*
X422271Y117615D01*
X422262Y117606D01*
X422234Y117578D01*
X422197Y117550D01*
X422114Y117458D01*
X422003Y117347D01*
X421892Y117217D01*
X421772Y117070D01*
X421670Y116922D01*
X421578Y116764D01*
X421069D01*
Y123190D01*
X421855D01*
Y118188D01*
D02*
G37*
G36*
X416881D02*
X416890Y118197D01*
X416937Y118234D01*
X416992Y118290D01*
X417085Y118355D01*
X417186Y118438D01*
X417316Y118530D01*
X417464Y118632D01*
X417630Y118734D01*
X417639D01*
X417649Y118743D01*
X417704Y118780D01*
X417796Y118826D01*
X417907Y118882D01*
X418037Y118946D01*
X418176Y119011D01*
X418314Y119076D01*
X418453Y119131D01*
Y118373D01*
X418444D01*
X418425Y118355D01*
X418388Y118345D01*
X418342Y118318D01*
X418286Y118290D01*
X418222Y118253D01*
X418064Y118160D01*
X417880Y118059D01*
X417695Y117929D01*
X417501Y117781D01*
X417306Y117624D01*
X417297Y117615D01*
X417288Y117606D01*
X417260Y117578D01*
X417223Y117550D01*
X417140Y117458D01*
X417029Y117347D01*
X416918Y117217D01*
X416798Y117070D01*
X416696Y116922D01*
X416604Y116764D01*
X416095D01*
Y123190D01*
X416881D01*
Y118188D01*
D02*
G37*
G36*
X647411Y128261D02*
X647494D01*
X647596Y128252D01*
X647707Y128233D01*
X647836Y128215D01*
X648104Y128168D01*
X648382Y128094D01*
X648659Y127993D01*
X648789Y127928D01*
X648918Y127854D01*
X648927Y127845D01*
X648946Y127836D01*
X648983Y127808D01*
X649020Y127771D01*
X649075Y127734D01*
X649140Y127678D01*
X649214Y127614D01*
X649288Y127540D01*
X649362Y127457D01*
X649445Y127373D01*
X649611Y127161D01*
X649769Y126911D01*
X649907Y126634D01*
Y126624D01*
X649926Y126597D01*
X649935Y126550D01*
X649963Y126495D01*
X649981Y126421D01*
X650009Y126328D01*
X650046Y126227D01*
X650074Y126116D01*
X650101Y125996D01*
X650138Y125857D01*
X650185Y125570D01*
X650222Y125247D01*
X650240Y124914D01*
Y124905D01*
Y124868D01*
Y124812D01*
X650231Y124747D01*
Y124655D01*
X650222Y124563D01*
X650212Y124442D01*
X650194Y124322D01*
X650148Y124054D01*
X650083Y123758D01*
X649990Y123462D01*
X649861Y123176D01*
X649852Y123167D01*
X649843Y123139D01*
X649824Y123102D01*
X649787Y123056D01*
X649750Y122991D01*
X649704Y122917D01*
X649584Y122751D01*
X649426Y122565D01*
X649242Y122381D01*
X649029Y122196D01*
X648779Y122038D01*
X648770Y122029D01*
X648742Y122020D01*
X648705Y122002D01*
X648659Y121974D01*
X648585Y121946D01*
X648511Y121918D01*
X648419Y121881D01*
X648317Y121844D01*
X648206Y121807D01*
X648086Y121770D01*
X647827Y121715D01*
X647531Y121669D01*
X647226Y121650D01*
X647134D01*
X647069Y121659D01*
X646986Y121669D01*
X646884Y121678D01*
X646782Y121687D01*
X646662Y121715D01*
X646412Y121770D01*
X646135Y121854D01*
X645996Y121909D01*
X645867Y121974D01*
X645738Y122057D01*
X645608Y122140D01*
X645599Y122149D01*
X645580Y122159D01*
X645543Y122186D01*
X645497Y122233D01*
X645451Y122279D01*
X645386Y122344D01*
X645321Y122418D01*
X645247Y122492D01*
X645173Y122584D01*
X645099Y122695D01*
X645016Y122806D01*
X644942Y122926D01*
X644878Y123065D01*
X644804Y123203D01*
X644748Y123351D01*
X644693Y123518D01*
X645525Y123712D01*
Y123703D01*
X645534Y123684D01*
X645553Y123647D01*
X645571Y123601D01*
X645590Y123546D01*
X645617Y123472D01*
X645691Y123324D01*
X645784Y123157D01*
X645895Y122991D01*
X646033Y122834D01*
X646181Y122695D01*
X646200Y122676D01*
X646255Y122640D01*
X646348Y122593D01*
X646468Y122529D01*
X646625Y122473D01*
X646801Y122418D01*
X647013Y122381D01*
X647244Y122371D01*
X647318D01*
X647365Y122381D01*
X647429D01*
X647503Y122390D01*
X647679Y122418D01*
X647873Y122455D01*
X648077Y122519D01*
X648289Y122612D01*
X648483Y122732D01*
X648493D01*
X648502Y122751D01*
X648567Y122797D01*
X648650Y122871D01*
X648752Y122982D01*
X648872Y123120D01*
X648983Y123278D01*
X649084Y123472D01*
X649177Y123684D01*
Y123694D01*
X649186Y123712D01*
X649195Y123740D01*
X649205Y123786D01*
X649223Y123841D01*
X649242Y123906D01*
X649269Y124063D01*
X649306Y124248D01*
X649343Y124452D01*
X649362Y124674D01*
X649371Y124914D01*
Y124923D01*
Y124951D01*
Y124997D01*
Y125053D01*
X649362Y125117D01*
Y125201D01*
X649352Y125293D01*
X649343Y125395D01*
X649315Y125617D01*
X649269Y125857D01*
X649214Y126097D01*
X649140Y126338D01*
Y126347D01*
X649131Y126365D01*
X649112Y126393D01*
X649094Y126439D01*
X649038Y126550D01*
X648955Y126680D01*
X648853Y126828D01*
X648724Y126985D01*
X648576Y127124D01*
X648400Y127253D01*
X648391D01*
X648372Y127262D01*
X648345Y127281D01*
X648308Y127299D01*
X648261Y127318D01*
X648206Y127346D01*
X648077Y127401D01*
X647910Y127457D01*
X647725Y127503D01*
X647522Y127540D01*
X647309Y127549D01*
X647244D01*
X647189Y127540D01*
X647124D01*
X647060Y127530D01*
X646893Y127493D01*
X646699Y127447D01*
X646505Y127373D01*
X646301Y127272D01*
X646200Y127216D01*
X646107Y127142D01*
X646098Y127133D01*
X646089Y127124D01*
X646061Y127096D01*
X646024Y127068D01*
X645987Y127022D01*
X645941Y126966D01*
X645885Y126911D01*
X645839Y126837D01*
X645784Y126754D01*
X645719Y126661D01*
X645664Y126569D01*
X645608Y126458D01*
X645562Y126338D01*
X645516Y126208D01*
X645469Y126070D01*
X645432Y125922D01*
X644582Y126134D01*
Y126144D01*
X644591Y126181D01*
X644610Y126236D01*
X644637Y126310D01*
X644665Y126393D01*
X644702Y126495D01*
X644748Y126606D01*
X644804Y126726D01*
X644933Y126985D01*
X645099Y127244D01*
X645201Y127373D01*
X645303Y127503D01*
X645414Y127614D01*
X645543Y127725D01*
X645553Y127734D01*
X645571Y127752D01*
X645617Y127771D01*
X645664Y127808D01*
X645738Y127854D01*
X645811Y127900D01*
X645913Y127947D01*
X646015Y127993D01*
X646135Y128048D01*
X646264Y128094D01*
X646403Y128141D01*
X646551Y128187D01*
X646708Y128224D01*
X646875Y128242D01*
X647050Y128261D01*
X647235Y128270D01*
X647337D01*
X647411Y128261D01*
D02*
G37*
G36*
X643972Y128150D02*
Y128113D01*
Y128057D01*
X643962Y127984D01*
X643953Y127900D01*
X643935Y127808D01*
X643916Y127715D01*
X643879Y127614D01*
Y127604D01*
X643870Y127595D01*
X643851Y127540D01*
X643814Y127457D01*
X643759Y127346D01*
X643685Y127216D01*
X643593Y127068D01*
X643491Y126920D01*
X643361Y126763D01*
Y126754D01*
X643343Y126745D01*
X643297Y126689D01*
X643213Y126606D01*
X643093Y126486D01*
X642954Y126347D01*
X642779Y126181D01*
X642566Y125996D01*
X642335Y125801D01*
X642326Y125792D01*
X642289Y125765D01*
X642233Y125718D01*
X642169Y125663D01*
X642085Y125589D01*
X641984Y125506D01*
X641882Y125413D01*
X641762Y125311D01*
X641531Y125090D01*
X641300Y124868D01*
X641189Y124757D01*
X641087Y124646D01*
X640994Y124544D01*
X640920Y124442D01*
Y124433D01*
X640902Y124424D01*
X640883Y124396D01*
X640865Y124359D01*
X640800Y124257D01*
X640726Y124137D01*
X640662Y123989D01*
X640597Y123832D01*
X640560Y123657D01*
X640541Y123490D01*
Y123481D01*
Y123472D01*
X640551Y123416D01*
X640560Y123324D01*
X640588Y123222D01*
X640625Y123092D01*
X640689Y122963D01*
X640773Y122834D01*
X640883Y122704D01*
X640902Y122686D01*
X640948Y122649D01*
X641013Y122603D01*
X641115Y122538D01*
X641244Y122482D01*
X641392Y122427D01*
X641568Y122390D01*
X641762Y122381D01*
X641817D01*
X641854Y122390D01*
X641965Y122399D01*
X642095Y122427D01*
X642233Y122464D01*
X642391Y122529D01*
X642539Y122612D01*
X642677Y122723D01*
X642696Y122741D01*
X642733Y122787D01*
X642788Y122861D01*
X642844Y122972D01*
X642908Y123102D01*
X642964Y123268D01*
X643001Y123453D01*
X643019Y123666D01*
X643824Y123583D01*
Y123573D01*
X643814Y123546D01*
Y123499D01*
X643805Y123435D01*
X643787Y123361D01*
X643768Y123278D01*
X643740Y123176D01*
X643713Y123074D01*
X643639Y122852D01*
X643528Y122630D01*
X643463Y122519D01*
X643380Y122408D01*
X643297Y122307D01*
X643204Y122214D01*
X643195Y122205D01*
X643176Y122196D01*
X643149Y122168D01*
X643102Y122140D01*
X643047Y122103D01*
X642982Y122066D01*
X642908Y122020D01*
X642816Y121974D01*
X642714Y121928D01*
X642603Y121881D01*
X642483Y121844D01*
X642354Y121807D01*
X642215Y121780D01*
X642067Y121752D01*
X641910Y121743D01*
X641743Y121733D01*
X641651D01*
X641586Y121743D01*
X641512Y121752D01*
X641420Y121761D01*
X641318Y121780D01*
X641216Y121798D01*
X640976Y121863D01*
X640736Y121955D01*
X640615Y122011D01*
X640495Y122076D01*
X640384Y122159D01*
X640283Y122251D01*
X640273Y122260D01*
X640255Y122270D01*
X640236Y122307D01*
X640199Y122344D01*
X640153Y122390D01*
X640107Y122455D01*
X640061Y122519D01*
X640005Y122603D01*
X639913Y122778D01*
X639820Y123000D01*
X639783Y123111D01*
X639765Y123240D01*
X639746Y123370D01*
X639737Y123509D01*
Y123527D01*
Y123573D01*
X639746Y123647D01*
X639756Y123749D01*
X639774Y123860D01*
X639811Y123989D01*
X639848Y124128D01*
X639903Y124267D01*
X639913Y124285D01*
X639931Y124332D01*
X639968Y124405D01*
X640024Y124507D01*
X640098Y124618D01*
X640190Y124757D01*
X640301Y124895D01*
X640431Y125053D01*
X640449Y125071D01*
X640495Y125127D01*
X640541Y125173D01*
X640588Y125219D01*
X640643Y125274D01*
X640717Y125349D01*
X640791Y125422D01*
X640883Y125506D01*
X640976Y125598D01*
X641087Y125700D01*
X641207Y125801D01*
X641337Y125922D01*
X641485Y126042D01*
X641632Y126171D01*
X641642Y126181D01*
X641660Y126199D01*
X641697Y126227D01*
X641743Y126264D01*
X641799Y126319D01*
X641864Y126375D01*
X642011Y126495D01*
X642169Y126634D01*
X642317Y126772D01*
X642446Y126892D01*
X642502Y126939D01*
X642548Y126985D01*
X642557Y126994D01*
X642585Y127022D01*
X642622Y127059D01*
X642668Y127114D01*
X642714Y127179D01*
X642770Y127244D01*
X642881Y127401D01*
X639728D01*
Y128159D01*
X643972D01*
Y128150D01*
D02*
G37*
G36*
X311477Y153425D02*
X311616Y153416D01*
X311763Y153398D01*
X311921Y153361D01*
X312087Y153324D01*
X312244Y153268D01*
X312254D01*
X312263Y153259D01*
X312309Y153240D01*
X312383Y153203D01*
X312475Y153157D01*
X312577Y153092D01*
X312679Y153019D01*
X312771Y152935D01*
X312854Y152843D01*
X312864Y152834D01*
X312882Y152797D01*
X312919Y152732D01*
X312966Y152658D01*
X313012Y152547D01*
X313058Y152427D01*
X313095Y152288D01*
X313132Y152131D01*
X312365Y152029D01*
Y152048D01*
X312355Y152085D01*
X312337Y152149D01*
X312309Y152233D01*
X312263Y152316D01*
X312207Y152408D01*
X312143Y152501D01*
X312050Y152584D01*
X312041Y152593D01*
X312004Y152612D01*
X311948Y152649D01*
X311865Y152686D01*
X311773Y152723D01*
X311653Y152760D01*
X311505Y152778D01*
X311348Y152787D01*
X311255D01*
X311163Y152778D01*
X311042Y152769D01*
X310922Y152741D01*
X310793Y152713D01*
X310673Y152667D01*
X310571Y152603D01*
X310562Y152593D01*
X310534Y152575D01*
X310497Y152538D01*
X310460Y152482D01*
X310414Y152427D01*
X310377Y152353D01*
X310349Y152270D01*
X310340Y152186D01*
Y152177D01*
Y152159D01*
X310349Y152131D01*
Y152094D01*
X310377Y152001D01*
X310432Y151909D01*
X310441Y151900D01*
X310451Y151891D01*
X310469Y151863D01*
X310506Y151835D01*
X310543Y151807D01*
X310599Y151770D01*
X310663Y151743D01*
X310737Y151706D01*
X310746D01*
X310765Y151696D01*
X310802Y151687D01*
X310867Y151659D01*
X310959Y151632D01*
X311079Y151604D01*
X311153Y151576D01*
X311236Y151558D01*
X311329Y151530D01*
X311431Y151502D01*
X311440D01*
X311468Y151493D01*
X311514Y151484D01*
X311569Y151465D01*
X311634Y151447D01*
X311717Y151428D01*
X311893Y151373D01*
X312087Y151317D01*
X312281Y151253D01*
X312457Y151188D01*
X312531Y151160D01*
X312596Y151132D01*
X312614Y151123D01*
X312651Y151105D01*
X312707Y151077D01*
X312790Y151031D01*
X312873Y150975D01*
X312956Y150901D01*
X313039Y150818D01*
X313113Y150726D01*
X313123Y150716D01*
X313141Y150679D01*
X313178Y150624D01*
X313215Y150541D01*
X313243Y150439D01*
X313280Y150328D01*
X313298Y150199D01*
X313308Y150051D01*
Y150032D01*
Y149986D01*
X313298Y149912D01*
X313280Y149810D01*
X313252Y149699D01*
X313206Y149579D01*
X313150Y149440D01*
X313076Y149311D01*
X313067Y149292D01*
X313030Y149256D01*
X312984Y149191D01*
X312910Y149117D01*
X312808Y149034D01*
X312697Y148941D01*
X312568Y148858D01*
X312411Y148775D01*
X312402D01*
X312392Y148765D01*
X312337Y148747D01*
X312244Y148719D01*
X312124Y148682D01*
X311976Y148645D01*
X311810Y148618D01*
X311634Y148599D01*
X311431Y148590D01*
X311348D01*
X311283Y148599D01*
X311209D01*
X311116Y148608D01*
X311024Y148618D01*
X310922Y148636D01*
X310700Y148682D01*
X310469Y148747D01*
X310247Y148840D01*
X310146Y148895D01*
X310053Y148960D01*
X310044Y148969D01*
X310035Y148978D01*
X309979Y149034D01*
X309896Y149117D01*
X309804Y149246D01*
X309702Y149403D01*
X309600Y149588D01*
X309517Y149819D01*
X309452Y150078D01*
X310229Y150199D01*
Y150189D01*
Y150180D01*
X310247Y150125D01*
X310266Y150032D01*
X310303Y149930D01*
X310349Y149819D01*
X310404Y149699D01*
X310488Y149579D01*
X310589Y149478D01*
X310608Y149468D01*
X310645Y149440D01*
X310719Y149403D01*
X310811Y149357D01*
X310931Y149311D01*
X311070Y149274D01*
X311236Y149246D01*
X311431Y149237D01*
X311523D01*
X311616Y149246D01*
X311736Y149265D01*
X311865Y149292D01*
X312004Y149330D01*
X312124Y149376D01*
X312235Y149450D01*
X312244Y149459D01*
X312281Y149487D01*
X312318Y149533D01*
X312374Y149598D01*
X312420Y149672D01*
X312466Y149764D01*
X312494Y149857D01*
X312503Y149967D01*
Y149977D01*
Y150014D01*
X312494Y150060D01*
X312475Y150125D01*
X312448Y150189D01*
X312402Y150254D01*
X312346Y150328D01*
X312263Y150384D01*
X312254Y150393D01*
X312226Y150402D01*
X312180Y150430D01*
X312106Y150457D01*
X311995Y150494D01*
X311930Y150522D01*
X311856Y150541D01*
X311773Y150568D01*
X311680Y150596D01*
X311579Y150624D01*
X311458Y150652D01*
X311449D01*
X311421Y150661D01*
X311375Y150670D01*
X311320Y150689D01*
X311246Y150707D01*
X311163Y150735D01*
X310987Y150781D01*
X310784Y150846D01*
X310589Y150901D01*
X310404Y150966D01*
X310321Y151003D01*
X310257Y151031D01*
X310238Y151040D01*
X310201Y151058D01*
X310146Y151095D01*
X310072Y151142D01*
X309988Y151206D01*
X309905Y151280D01*
X309822Y151364D01*
X309748Y151465D01*
X309739Y151475D01*
X309720Y151511D01*
X309692Y151576D01*
X309665Y151650D01*
X309637Y151743D01*
X309609Y151854D01*
X309591Y151965D01*
X309582Y152094D01*
Y152112D01*
Y152149D01*
X309591Y152205D01*
X309600Y152288D01*
X309619Y152371D01*
X309637Y152473D01*
X309674Y152565D01*
X309720Y152667D01*
X309729Y152676D01*
X309748Y152713D01*
X309776Y152760D01*
X309822Y152824D01*
X309877Y152889D01*
X309942Y152972D01*
X310016Y153046D01*
X310109Y153111D01*
X310118Y153120D01*
X310146Y153130D01*
X310182Y153157D01*
X310238Y153185D01*
X310312Y153222D01*
X310395Y153259D01*
X310497Y153296D01*
X310608Y153333D01*
X310626Y153342D01*
X310663Y153351D01*
X310728Y153370D01*
X310811Y153388D01*
X310913Y153407D01*
X311024Y153416D01*
X311153Y153435D01*
X311375D01*
X311477Y153425D01*
D02*
G37*
G36*
X324439Y148692D02*
X323653D01*
Y153693D01*
X323644Y153684D01*
X323598Y153647D01*
X323542Y153592D01*
X323450Y153527D01*
X323348Y153444D01*
X323219Y153351D01*
X323071Y153250D01*
X322905Y153148D01*
X322895D01*
X322886Y153139D01*
X322831Y153102D01*
X322738Y153055D01*
X322627Y153000D01*
X322498Y152935D01*
X322359Y152871D01*
X322220Y152806D01*
X322082Y152750D01*
Y153509D01*
X322091D01*
X322109Y153527D01*
X322146Y153536D01*
X322193Y153564D01*
X322248Y153592D01*
X322313Y153629D01*
X322470Y153721D01*
X322655Y153823D01*
X322840Y153952D01*
X323034Y154100D01*
X323228Y154257D01*
X323237Y154267D01*
X323247Y154276D01*
X323274Y154304D01*
X323311Y154331D01*
X323395Y154424D01*
X323505Y154535D01*
X323616Y154664D01*
X323737Y154812D01*
X323838Y154960D01*
X323931Y155117D01*
X324439D01*
Y148692D01*
D02*
G37*
G36*
X301492Y155080D02*
X301575D01*
X301769Y155071D01*
X301972Y155043D01*
X302194Y155016D01*
X302398Y154969D01*
X302499Y154942D01*
X302583Y154914D01*
X302592D01*
X302601Y154905D01*
X302657Y154877D01*
X302740Y154840D01*
X302841Y154775D01*
X302952Y154692D01*
X303073Y154581D01*
X303184Y154452D01*
X303295Y154304D01*
Y154294D01*
X303304Y154285D01*
X303341Y154230D01*
X303378Y154137D01*
X303433Y154017D01*
X303479Y153878D01*
X303526Y153712D01*
X303553Y153536D01*
X303563Y153342D01*
Y153333D01*
Y153314D01*
Y153277D01*
X303553Y153231D01*
Y153166D01*
X303544Y153102D01*
X303507Y152945D01*
X303452Y152760D01*
X303378Y152565D01*
X303267Y152371D01*
X303193Y152279D01*
X303119Y152186D01*
X303110Y152177D01*
X303100Y152168D01*
X303073Y152140D01*
X303036Y152112D01*
X302990Y152076D01*
X302934Y152038D01*
X302860Y151992D01*
X302786Y151937D01*
X302694Y151891D01*
X302592Y151844D01*
X302481Y151789D01*
X302361Y151743D01*
X302222Y151706D01*
X302083Y151659D01*
X301926Y151632D01*
X301760Y151604D01*
X301778Y151595D01*
X301815Y151576D01*
X301871Y151539D01*
X301945Y151502D01*
X302111Y151400D01*
X302194Y151336D01*
X302268Y151280D01*
X302287Y151262D01*
X302333Y151216D01*
X302407Y151142D01*
X302499Y151049D01*
X302601Y150920D01*
X302721Y150781D01*
X302841Y150615D01*
X302971Y150430D01*
X304071Y148692D01*
X303017D01*
X302176Y150023D01*
Y150032D01*
X302157Y150051D01*
X302139Y150078D01*
X302111Y150115D01*
X302046Y150217D01*
X301963Y150346D01*
X301861Y150485D01*
X301760Y150633D01*
X301658Y150772D01*
X301566Y150901D01*
X301556Y150911D01*
X301529Y150948D01*
X301482Y151003D01*
X301418Y151068D01*
X301279Y151206D01*
X301205Y151271D01*
X301131Y151327D01*
X301122Y151336D01*
X301103Y151345D01*
X301066Y151364D01*
X301011Y151391D01*
X300955Y151419D01*
X300891Y151447D01*
X300743Y151493D01*
X300734D01*
X300715Y151502D01*
X300678D01*
X300632Y151511D01*
X300567Y151521D01*
X300493D01*
X300391Y151530D01*
X299300D01*
Y148692D01*
X298450D01*
Y155090D01*
X301418D01*
X301492Y155080D01*
D02*
G37*
G36*
X320131Y153333D02*
X320926D01*
Y152723D01*
X320131D01*
Y149995D01*
Y149977D01*
Y149940D01*
Y149884D01*
X320140Y149819D01*
X320149Y149672D01*
X320159Y149607D01*
X320168Y149561D01*
X320177Y149542D01*
X320205Y149505D01*
X320242Y149459D01*
X320307Y149413D01*
X320325Y149403D01*
X320371Y149385D01*
X320454Y149367D01*
X320575Y149357D01*
X320667D01*
X320713Y149367D01*
X320778D01*
X320852Y149376D01*
X320926Y149385D01*
X321028Y148692D01*
X321009D01*
X320972Y148682D01*
X320907Y148673D01*
X320824Y148664D01*
X320732Y148645D01*
X320630Y148636D01*
X320427Y148627D01*
X320353D01*
X320279Y148636D01*
X320186Y148645D01*
X320075Y148655D01*
X319964Y148682D01*
X319863Y148710D01*
X319761Y148756D01*
X319752Y148765D01*
X319724Y148784D01*
X319687Y148812D01*
X319632Y148858D01*
X319585Y148904D01*
X319530Y148969D01*
X319474Y149034D01*
X319437Y149117D01*
Y149126D01*
X319419Y149163D01*
X319410Y149228D01*
X319391Y149320D01*
X319373Y149440D01*
X319363Y149514D01*
Y149598D01*
X319354Y149699D01*
X319345Y149801D01*
Y149912D01*
Y150041D01*
Y152723D01*
X318762D01*
Y153333D01*
X319345D01*
Y154479D01*
X320131Y154951D01*
Y153333D01*
D02*
G37*
G36*
X316294Y153425D02*
X316368Y153416D01*
X316460Y153398D01*
X316562Y153379D01*
X316682Y153351D01*
X316793Y153324D01*
X316923Y153277D01*
X317043Y153231D01*
X317172Y153166D01*
X317302Y153092D01*
X317431Y153009D01*
X317551Y152908D01*
X317662Y152797D01*
X317672Y152787D01*
X317690Y152769D01*
X317718Y152732D01*
X317755Y152676D01*
X317801Y152612D01*
X317847Y152538D01*
X317903Y152445D01*
X317958Y152334D01*
X318014Y152214D01*
X318069Y152085D01*
X318115Y151937D01*
X318162Y151780D01*
X318199Y151604D01*
X318226Y151419D01*
X318245Y151225D01*
X318254Y151012D01*
Y151003D01*
Y150966D01*
Y150901D01*
X318245Y150809D01*
X314778D01*
Y150800D01*
Y150772D01*
X314787Y150735D01*
Y150679D01*
X314796Y150615D01*
X314815Y150541D01*
X314842Y150374D01*
X314898Y150189D01*
X314972Y149986D01*
X315074Y149801D01*
X315203Y149635D01*
X315212D01*
X315221Y149616D01*
X315277Y149570D01*
X315360Y149505D01*
X315471Y149440D01*
X315619Y149367D01*
X315785Y149302D01*
X315970Y149256D01*
X316072Y149246D01*
X316183Y149237D01*
X316257D01*
X316340Y149246D01*
X316442Y149265D01*
X316553Y149292D01*
X316682Y149330D01*
X316802Y149385D01*
X316923Y149459D01*
X316932Y149468D01*
X316978Y149505D01*
X317034Y149561D01*
X317098Y149635D01*
X317172Y149736D01*
X317255Y149866D01*
X317339Y150014D01*
X317413Y150189D01*
X318226Y150088D01*
Y150078D01*
X318217Y150060D01*
X318208Y150023D01*
X318189Y149967D01*
X318162Y149912D01*
X318134Y149838D01*
X318060Y149681D01*
X317967Y149505D01*
X317838Y149320D01*
X317690Y149145D01*
X317505Y148978D01*
X317496D01*
X317477Y148960D01*
X317450Y148941D01*
X317413Y148913D01*
X317357Y148886D01*
X317302Y148858D01*
X317228Y148821D01*
X317145Y148784D01*
X317052Y148747D01*
X316960Y148710D01*
X316728Y148655D01*
X316469Y148608D01*
X316183Y148590D01*
X316081D01*
X316017Y148599D01*
X315933Y148608D01*
X315832Y148627D01*
X315721Y148645D01*
X315600Y148664D01*
X315342Y148738D01*
X315203Y148793D01*
X315074Y148849D01*
X314935Y148923D01*
X314805Y149006D01*
X314685Y149098D01*
X314565Y149209D01*
X314556Y149219D01*
X314537Y149237D01*
X314510Y149274D01*
X314473Y149330D01*
X314426Y149394D01*
X314380Y149468D01*
X314325Y149561D01*
X314269Y149662D01*
X314214Y149783D01*
X314158Y149912D01*
X314112Y150060D01*
X314066Y150217D01*
X314029Y150384D01*
X314001Y150568D01*
X313983Y150763D01*
X313973Y150966D01*
Y150975D01*
Y151021D01*
Y151077D01*
X313983Y151160D01*
X313992Y151262D01*
X314001Y151373D01*
X314020Y151502D01*
X314047Y151632D01*
X314121Y151927D01*
X314167Y152076D01*
X314223Y152233D01*
X314297Y152381D01*
X314380Y152519D01*
X314473Y152658D01*
X314574Y152787D01*
X314583Y152797D01*
X314602Y152815D01*
X314639Y152843D01*
X314685Y152889D01*
X314741Y152935D01*
X314815Y152991D01*
X314898Y153055D01*
X315000Y153111D01*
X315101Y153176D01*
X315221Y153231D01*
X315351Y153287D01*
X315490Y153333D01*
X315637Y153379D01*
X315795Y153407D01*
X315961Y153425D01*
X316137Y153435D01*
X316229D01*
X316294Y153425D01*
D02*
G37*
G36*
X306845D02*
X306919Y153416D01*
X307011Y153398D01*
X307113Y153379D01*
X307233Y153351D01*
X307344Y153324D01*
X307474Y153277D01*
X307594Y153231D01*
X307723Y153166D01*
X307853Y153092D01*
X307982Y153009D01*
X308102Y152908D01*
X308213Y152797D01*
X308223Y152787D01*
X308241Y152769D01*
X308269Y152732D01*
X308306Y152676D01*
X308352Y152612D01*
X308398Y152538D01*
X308454Y152445D01*
X308509Y152334D01*
X308565Y152214D01*
X308620Y152085D01*
X308666Y151937D01*
X308713Y151780D01*
X308750Y151604D01*
X308777Y151419D01*
X308796Y151225D01*
X308805Y151012D01*
Y151003D01*
Y150966D01*
Y150901D01*
X308796Y150809D01*
X305329D01*
Y150800D01*
Y150772D01*
X305338Y150735D01*
Y150679D01*
X305347Y150615D01*
X305366Y150541D01*
X305393Y150374D01*
X305449Y150189D01*
X305523Y149986D01*
X305625Y149801D01*
X305754Y149635D01*
X305763D01*
X305772Y149616D01*
X305828Y149570D01*
X305911Y149505D01*
X306022Y149440D01*
X306170Y149367D01*
X306336Y149302D01*
X306521Y149256D01*
X306623Y149246D01*
X306734Y149237D01*
X306808D01*
X306891Y149246D01*
X306993Y149265D01*
X307104Y149292D01*
X307233Y149330D01*
X307353Y149385D01*
X307474Y149459D01*
X307483Y149468D01*
X307529Y149505D01*
X307584Y149561D01*
X307649Y149635D01*
X307723Y149736D01*
X307806Y149866D01*
X307890Y150014D01*
X307964Y150189D01*
X308777Y150088D01*
Y150078D01*
X308768Y150060D01*
X308759Y150023D01*
X308740Y149967D01*
X308713Y149912D01*
X308685Y149838D01*
X308611Y149681D01*
X308518Y149505D01*
X308389Y149320D01*
X308241Y149145D01*
X308056Y148978D01*
X308047D01*
X308028Y148960D01*
X308001Y148941D01*
X307964Y148913D01*
X307908Y148886D01*
X307853Y148858D01*
X307779Y148821D01*
X307696Y148784D01*
X307603Y148747D01*
X307511Y148710D01*
X307279Y148655D01*
X307020Y148608D01*
X306734Y148590D01*
X306632D01*
X306567Y148599D01*
X306484Y148608D01*
X306383Y148627D01*
X306272Y148645D01*
X306152Y148664D01*
X305893Y148738D01*
X305754Y148793D01*
X305625Y148849D01*
X305486Y148923D01*
X305356Y149006D01*
X305236Y149098D01*
X305116Y149209D01*
X305107Y149219D01*
X305088Y149237D01*
X305061Y149274D01*
X305023Y149330D01*
X304977Y149394D01*
X304931Y149468D01*
X304876Y149561D01*
X304820Y149662D01*
X304765Y149783D01*
X304709Y149912D01*
X304663Y150060D01*
X304617Y150217D01*
X304580Y150384D01*
X304552Y150568D01*
X304534Y150763D01*
X304524Y150966D01*
Y150975D01*
Y151021D01*
Y151077D01*
X304534Y151160D01*
X304543Y151262D01*
X304552Y151373D01*
X304571Y151502D01*
X304598Y151632D01*
X304672Y151927D01*
X304718Y152076D01*
X304774Y152233D01*
X304848Y152381D01*
X304931Y152519D01*
X305023Y152658D01*
X305125Y152787D01*
X305134Y152797D01*
X305153Y152815D01*
X305190Y152843D01*
X305236Y152889D01*
X305292Y152935D01*
X305366Y152991D01*
X305449Y153055D01*
X305550Y153111D01*
X305652Y153176D01*
X305772Y153231D01*
X305902Y153287D01*
X306040Y153333D01*
X306188Y153379D01*
X306346Y153407D01*
X306512Y153425D01*
X306688Y153435D01*
X306780D01*
X306845Y153425D01*
D02*
G37*
G36*
X517221Y342417D02*
X517285D01*
X517359Y342407D01*
X517535Y342370D01*
X517729Y342324D01*
X517933Y342250D01*
X518136Y342139D01*
X518238Y342075D01*
X518330Y342001D01*
X518339Y341991D01*
X518349Y341982D01*
X518376Y341954D01*
X518404Y341927D01*
X518450Y341880D01*
X518487Y341825D01*
X518589Y341696D01*
X518691Y341529D01*
X518783Y341326D01*
X518866Y341095D01*
X518922Y340836D01*
X518136Y340771D01*
Y340780D01*
X518127Y340789D01*
X518117Y340845D01*
X518090Y340928D01*
X518053Y341030D01*
X518016Y341141D01*
X517960Y341252D01*
X517896Y341353D01*
X517831Y341437D01*
X517812Y341455D01*
X517775Y341492D01*
X517711Y341548D01*
X517618Y341612D01*
X517498Y341668D01*
X517369Y341723D01*
X517211Y341760D01*
X517045Y341779D01*
X516980D01*
X516906Y341769D01*
X516823Y341751D01*
X516712Y341723D01*
X516601Y341686D01*
X516490Y341640D01*
X516379Y341566D01*
X516361Y341557D01*
X516315Y341520D01*
X516250Y341455D01*
X516167Y341363D01*
X516074Y341252D01*
X515973Y341122D01*
X515880Y340956D01*
X515788Y340771D01*
Y340762D01*
X515778Y340743D01*
X515769Y340715D01*
X515751Y340678D01*
X515741Y340623D01*
X515723Y340558D01*
X515704Y340484D01*
X515686Y340392D01*
X515658Y340290D01*
X515640Y340179D01*
X515621Y340059D01*
X515612Y339930D01*
X515593Y339782D01*
X515584Y339634D01*
X515575Y339467D01*
Y339301D01*
X515584Y339310D01*
X515621Y339366D01*
X515686Y339440D01*
X515769Y339532D01*
X515862Y339643D01*
X515982Y339745D01*
X516111Y339846D01*
X516259Y339939D01*
X516268D01*
X516278Y339948D01*
X516333Y339976D01*
X516416Y340004D01*
X516527Y340050D01*
X516657Y340087D01*
X516805Y340115D01*
X516962Y340142D01*
X517128Y340151D01*
X517202D01*
X517258Y340142D01*
X517332Y340133D01*
X517406Y340124D01*
X517498Y340105D01*
X517590Y340078D01*
X517803Y340013D01*
X517914Y339967D01*
X518025Y339902D01*
X518136Y339837D01*
X518256Y339763D01*
X518367Y339671D01*
X518469Y339569D01*
X518478Y339560D01*
X518497Y339541D01*
X518524Y339514D01*
X518552Y339467D01*
X518598Y339403D01*
X518644Y339338D01*
X518691Y339255D01*
X518746Y339162D01*
X518802Y339061D01*
X518848Y338950D01*
X518894Y338820D01*
X518940Y338691D01*
X518968Y338552D01*
X518996Y338395D01*
X519014Y338238D01*
X519024Y338071D01*
Y338062D01*
Y338043D01*
Y338016D01*
Y337970D01*
X519014Y337914D01*
Y337859D01*
X518987Y337711D01*
X518959Y337535D01*
X518913Y337350D01*
X518848Y337147D01*
X518755Y336953D01*
Y336943D01*
X518746Y336934D01*
X518728Y336906D01*
X518709Y336869D01*
X518654Y336777D01*
X518571Y336657D01*
X518469Y336527D01*
X518349Y336398D01*
X518201Y336268D01*
X518044Y336157D01*
X518034D01*
X518025Y336148D01*
X517997Y336130D01*
X517960Y336120D01*
X517868Y336074D01*
X517748Y336028D01*
X517590Y335972D01*
X517415Y335935D01*
X517221Y335899D01*
X517008Y335889D01*
X516962D01*
X516916Y335899D01*
X516842D01*
X516758Y335908D01*
X516666Y335926D01*
X516555Y335954D01*
X516444Y335982D01*
X516315Y336019D01*
X516185Y336065D01*
X516056Y336120D01*
X515917Y336194D01*
X515788Y336278D01*
X515658Y336370D01*
X515529Y336481D01*
X515409Y336610D01*
X515399Y336620D01*
X515381Y336647D01*
X515353Y336684D01*
X515316Y336749D01*
X515261Y336832D01*
X515214Y336925D01*
X515159Y337045D01*
X515103Y337174D01*
X515039Y337332D01*
X514983Y337507D01*
X514937Y337701D01*
X514891Y337914D01*
X514845Y338154D01*
X514817Y338413D01*
X514798Y338691D01*
X514789Y338987D01*
Y338996D01*
Y339005D01*
Y339033D01*
Y339070D01*
X514798Y339162D01*
Y339292D01*
X514808Y339440D01*
X514826Y339615D01*
X514845Y339809D01*
X514872Y340022D01*
X514909Y340235D01*
X514955Y340466D01*
X515011Y340688D01*
X515076Y340910D01*
X515159Y341122D01*
X515251Y341326D01*
X515353Y341520D01*
X515473Y341686D01*
X515482Y341696D01*
X515501Y341714D01*
X515538Y341751D01*
X515584Y341806D01*
X515640Y341862D01*
X515714Y341917D01*
X515806Y341991D01*
X515899Y342056D01*
X516009Y342121D01*
X516130Y342195D01*
X516268Y342250D01*
X516407Y342315D01*
X516564Y342361D01*
X516731Y342398D01*
X516906Y342417D01*
X517091Y342426D01*
X517165D01*
X517221Y342417D01*
D02*
G37*
G36*
X511747Y342389D02*
X511830D01*
X512025Y342380D01*
X512228Y342352D01*
X512450Y342324D01*
X512653Y342278D01*
X512755Y342250D01*
X512838Y342223D01*
X512848D01*
X512857Y342213D01*
X512912Y342186D01*
X512995Y342149D01*
X513097Y342084D01*
X513208Y342001D01*
X513328Y341890D01*
X513439Y341760D01*
X513550Y341612D01*
Y341603D01*
X513559Y341594D01*
X513596Y341538D01*
X513633Y341446D01*
X513689Y341326D01*
X513735Y341187D01*
X513781Y341021D01*
X513809Y340845D01*
X513818Y340651D01*
Y340642D01*
Y340623D01*
Y340586D01*
X513809Y340540D01*
Y340475D01*
X513800Y340410D01*
X513763Y340253D01*
X513707Y340068D01*
X513633Y339874D01*
X513522Y339680D01*
X513448Y339588D01*
X513374Y339495D01*
X513365Y339486D01*
X513356Y339477D01*
X513328Y339449D01*
X513291Y339421D01*
X513245Y339384D01*
X513190Y339347D01*
X513116Y339301D01*
X513042Y339245D01*
X512949Y339199D01*
X512848Y339153D01*
X512737Y339097D01*
X512616Y339051D01*
X512478Y339014D01*
X512339Y338968D01*
X512182Y338940D01*
X512015Y338913D01*
X512034Y338903D01*
X512071Y338885D01*
X512126Y338848D01*
X512200Y338811D01*
X512367Y338709D01*
X512450Y338644D01*
X512524Y338589D01*
X512542Y338570D01*
X512589Y338524D01*
X512663Y338450D01*
X512755Y338358D01*
X512857Y338228D01*
X512977Y338090D01*
X513097Y337923D01*
X513227Y337738D01*
X514327Y336000D01*
X513273D01*
X512431Y337332D01*
Y337341D01*
X512413Y337359D01*
X512394Y337387D01*
X512367Y337424D01*
X512302Y337526D01*
X512219Y337655D01*
X512117Y337794D01*
X512015Y337942D01*
X511914Y338080D01*
X511821Y338210D01*
X511812Y338219D01*
X511784Y338256D01*
X511738Y338312D01*
X511673Y338376D01*
X511535Y338515D01*
X511461Y338580D01*
X511387Y338635D01*
X511377Y338644D01*
X511359Y338654D01*
X511322Y338672D01*
X511267Y338700D01*
X511211Y338728D01*
X511146Y338755D01*
X510998Y338802D01*
X510989D01*
X510971Y338811D01*
X510934D01*
X510887Y338820D01*
X510823Y338829D01*
X510749D01*
X510647Y338839D01*
X509556D01*
Y336000D01*
X508705D01*
Y342398D01*
X511673D01*
X511747Y342389D01*
D02*
G37*
G36*
X595870Y128261D02*
X595934D01*
X596008Y128252D01*
X596184Y128215D01*
X596378Y128168D01*
X596582Y128094D01*
X596785Y127993D01*
X596887Y127928D01*
X596979Y127854D01*
X596988Y127845D01*
X596998Y127836D01*
X597025Y127808D01*
X597053Y127780D01*
X597090Y127734D01*
X597136Y127678D01*
X597229Y127549D01*
X597321Y127382D01*
X597414Y127179D01*
X597488Y126948D01*
X597543Y126680D01*
X596785Y126615D01*
Y126624D01*
X596776Y126643D01*
Y126661D01*
X596767Y126698D01*
X596739Y126800D01*
X596702Y126911D01*
X596656Y127040D01*
X596591Y127170D01*
X596517Y127290D01*
X596424Y127392D01*
X596415Y127401D01*
X596378Y127429D01*
X596314Y127466D01*
X596240Y127503D01*
X596138Y127549D01*
X596018Y127586D01*
X595879Y127614D01*
X595731Y127623D01*
X595666D01*
X595602Y127614D01*
X595518Y127604D01*
X595417Y127586D01*
X595315Y127558D01*
X595204Y127521D01*
X595102Y127466D01*
X595093Y127457D01*
X595056Y127438D01*
X595001Y127401D01*
X594945Y127346D01*
X594871Y127281D01*
X594797Y127207D01*
X594723Y127124D01*
X594649Y127022D01*
X594640Y127013D01*
X594622Y126966D01*
X594585Y126902D01*
X594548Y126819D01*
X594501Y126708D01*
X594455Y126578D01*
X594409Y126430D01*
X594363Y126264D01*
Y126255D01*
X594353Y126245D01*
Y126218D01*
X594344Y126181D01*
X594326Y126088D01*
X594298Y125968D01*
X594280Y125820D01*
X594261Y125663D01*
X594252Y125487D01*
X594243Y125302D01*
Y125293D01*
Y125265D01*
Y125219D01*
Y125145D01*
X594252Y125164D01*
X594289Y125210D01*
X594344Y125274D01*
X594409Y125367D01*
X594501Y125459D01*
X594612Y125561D01*
X594742Y125663D01*
X594890Y125755D01*
X594908Y125765D01*
X594964Y125792D01*
X595047Y125829D01*
X595149Y125866D01*
X595287Y125912D01*
X595435Y125949D01*
X595602Y125977D01*
X595777Y125986D01*
X595851D01*
X595907Y125977D01*
X595981Y125968D01*
X596055Y125959D01*
X596147Y125940D01*
X596240Y125912D01*
X596452Y125848D01*
X596563Y125801D01*
X596674Y125746D01*
X596794Y125681D01*
X596905Y125598D01*
X597016Y125515D01*
X597118Y125413D01*
X597127Y125404D01*
X597146Y125385D01*
X597164Y125358D01*
X597201Y125311D01*
X597247Y125247D01*
X597294Y125182D01*
X597340Y125099D01*
X597386Y125006D01*
X597441Y124905D01*
X597488Y124794D01*
X597534Y124664D01*
X597580Y124535D01*
X597617Y124387D01*
X597636Y124230D01*
X597654Y124073D01*
X597663Y123897D01*
Y123888D01*
Y123851D01*
Y123805D01*
X597654Y123740D01*
X597645Y123657D01*
X597636Y123555D01*
X597617Y123453D01*
X597589Y123333D01*
X597525Y123092D01*
X597478Y122963D01*
X597423Y122824D01*
X597358Y122695D01*
X597275Y122575D01*
X597192Y122445D01*
X597090Y122334D01*
X597081Y122325D01*
X597062Y122307D01*
X597035Y122279D01*
X596988Y122242D01*
X596933Y122196D01*
X596859Y122140D01*
X596785Y122094D01*
X596693Y122029D01*
X596600Y121974D01*
X596489Y121928D01*
X596240Y121826D01*
X596110Y121789D01*
X595962Y121761D01*
X595814Y121743D01*
X595657Y121733D01*
X595592D01*
X595546Y121743D01*
X595500D01*
X595435Y121752D01*
X595278Y121780D01*
X595102Y121817D01*
X594908Y121881D01*
X594714Y121965D01*
X594520Y122076D01*
X594511D01*
X594501Y122094D01*
X594474Y122113D01*
X594437Y122140D01*
X594344Y122214D01*
X594224Y122316D01*
X594104Y122455D01*
X593965Y122621D01*
X593845Y122815D01*
X593734Y123037D01*
Y123046D01*
X593725Y123065D01*
X593706Y123102D01*
X593688Y123148D01*
X593669Y123213D01*
X593642Y123296D01*
X593623Y123388D01*
X593595Y123490D01*
X593568Y123610D01*
X593540Y123749D01*
X593521Y123897D01*
X593503Y124054D01*
X593484Y124230D01*
X593466Y124415D01*
X593457Y124618D01*
Y124831D01*
Y124840D01*
Y124886D01*
Y124951D01*
Y125034D01*
X593466Y125136D01*
Y125256D01*
X593475Y125395D01*
X593494Y125533D01*
X593521Y125848D01*
X593568Y126181D01*
X593632Y126495D01*
X593679Y126652D01*
X593725Y126791D01*
Y126800D01*
X593734Y126819D01*
X593753Y126855D01*
X593771Y126911D01*
X593799Y126966D01*
X593836Y127040D01*
X593928Y127198D01*
X594039Y127373D01*
X594169Y127558D01*
X594335Y127734D01*
X594520Y127891D01*
X594529D01*
X594548Y127909D01*
X594575Y127928D01*
X594612Y127947D01*
X594668Y127974D01*
X594723Y128011D01*
X594797Y128048D01*
X594871Y128076D01*
X595047Y128150D01*
X595260Y128215D01*
X595491Y128252D01*
X595750Y128270D01*
X595824D01*
X595870Y128261D01*
D02*
G37*
G36*
X603784Y121761D02*
X600816D01*
X600742Y121770D01*
X600659D01*
X600465Y121780D01*
X600261Y121807D01*
X600039Y121835D01*
X599836Y121881D01*
X599734Y121909D01*
X599651Y121937D01*
X599642D01*
X599633Y121946D01*
X599577Y121974D01*
X599494Y122011D01*
X599392Y122076D01*
X599281Y122159D01*
X599161Y122270D01*
X599050Y122399D01*
X598939Y122547D01*
Y122556D01*
X598930Y122565D01*
X598893Y122621D01*
X598856Y122713D01*
X598801Y122834D01*
X598754Y122972D01*
X598708Y123139D01*
X598680Y123314D01*
X598671Y123509D01*
Y123518D01*
Y123536D01*
Y123573D01*
X598680Y123619D01*
Y123684D01*
X598690Y123749D01*
X598727Y123906D01*
X598782Y124091D01*
X598856Y124285D01*
X598967Y124479D01*
X599041Y124572D01*
X599115Y124664D01*
X599124Y124674D01*
X599133Y124683D01*
X599161Y124711D01*
X599198Y124738D01*
X599244Y124775D01*
X599300Y124812D01*
X599374Y124858D01*
X599448Y124914D01*
X599540Y124960D01*
X599642Y125006D01*
X599753Y125062D01*
X599873Y125108D01*
X600012Y125145D01*
X600150Y125191D01*
X600308Y125219D01*
X600474Y125247D01*
X600456Y125256D01*
X600419Y125274D01*
X600363Y125311D01*
X600289Y125349D01*
X600123Y125450D01*
X600039Y125515D01*
X599966Y125570D01*
X599947Y125589D01*
X599901Y125635D01*
X599827Y125709D01*
X599734Y125801D01*
X599633Y125931D01*
X599512Y126070D01*
X599392Y126236D01*
X599263Y126421D01*
X598163Y128159D01*
X599217D01*
X600058Y126828D01*
Y126819D01*
X600076Y126800D01*
X600095Y126772D01*
X600123Y126735D01*
X600187Y126634D01*
X600271Y126504D01*
X600372Y126365D01*
X600474Y126218D01*
X600576Y126079D01*
X600668Y125949D01*
X600677Y125940D01*
X600705Y125903D01*
X600751Y125848D01*
X600816Y125783D01*
X600955Y125644D01*
X601029Y125580D01*
X601103Y125524D01*
X601112Y125515D01*
X601130Y125506D01*
X601167Y125487D01*
X601223Y125459D01*
X601278Y125432D01*
X601343Y125404D01*
X601491Y125358D01*
X601500D01*
X601519Y125349D01*
X601556D01*
X601602Y125339D01*
X601667Y125330D01*
X601741D01*
X601842Y125321D01*
X602933D01*
Y128159D01*
X603784D01*
Y121761D01*
D02*
G37*
G36*
X574585Y335182D02*
X574659Y335173D01*
X574742Y335163D01*
X574844Y335154D01*
X574945Y335126D01*
X575177Y335071D01*
X575408Y334988D01*
X575528Y334932D01*
X575648Y334868D01*
X575759Y334794D01*
X575870Y334710D01*
X575879Y334701D01*
X575898Y334692D01*
X575916Y334655D01*
X575953Y334618D01*
X575999Y334572D01*
X576046Y334516D01*
X576101Y334442D01*
X576147Y334359D01*
X576203Y334276D01*
X576258Y334174D01*
X576360Y333952D01*
X576443Y333693D01*
X576471Y333555D01*
X576489Y333407D01*
X575667Y333342D01*
Y333351D01*
Y333370D01*
X575657Y333397D01*
X575648Y333444D01*
X575620Y333545D01*
X575583Y333684D01*
X575528Y333823D01*
X575454Y333980D01*
X575362Y334119D01*
X575251Y334248D01*
X575232Y334257D01*
X575195Y334294D01*
X575121Y334341D01*
X575019Y334396D01*
X574908Y334451D01*
X574770Y334498D01*
X574613Y334535D01*
X574437Y334544D01*
X574381D01*
X574344Y334535D01*
X574234Y334525D01*
X574104Y334488D01*
X573947Y334442D01*
X573790Y334368D01*
X573623Y334257D01*
X573549Y334193D01*
X573475Y334119D01*
X573466Y334109D01*
X573457Y334100D01*
X573438Y334072D01*
X573411Y334045D01*
X573346Y333943D01*
X573272Y333814D01*
X573207Y333656D01*
X573143Y333462D01*
X573096Y333231D01*
X573078Y333111D01*
Y332981D01*
Y332972D01*
Y332954D01*
Y332917D01*
X573087Y332870D01*
Y332815D01*
X573096Y332750D01*
X573124Y332602D01*
X573170Y332427D01*
X573235Y332251D01*
X573327Y332085D01*
X573457Y331927D01*
Y331918D01*
X573475Y331909D01*
X573522Y331863D01*
X573605Y331798D01*
X573716Y331724D01*
X573864Y331659D01*
X574030Y331595D01*
X574224Y331548D01*
X574335Y331530D01*
X574511D01*
X574585Y331539D01*
X574677Y331548D01*
X574788Y331576D01*
X574899Y331604D01*
X575019Y331650D01*
X575140Y331706D01*
X575149Y331715D01*
X575186Y331733D01*
X575241Y331780D01*
X575315Y331826D01*
X575389Y331890D01*
X575463Y331974D01*
X575546Y332057D01*
X575611Y332159D01*
X576351Y332057D01*
X575731Y328765D01*
X572551D01*
Y329514D01*
X575112D01*
X575454Y331243D01*
X575445Y331234D01*
X575426Y331225D01*
X575398Y331206D01*
X575352Y331179D01*
X575297Y331151D01*
X575232Y331114D01*
X575084Y331040D01*
X574899Y330966D01*
X574696Y330901D01*
X574474Y330855D01*
X574363Y330836D01*
X574160D01*
X574104Y330846D01*
X574030Y330855D01*
X573947Y330864D01*
X573854Y330883D01*
X573753Y330910D01*
X573531Y330975D01*
X573411Y331021D01*
X573290Y331086D01*
X573170Y331151D01*
X573050Y331225D01*
X572939Y331317D01*
X572828Y331419D01*
X572819Y331428D01*
X572800Y331447D01*
X572773Y331474D01*
X572736Y331521D01*
X572690Y331585D01*
X572643Y331650D01*
X572588Y331733D01*
X572532Y331826D01*
X572486Y331927D01*
X572431Y332038D01*
X572384Y332168D01*
X572338Y332297D01*
X572301Y332436D01*
X572273Y332593D01*
X572255Y332750D01*
X572246Y332917D01*
Y332926D01*
Y332954D01*
Y333000D01*
X572255Y333065D01*
X572264Y333139D01*
X572273Y333222D01*
X572292Y333324D01*
X572310Y333425D01*
X572366Y333666D01*
X572458Y333915D01*
X572514Y334045D01*
X572588Y334165D01*
X572662Y334294D01*
X572754Y334414D01*
X572763Y334424D01*
X572782Y334451D01*
X572819Y334488D01*
X572865Y334535D01*
X572930Y334590D01*
X573004Y334664D01*
X573096Y334729D01*
X573198Y334803D01*
X573309Y334877D01*
X573438Y334941D01*
X573577Y335006D01*
X573725Y335071D01*
X573882Y335117D01*
X574058Y335154D01*
X574243Y335182D01*
X574437Y335191D01*
X574520D01*
X574585Y335182D01*
D02*
G37*
G36*
X582610Y328682D02*
X579642D01*
X579568Y328691D01*
X579485D01*
X579291Y328701D01*
X579087Y328728D01*
X578866Y328756D01*
X578662Y328802D01*
X578560Y328830D01*
X578477Y328858D01*
X578468D01*
X578459Y328867D01*
X578403Y328895D01*
X578320Y328932D01*
X578218Y328997D01*
X578107Y329080D01*
X577987Y329191D01*
X577876Y329320D01*
X577765Y329468D01*
Y329477D01*
X577756Y329487D01*
X577719Y329542D01*
X577682Y329635D01*
X577627Y329755D01*
X577580Y329893D01*
X577534Y330060D01*
X577506Y330235D01*
X577497Y330430D01*
Y330439D01*
Y330457D01*
Y330494D01*
X577506Y330541D01*
Y330605D01*
X577516Y330670D01*
X577553Y330827D01*
X577608Y331012D01*
X577682Y331206D01*
X577793Y331400D01*
X577867Y331493D01*
X577941Y331585D01*
X577950Y331595D01*
X577960Y331604D01*
X577987Y331632D01*
X578024Y331659D01*
X578070Y331696D01*
X578126Y331733D01*
X578200Y331780D01*
X578274Y331835D01*
X578366Y331881D01*
X578468Y331927D01*
X578579Y331983D01*
X578699Y332029D01*
X578838Y332066D01*
X578977Y332112D01*
X579134Y332140D01*
X579300Y332168D01*
X579282Y332177D01*
X579245Y332196D01*
X579189Y332233D01*
X579115Y332270D01*
X578949Y332371D01*
X578866Y332436D01*
X578792Y332491D01*
X578773Y332510D01*
X578727Y332556D01*
X578653Y332630D01*
X578560Y332723D01*
X578459Y332852D01*
X578339Y332991D01*
X578218Y333157D01*
X578089Y333342D01*
X576989Y335080D01*
X578043D01*
X578884Y333749D01*
Y333740D01*
X578903Y333721D01*
X578921Y333693D01*
X578949Y333656D01*
X579013Y333555D01*
X579097Y333425D01*
X579198Y333287D01*
X579300Y333139D01*
X579402Y333000D01*
X579494Y332870D01*
X579504Y332861D01*
X579531Y332824D01*
X579577Y332769D01*
X579642Y332704D01*
X579781Y332565D01*
X579855Y332501D01*
X579929Y332445D01*
X579938Y332436D01*
X579957Y332427D01*
X579994Y332408D01*
X580049Y332380D01*
X580104Y332353D01*
X580169Y332325D01*
X580317Y332279D01*
X580326D01*
X580345Y332270D01*
X580382D01*
X580428Y332260D01*
X580493Y332251D01*
X580567D01*
X580668Y332242D01*
X581759D01*
Y335080D01*
X582610D01*
Y328682D01*
D02*
G37*
G36*
X661294Y330190D02*
X658326D01*
X658252Y330199D01*
X658169D01*
X657975Y330208D01*
X657772Y330236D01*
X657550Y330264D01*
X657346Y330310D01*
X657245Y330338D01*
X657161Y330365D01*
X657152D01*
X657143Y330375D01*
X657087Y330402D01*
X657004Y330439D01*
X656903Y330504D01*
X656792Y330587D01*
X656672Y330698D01*
X656561Y330828D01*
X656450Y330976D01*
Y330985D01*
X656440Y330994D01*
X656403Y331050D01*
X656366Y331142D01*
X656311Y331262D01*
X656265Y331401D01*
X656218Y331567D01*
X656191Y331743D01*
X656181Y331937D01*
Y331946D01*
Y331965D01*
Y332002D01*
X656191Y332048D01*
Y332113D01*
X656200Y332178D01*
X656237Y332335D01*
X656292Y332520D01*
X656366Y332714D01*
X656477Y332908D01*
X656551Y333000D01*
X656625Y333093D01*
X656635Y333102D01*
X656644Y333111D01*
X656672Y333139D01*
X656708Y333167D01*
X656755Y333204D01*
X656810Y333241D01*
X656884Y333287D01*
X656958Y333343D01*
X657050Y333389D01*
X657152Y333435D01*
X657263Y333490D01*
X657383Y333537D01*
X657522Y333574D01*
X657661Y333620D01*
X657818Y333648D01*
X657984Y333675D01*
X657966Y333685D01*
X657929Y333703D01*
X657873Y333740D01*
X657799Y333777D01*
X657633Y333879D01*
X657550Y333943D01*
X657476Y333999D01*
X657457Y334017D01*
X657411Y334064D01*
X657337Y334138D01*
X657245Y334230D01*
X657143Y334360D01*
X657023Y334498D01*
X656903Y334665D01*
X656773Y334850D01*
X655673Y336588D01*
X656727D01*
X657568Y335256D01*
Y335247D01*
X657587Y335229D01*
X657605Y335201D01*
X657633Y335164D01*
X657698Y335062D01*
X657781Y334933D01*
X657883Y334794D01*
X657984Y334646D01*
X658086Y334507D01*
X658178Y334378D01*
X658188Y334369D01*
X658215Y334332D01*
X658262Y334276D01*
X658326Y334212D01*
X658465Y334073D01*
X658539Y334008D01*
X658613Y333953D01*
X658622Y333943D01*
X658641Y333934D01*
X658678Y333916D01*
X658733Y333888D01*
X658789Y333860D01*
X658853Y333833D01*
X659001Y333786D01*
X659011D01*
X659029Y333777D01*
X659066D01*
X659112Y333768D01*
X659177Y333759D01*
X659251D01*
X659353Y333749D01*
X660444D01*
Y336588D01*
X661294D01*
Y330190D01*
D02*
G37*
G36*
X652659Y335053D02*
X655442D01*
Y334332D01*
X652511Y330190D01*
X651873D01*
Y334332D01*
X651004D01*
Y335053D01*
X651873D01*
Y336588D01*
X652659D01*
Y335053D01*
D02*
G37*
G36*
X236991Y298952D02*
X237055D01*
X237231Y298934D01*
X237425Y298906D01*
X237628Y298860D01*
X237850Y298804D01*
X238054Y298730D01*
X238063D01*
X238081Y298721D01*
X238109Y298703D01*
X238146Y298684D01*
X238239Y298638D01*
X238359Y298555D01*
X238498Y298462D01*
X238636Y298342D01*
X238766Y298203D01*
X238886Y298046D01*
Y298037D01*
X238895Y298028D01*
X238913Y298000D01*
X238932Y297972D01*
X238978Y297880D01*
X239034Y297759D01*
X239098Y297612D01*
X239145Y297436D01*
X239191Y297251D01*
X239209Y297048D01*
X238396Y296983D01*
Y296992D01*
Y297011D01*
X238386Y297038D01*
X238377Y297085D01*
X238350Y297186D01*
X238313Y297325D01*
X238257Y297473D01*
X238174Y297621D01*
X238072Y297759D01*
X237943Y297889D01*
X237924Y297898D01*
X237878Y297935D01*
X237786Y297991D01*
X237665Y298046D01*
X237508Y298102D01*
X237323Y298157D01*
X237092Y298194D01*
X236833Y298203D01*
X236704D01*
X236648Y298194D01*
X236574Y298185D01*
X236408Y298166D01*
X236223Y298129D01*
X236038Y298083D01*
X235863Y298009D01*
X235788Y297963D01*
X235715Y297917D01*
X235696Y297907D01*
X235659Y297870D01*
X235604Y297806D01*
X235548Y297732D01*
X235483Y297630D01*
X235428Y297519D01*
X235391Y297390D01*
X235373Y297242D01*
Y297223D01*
Y297186D01*
X235382Y297122D01*
X235400Y297048D01*
X235428Y296955D01*
X235474Y296863D01*
X235530Y296770D01*
X235613Y296678D01*
X235622Y296668D01*
X235668Y296641D01*
X235705Y296613D01*
X235742Y296595D01*
X235798Y296567D01*
X235863Y296530D01*
X235946Y296502D01*
X236038Y296465D01*
X236140Y296428D01*
X236260Y296382D01*
X236390Y296345D01*
X236537Y296299D01*
X236704Y296262D01*
X236889Y296215D01*
X236898D01*
X236935Y296206D01*
X236991Y296197D01*
X237055Y296178D01*
X237138Y296160D01*
X237240Y296132D01*
X237342Y296105D01*
X237453Y296077D01*
X237693Y296012D01*
X237924Y295947D01*
X238035Y295910D01*
X238137Y295873D01*
X238229Y295846D01*
X238303Y295809D01*
X238313D01*
X238331Y295799D01*
X238359Y295781D01*
X238396Y295763D01*
X238498Y295707D01*
X238618Y295633D01*
X238756Y295531D01*
X238895Y295420D01*
X239025Y295291D01*
X239135Y295152D01*
X239145Y295134D01*
X239182Y295088D01*
X239219Y295004D01*
X239274Y294893D01*
X239320Y294764D01*
X239367Y294607D01*
X239394Y294431D01*
X239404Y294246D01*
Y294237D01*
Y294228D01*
Y294200D01*
Y294163D01*
X239385Y294061D01*
X239367Y293932D01*
X239330Y293784D01*
X239283Y293627D01*
X239209Y293460D01*
X239108Y293285D01*
Y293275D01*
X239098Y293266D01*
X239052Y293211D01*
X238988Y293127D01*
X238895Y293035D01*
X238775Y292924D01*
X238627Y292804D01*
X238461Y292693D01*
X238266Y292591D01*
X238257D01*
X238239Y292582D01*
X238211Y292573D01*
X238174Y292554D01*
X238118Y292536D01*
X238054Y292508D01*
X237906Y292471D01*
X237730Y292425D01*
X237518Y292379D01*
X237286Y292351D01*
X237037Y292342D01*
X236889D01*
X236815Y292351D01*
X236732D01*
X236639Y292360D01*
X236528Y292369D01*
X236297Y292406D01*
X236057Y292443D01*
X235816Y292508D01*
X235585Y292591D01*
X235576D01*
X235557Y292600D01*
X235530Y292619D01*
X235493Y292637D01*
X235382Y292693D01*
X235252Y292776D01*
X235104Y292887D01*
X234947Y293016D01*
X234799Y293174D01*
X234661Y293349D01*
Y293359D01*
X234642Y293377D01*
X234633Y293405D01*
X234605Y293442D01*
X234587Y293488D01*
X234559Y293543D01*
X234494Y293682D01*
X234429Y293858D01*
X234374Y294052D01*
X234337Y294274D01*
X234319Y294505D01*
X235114Y294579D01*
Y294570D01*
Y294561D01*
X235123Y294533D01*
Y294496D01*
X235141Y294413D01*
X235169Y294292D01*
X235206Y294172D01*
X235243Y294034D01*
X235308Y293904D01*
X235373Y293784D01*
X235382Y293775D01*
X235410Y293738D01*
X235456Y293673D01*
X235530Y293608D01*
X235622Y293525D01*
X235724Y293442D01*
X235863Y293359D01*
X236010Y293285D01*
X236020D01*
X236029Y293275D01*
X236057Y293266D01*
X236084Y293257D01*
X236177Y293229D01*
X236297Y293192D01*
X236445Y293155D01*
X236611Y293127D01*
X236796Y293109D01*
X237000Y293100D01*
X237083D01*
X237175Y293109D01*
X237286Y293118D01*
X237416Y293137D01*
X237564Y293155D01*
X237712Y293192D01*
X237850Y293238D01*
X237869Y293248D01*
X237915Y293266D01*
X237980Y293303D01*
X238063Y293340D01*
X238146Y293405D01*
X238239Y293470D01*
X238331Y293543D01*
X238405Y293636D01*
X238414Y293645D01*
X238433Y293682D01*
X238461Y293728D01*
X238498Y293802D01*
X238535Y293876D01*
X238562Y293969D01*
X238581Y294070D01*
X238590Y294181D01*
Y294191D01*
Y294237D01*
X238581Y294292D01*
X238571Y294366D01*
X238544Y294440D01*
X238516Y294533D01*
X238470Y294625D01*
X238405Y294708D01*
X238396Y294718D01*
X238368Y294745D01*
X238331Y294782D01*
X238266Y294838D01*
X238192Y294893D01*
X238091Y294958D01*
X237971Y295023D01*
X237832Y295078D01*
X237823Y295088D01*
X237776Y295097D01*
X237702Y295124D01*
X237656Y295134D01*
X237591Y295152D01*
X237527Y295180D01*
X237444Y295198D01*
X237351Y295226D01*
X237240Y295254D01*
X237129Y295282D01*
X237000Y295319D01*
X236852Y295356D01*
X236695Y295393D01*
X236685D01*
X236658Y295402D01*
X236611Y295411D01*
X236556Y295430D01*
X236482Y295448D01*
X236399Y295467D01*
X236214Y295522D01*
X236010Y295587D01*
X235798Y295651D01*
X235613Y295716D01*
X235530Y295753D01*
X235456Y295790D01*
X235446D01*
X235437Y295799D01*
X235382Y295836D01*
X235299Y295883D01*
X235206Y295957D01*
X235095Y296040D01*
X234984Y296141D01*
X234873Y296262D01*
X234781Y296391D01*
X234771Y296410D01*
X234744Y296456D01*
X234707Y296530D01*
X234670Y296622D01*
X234633Y296742D01*
X234596Y296881D01*
X234568Y297029D01*
X234559Y297186D01*
Y297195D01*
Y297205D01*
Y297232D01*
Y297269D01*
X234577Y297362D01*
X234596Y297482D01*
X234624Y297621D01*
X234670Y297778D01*
X234734Y297935D01*
X234827Y298092D01*
Y298102D01*
X234836Y298111D01*
X234883Y298166D01*
X234947Y298240D01*
X235030Y298333D01*
X235141Y298434D01*
X235280Y298545D01*
X235446Y298647D01*
X235631Y298739D01*
X235641D01*
X235659Y298749D01*
X235687Y298758D01*
X235724Y298776D01*
X235770Y298795D01*
X235835Y298813D01*
X235973Y298850D01*
X236149Y298888D01*
X236353Y298924D01*
X236565Y298952D01*
X236805Y298961D01*
X236926D01*
X236991Y298952D01*
D02*
G37*
G36*
X243204Y292453D02*
X242418D01*
Y297454D01*
X242408Y297445D01*
X242362Y297408D01*
X242307Y297353D01*
X242214Y297288D01*
X242113Y297205D01*
X241983Y297112D01*
X241835Y297011D01*
X241669Y296909D01*
X241660D01*
X241650Y296900D01*
X241595Y296863D01*
X241502Y296816D01*
X241391Y296761D01*
X241262Y296696D01*
X241123Y296632D01*
X240985Y296567D01*
X240846Y296511D01*
Y297269D01*
X240855D01*
X240874Y297288D01*
X240911Y297297D01*
X240957Y297325D01*
X241012Y297353D01*
X241077Y297390D01*
X241234Y297482D01*
X241419Y297584D01*
X241604Y297713D01*
X241798Y297861D01*
X241992Y298018D01*
X242002Y298028D01*
X242011Y298037D01*
X242039Y298065D01*
X242076Y298092D01*
X242159Y298185D01*
X242270Y298296D01*
X242381Y298425D01*
X242501Y298573D01*
X242603Y298721D01*
X242695Y298878D01*
X243204D01*
Y292453D01*
D02*
G37*
G36*
X230445Y293211D02*
X233597D01*
Y292453D01*
X229594D01*
Y298850D01*
X230445D01*
Y293211D01*
D02*
G37*
G36*
X228531Y298092D02*
X225054D01*
Y296114D01*
X228059D01*
Y295356D01*
X225054D01*
Y292453D01*
X224204D01*
Y298850D01*
X228531D01*
Y298092D01*
D02*
G37*
G36*
X403838Y280377D02*
X403829Y280303D01*
Y280220D01*
X403819Y280026D01*
X403792Y279822D01*
X403764Y279601D01*
X403718Y279397D01*
X403690Y279295D01*
X403662Y279212D01*
Y279203D01*
X403653Y279194D01*
X403625Y279138D01*
X403588Y279055D01*
X403523Y278953D01*
X403440Y278842D01*
X403329Y278722D01*
X403200Y278611D01*
X403052Y278500D01*
X403043D01*
X403033Y278491D01*
X402978Y278454D01*
X402886Y278417D01*
X402765Y278362D01*
X402627Y278315D01*
X402460Y278269D01*
X402285Y278241D01*
X402090Y278232D01*
X402081D01*
X402063D01*
X402026D01*
X401979Y278241D01*
X401915D01*
X401850Y278251D01*
X401693Y278288D01*
X401508Y278343D01*
X401314Y278417D01*
X401120Y278528D01*
X401027Y278602D01*
X400935Y278676D01*
X400925Y278685D01*
X400916Y278694D01*
X400888Y278722D01*
X400861Y278759D01*
X400824Y278805D01*
X400787Y278861D01*
X400741Y278935D01*
X400685Y279009D01*
X400639Y279101D01*
X400593Y279203D01*
X400537Y279314D01*
X400491Y279434D01*
X400454Y279573D01*
X400408Y279711D01*
X400380Y279869D01*
X400352Y280035D01*
X400343Y280017D01*
X400325Y279980D01*
X400288Y279924D01*
X400251Y279850D01*
X400149Y279684D01*
X400084Y279601D01*
X400029Y279527D01*
X400010Y279508D01*
X399964Y279462D01*
X399890Y279388D01*
X399798Y279295D01*
X399668Y279194D01*
X399529Y279074D01*
X399363Y278953D01*
X399178Y278824D01*
X397440Y277724D01*
Y278778D01*
X398771Y279619D01*
X398781D01*
X398799Y279638D01*
X398827Y279656D01*
X398864Y279684D01*
X398965Y279748D01*
X399095Y279832D01*
X399234Y279933D01*
X399381Y280035D01*
X399520Y280137D01*
X399650Y280229D01*
X399659Y280238D01*
X399696Y280266D01*
X399751Y280312D01*
X399816Y280377D01*
X399955Y280516D01*
X400019Y280590D01*
X400075Y280664D01*
X400084Y280673D01*
X400093Y280692D01*
X400112Y280728D01*
X400140Y280784D01*
X400167Y280839D01*
X400195Y280904D01*
X400241Y281052D01*
Y281061D01*
X400251Y281080D01*
Y281117D01*
X400260Y281163D01*
X400269Y281228D01*
Y281302D01*
X400278Y281403D01*
Y282494D01*
X397440D01*
Y283345D01*
X403838D01*
Y280377D01*
D02*
G37*
G36*
X399234Y276429D02*
X399224D01*
X399206Y276420D01*
X399169Y276411D01*
X399123Y276402D01*
X399067Y276392D01*
X399002Y276374D01*
X398864Y276328D01*
X398697Y276263D01*
X398540Y276180D01*
X398392Y276087D01*
X398263Y275976D01*
X398254Y275958D01*
X398217Y275921D01*
X398170Y275847D01*
X398124Y275754D01*
X398069Y275643D01*
X398022Y275505D01*
X397985Y275348D01*
X397976Y275181D01*
Y275126D01*
X397985Y275089D01*
X397995Y274987D01*
X398022Y274858D01*
X398069Y274710D01*
X398133Y274552D01*
X398226Y274395D01*
X398355Y274247D01*
X398374Y274229D01*
X398429Y274183D01*
X398512Y274127D01*
X398623Y274053D01*
X398762Y273979D01*
X398919Y273924D01*
X399104Y273878D01*
X399308Y273859D01*
X399317D01*
X399335D01*
X399363D01*
X399400Y273868D01*
X399502Y273878D01*
X399622Y273905D01*
X399770Y273942D01*
X399918Y274007D01*
X400066Y274099D01*
X400204Y274220D01*
X400223Y274238D01*
X400260Y274284D01*
X400315Y274358D01*
X400380Y274460D01*
X400445Y274589D01*
X400500Y274747D01*
X400537Y274922D01*
X400556Y275116D01*
Y275200D01*
X400546Y275264D01*
X400537Y275348D01*
X400519Y275440D01*
X400500Y275551D01*
X400472Y275671D01*
X401166Y275579D01*
Y275532D01*
X401157Y275495D01*
Y275375D01*
X401175Y275274D01*
X401194Y275153D01*
X401221Y275015D01*
X401268Y274858D01*
X401332Y274710D01*
X401415Y274552D01*
Y274543D01*
X401425Y274534D01*
X401462Y274488D01*
X401526Y274423D01*
X401610Y274349D01*
X401730Y274275D01*
X401869Y274210D01*
X402026Y274164D01*
X402118Y274146D01*
X402220D01*
X402229D01*
X402238D01*
X402294D01*
X402368Y274164D01*
X402469Y274183D01*
X402580Y274220D01*
X402701Y274266D01*
X402821Y274340D01*
X402932Y274442D01*
X402941Y274451D01*
X402978Y274497D01*
X403024Y274562D01*
X403080Y274645D01*
X403126Y274756D01*
X403172Y274885D01*
X403209Y275033D01*
X403218Y275200D01*
Y275274D01*
X403200Y275357D01*
X403181Y275468D01*
X403144Y275588D01*
X403098Y275708D01*
X403024Y275838D01*
X402932Y275958D01*
X402923Y275967D01*
X402876Y276004D01*
X402812Y276059D01*
X402719Y276124D01*
X402599Y276189D01*
X402451Y276254D01*
X402275Y276309D01*
X402072Y276346D01*
X402211Y277132D01*
X402220D01*
X402248Y277123D01*
X402285Y277113D01*
X402340Y277104D01*
X402405Y277086D01*
X402479Y277058D01*
X402654Y277003D01*
X402858Y276910D01*
X403061Y276799D01*
X403255Y276660D01*
X403431Y276485D01*
X403440Y276476D01*
X403450Y276457D01*
X403468Y276429D01*
X403496Y276392D01*
X403533Y276346D01*
X403570Y276281D01*
X403607Y276217D01*
X403653Y276133D01*
X403727Y275949D01*
X403801Y275736D01*
X403847Y275486D01*
X403866Y275357D01*
Y275126D01*
X403856Y275024D01*
X403838Y274904D01*
X403810Y274756D01*
X403764Y274589D01*
X403708Y274423D01*
X403634Y274257D01*
Y274247D01*
X403625Y274238D01*
X403597Y274183D01*
X403542Y274099D01*
X403477Y274007D01*
X403385Y273896D01*
X403283Y273785D01*
X403163Y273674D01*
X403024Y273582D01*
X403006Y273572D01*
X402960Y273545D01*
X402876Y273508D01*
X402775Y273461D01*
X402654Y273415D01*
X402516Y273378D01*
X402359Y273351D01*
X402201Y273341D01*
X402183D01*
X402127D01*
X402053Y273351D01*
X401952Y273369D01*
X401832Y273397D01*
X401702Y273443D01*
X401573Y273498D01*
X401443Y273572D01*
X401425Y273582D01*
X401388Y273609D01*
X401323Y273665D01*
X401249Y273739D01*
X401166Y273831D01*
X401073Y273942D01*
X400990Y274072D01*
X400907Y274229D01*
Y274220D01*
X400898Y274201D01*
X400888Y274173D01*
X400879Y274136D01*
X400842Y274035D01*
X400787Y273905D01*
X400713Y273757D01*
X400620Y273609D01*
X400500Y273471D01*
X400362Y273341D01*
X400343Y273332D01*
X400288Y273295D01*
X400195Y273240D01*
X400075Y273184D01*
X399927Y273129D01*
X399751Y273073D01*
X399548Y273036D01*
X399326Y273027D01*
X399317D01*
X399289D01*
X399243D01*
X399187Y273036D01*
X399113Y273045D01*
X399030Y273064D01*
X398938Y273082D01*
X398836Y273101D01*
X398614Y273175D01*
X398494Y273230D01*
X398383Y273286D01*
X398263Y273360D01*
X398143Y273443D01*
X398022Y273535D01*
X397911Y273646D01*
X397902Y273656D01*
X397884Y273674D01*
X397856Y273711D01*
X397819Y273757D01*
X397773Y273813D01*
X397727Y273887D01*
X397671Y273970D01*
X397625Y274072D01*
X397569Y274173D01*
X397514Y274294D01*
X397468Y274414D01*
X397421Y274552D01*
X397384Y274700D01*
X397357Y274858D01*
X397338Y275015D01*
X397329Y275190D01*
Y275274D01*
X397338Y275329D01*
X397347Y275403D01*
X397357Y275486D01*
X397375Y275579D01*
X397394Y275680D01*
X397449Y275902D01*
X397542Y276133D01*
X397597Y276254D01*
X397662Y276365D01*
X397745Y276476D01*
X397828Y276586D01*
X397837Y276596D01*
X397856Y276614D01*
X397884Y276642D01*
X397921Y276670D01*
X397967Y276716D01*
X398032Y276762D01*
X398096Y276818D01*
X398180Y276873D01*
X398272Y276929D01*
X398364Y276984D01*
X398586Y277086D01*
X398845Y277169D01*
X398984Y277197D01*
X399132Y277215D01*
X399234Y276429D01*
D02*
G37*
G36*
X355134Y204311D02*
X352166D01*
X352092Y204320D01*
X352009D01*
X351815Y204330D01*
X351612Y204357D01*
X351390Y204385D01*
X351186Y204431D01*
X351085Y204459D01*
X351001Y204487D01*
X350992D01*
X350983Y204496D01*
X350927Y204524D01*
X350844Y204561D01*
X350742Y204625D01*
X350631Y204709D01*
X350511Y204820D01*
X350400Y204949D01*
X350289Y205097D01*
Y205106D01*
X350280Y205116D01*
X350243Y205171D01*
X350206Y205264D01*
X350151Y205384D01*
X350104Y205522D01*
X350058Y205689D01*
X350031Y205864D01*
X350021Y206059D01*
Y206068D01*
Y206086D01*
Y206123D01*
X350031Y206169D01*
Y206234D01*
X350040Y206299D01*
X350077Y206456D01*
X350132Y206641D01*
X350206Y206835D01*
X350317Y207029D01*
X350391Y207122D01*
X350465Y207214D01*
X350474Y207223D01*
X350484Y207233D01*
X350511Y207260D01*
X350548Y207288D01*
X350594Y207325D01*
X350650Y207362D01*
X350724Y207408D01*
X350798Y207464D01*
X350890Y207510D01*
X350992Y207556D01*
X351103Y207612D01*
X351223Y207658D01*
X351362Y207695D01*
X351501Y207741D01*
X351658Y207769D01*
X351824Y207797D01*
X351806Y207806D01*
X351769Y207824D01*
X351713Y207861D01*
X351639Y207899D01*
X351473Y208000D01*
X351390Y208065D01*
X351316Y208120D01*
X351297Y208139D01*
X351251Y208185D01*
X351177Y208259D01*
X351085Y208351D01*
X350983Y208481D01*
X350863Y208620D01*
X350742Y208786D01*
X350613Y208971D01*
X349513Y210709D01*
X350567D01*
X351408Y209378D01*
Y209368D01*
X351427Y209350D01*
X351445Y209322D01*
X351473Y209285D01*
X351538Y209184D01*
X351621Y209054D01*
X351722Y208916D01*
X351824Y208768D01*
X351926Y208629D01*
X352018Y208499D01*
X352028Y208490D01*
X352055Y208453D01*
X352102Y208398D01*
X352166Y208333D01*
X352305Y208194D01*
X352379Y208130D01*
X352453Y208074D01*
X352462Y208065D01*
X352481Y208056D01*
X352518Y208037D01*
X352573Y208009D01*
X352629Y207982D01*
X352693Y207954D01*
X352841Y207908D01*
X352850D01*
X352869Y207899D01*
X352906D01*
X352952Y207889D01*
X353017Y207880D01*
X353091D01*
X353192Y207871D01*
X354283D01*
Y210709D01*
X355134D01*
Y204311D01*
D02*
G37*
G36*
X347072Y210811D02*
X347155Y210802D01*
X347248Y210792D01*
X347349Y210774D01*
X347460Y210746D01*
X347710Y210681D01*
X347839Y210635D01*
X347960Y210589D01*
X348089Y210524D01*
X348218Y210450D01*
X348339Y210367D01*
X348450Y210265D01*
X348459Y210256D01*
X348477Y210238D01*
X348505Y210210D01*
X348542Y210164D01*
X348579Y210108D01*
X348634Y210043D01*
X348681Y209970D01*
X348736Y209877D01*
X348792Y209785D01*
X348838Y209674D01*
X348930Y209443D01*
X348967Y209304D01*
X348995Y209165D01*
X349013Y209017D01*
X349023Y208869D01*
Y208860D01*
Y208841D01*
Y208804D01*
X349013Y208768D01*
Y208712D01*
X349004Y208647D01*
X348986Y208499D01*
X348949Y208333D01*
X348893Y208167D01*
X348810Y207991D01*
X348708Y207824D01*
Y207815D01*
X348690Y207806D01*
X348653Y207760D01*
X348579Y207686D01*
X348477Y207593D01*
X348348Y207501D01*
X348191Y207399D01*
X348015Y207316D01*
X347802Y207251D01*
X347812D01*
X347821Y207242D01*
X347849Y207233D01*
X347886Y207214D01*
X347969Y207177D01*
X348080Y207122D01*
X348200Y207048D01*
X348320Y206955D01*
X348431Y206854D01*
X348533Y206743D01*
X348542Y206724D01*
X348570Y206687D01*
X348607Y206613D01*
X348644Y206521D01*
X348690Y206401D01*
X348727Y206262D01*
X348755Y206105D01*
X348764Y205938D01*
Y205929D01*
Y205911D01*
Y205874D01*
X348755Y205818D01*
X348745Y205763D01*
X348736Y205689D01*
X348699Y205532D01*
X348644Y205347D01*
X348551Y205152D01*
X348496Y205051D01*
X348431Y204949D01*
X348348Y204857D01*
X348265Y204764D01*
X348255Y204755D01*
X348237Y204746D01*
X348209Y204718D01*
X348172Y204690D01*
X348126Y204653D01*
X348061Y204616D01*
X347987Y204570D01*
X347913Y204524D01*
X347821Y204478D01*
X347719Y204431D01*
X347608Y204394D01*
X347488Y204357D01*
X347229Y204302D01*
X347081Y204293D01*
X346933Y204283D01*
X346850D01*
X346795Y204293D01*
X346721Y204302D01*
X346637Y204311D01*
X346545Y204320D01*
X346452Y204348D01*
X346231Y204404D01*
X346009Y204487D01*
X345898Y204542D01*
X345787Y204607D01*
X345685Y204690D01*
X345583Y204774D01*
X345574Y204783D01*
X345565Y204792D01*
X345537Y204820D01*
X345500Y204857D01*
X345463Y204912D01*
X345417Y204968D01*
X345325Y205106D01*
X345232Y205282D01*
X345149Y205485D01*
X345084Y205716D01*
X345075Y205837D01*
X345066Y205966D01*
Y205975D01*
Y205985D01*
Y206040D01*
X345075Y206123D01*
X345093Y206225D01*
X345121Y206355D01*
X345167Y206484D01*
X345223Y206613D01*
X345306Y206743D01*
X345315Y206761D01*
X345352Y206798D01*
X345408Y206854D01*
X345482Y206928D01*
X345583Y207011D01*
X345704Y207094D01*
X345842Y207177D01*
X346009Y207251D01*
X345999D01*
X345981Y207260D01*
X345953Y207270D01*
X345916Y207288D01*
X345805Y207334D01*
X345676Y207399D01*
X345537Y207492D01*
X345389Y207593D01*
X345251Y207723D01*
X345121Y207871D01*
Y207880D01*
X345112Y207889D01*
X345075Y207945D01*
X345019Y208037D01*
X344964Y208157D01*
X344908Y208305D01*
X344853Y208481D01*
X344816Y208675D01*
X344807Y208888D01*
Y208897D01*
Y208925D01*
Y208971D01*
X344816Y209026D01*
X344825Y209091D01*
X344835Y209174D01*
X344853Y209267D01*
X344881Y209368D01*
X344945Y209581D01*
X344992Y209701D01*
X345056Y209812D01*
X345121Y209932D01*
X345195Y210043D01*
X345288Y210154D01*
X345389Y210265D01*
X345398Y210275D01*
X345417Y210293D01*
X345445Y210321D01*
X345491Y210349D01*
X345556Y210395D01*
X345620Y210441D01*
X345704Y210487D01*
X345796Y210543D01*
X345898Y210598D01*
X346018Y210644D01*
X346147Y210691D01*
X346277Y210737D01*
X346425Y210765D01*
X346582Y210792D01*
X346739Y210811D01*
X346915Y210820D01*
X347007D01*
X347072Y210811D01*
D02*
G37*
G36*
X403029Y216302D02*
X403019Y216228D01*
Y216145D01*
X403010Y215951D01*
X402982Y215747D01*
X402955Y215525D01*
X402908Y215322D01*
X402881Y215220D01*
X402853Y215137D01*
Y215128D01*
X402844Y215119D01*
X402816Y215063D01*
X402779Y214980D01*
X402714Y214878D01*
X402631Y214767D01*
X402520Y214647D01*
X402391Y214536D01*
X402243Y214425D01*
X402234D01*
X402224Y214416D01*
X402169Y214379D01*
X402076Y214342D01*
X401956Y214287D01*
X401817Y214240D01*
X401651Y214194D01*
X401475Y214166D01*
X401281Y214157D01*
X401272D01*
X401253D01*
X401216D01*
X401170Y214166D01*
X401105D01*
X401041Y214176D01*
X400884Y214213D01*
X400699Y214268D01*
X400504Y214342D01*
X400310Y214453D01*
X400218Y214527D01*
X400126Y214601D01*
X400116Y214610D01*
X400107Y214619D01*
X400079Y214647D01*
X400051Y214684D01*
X400014Y214730D01*
X399977Y214786D01*
X399931Y214860D01*
X399876Y214934D01*
X399830Y215026D01*
X399783Y215128D01*
X399728Y215239D01*
X399682Y215359D01*
X399645Y215498D01*
X399599Y215636D01*
X399571Y215794D01*
X399543Y215960D01*
X399534Y215942D01*
X399515Y215905D01*
X399478Y215849D01*
X399441Y215775D01*
X399340Y215609D01*
X399275Y215525D01*
X399219Y215452D01*
X399201Y215433D01*
X399155Y215387D01*
X399081Y215313D01*
X398988Y215220D01*
X398859Y215119D01*
X398720Y214998D01*
X398554Y214878D01*
X398369Y214749D01*
X396631Y213649D01*
Y214703D01*
X397962Y215544D01*
X397971D01*
X397990Y215562D01*
X398018Y215581D01*
X398054Y215609D01*
X398156Y215673D01*
X398286Y215757D01*
X398424Y215858D01*
X398572Y215960D01*
X398711Y216062D01*
X398840Y216154D01*
X398850Y216163D01*
X398887Y216191D01*
X398942Y216237D01*
X399007Y216302D01*
X399145Y216441D01*
X399210Y216515D01*
X399266Y216589D01*
X399275Y216598D01*
X399284Y216616D01*
X399303Y216653D01*
X399330Y216709D01*
X399358Y216764D01*
X399386Y216829D01*
X399432Y216977D01*
Y216986D01*
X399441Y217005D01*
Y217042D01*
X399450Y217088D01*
X399460Y217153D01*
Y217227D01*
X399469Y217328D01*
Y218419D01*
X396631D01*
Y219270D01*
X403029D01*
Y216302D01*
D02*
G37*
G36*
X401448Y212539D02*
X401466Y212521D01*
X401475Y212484D01*
X401503Y212437D01*
X401531Y212382D01*
X401568Y212317D01*
X401660Y212160D01*
X401762Y211975D01*
X401891Y211790D01*
X402039Y211596D01*
X402197Y211402D01*
X402206Y211393D01*
X402215Y211383D01*
X402243Y211356D01*
X402270Y211319D01*
X402363Y211236D01*
X402474Y211125D01*
X402603Y211014D01*
X402751Y210893D01*
X402899Y210792D01*
X403056Y210699D01*
Y210191D01*
X396631D01*
Y210977D01*
X401632D01*
X401623Y210986D01*
X401586Y211032D01*
X401531Y211088D01*
X401466Y211180D01*
X401383Y211282D01*
X401290Y211411D01*
X401189Y211559D01*
X401087Y211726D01*
Y211735D01*
X401078Y211744D01*
X401041Y211800D01*
X400994Y211892D01*
X400939Y212003D01*
X400874Y212132D01*
X400810Y212271D01*
X400745Y212410D01*
X400689Y212548D01*
X401448D01*
Y212539D01*
D02*
G37*
G36*
X445582Y340188D02*
X445573Y340179D01*
X445555Y340160D01*
X445518Y340123D01*
X445481Y340068D01*
X445425Y340003D01*
X445351Y339929D01*
X445277Y339837D01*
X445194Y339726D01*
X445111Y339615D01*
X445009Y339485D01*
X444907Y339337D01*
X444806Y339189D01*
X444695Y339023D01*
X444584Y338847D01*
X444473Y338653D01*
X444362Y338459D01*
X444353Y338450D01*
X444334Y338413D01*
X444306Y338357D01*
X444260Y338274D01*
X444214Y338172D01*
X444158Y338061D01*
X444094Y337932D01*
X444029Y337784D01*
X443955Y337618D01*
X443872Y337451D01*
X443798Y337266D01*
X443724Y337072D01*
X443576Y336674D01*
X443437Y336249D01*
Y336240D01*
X443428Y336212D01*
X443419Y336166D01*
X443400Y336111D01*
X443382Y336037D01*
X443363Y335944D01*
X443336Y335842D01*
X443317Y335732D01*
X443289Y335602D01*
X443262Y335463D01*
X443215Y335168D01*
X443169Y334844D01*
X443141Y334493D01*
X442337D01*
Y334502D01*
Y334530D01*
Y334566D01*
X442346Y334622D01*
Y334696D01*
X442356Y334788D01*
X442365Y334890D01*
X442374Y335001D01*
X442393Y335131D01*
X442411Y335260D01*
X442439Y335417D01*
X442467Y335574D01*
X442494Y335741D01*
X442531Y335926D01*
X442624Y336305D01*
Y336314D01*
X442633Y336351D01*
X442651Y336406D01*
X442679Y336490D01*
X442707Y336582D01*
X442744Y336693D01*
X442781Y336823D01*
X442836Y336961D01*
X442892Y337118D01*
X442947Y337276D01*
X443086Y337627D01*
X443252Y337997D01*
X443437Y338367D01*
X443447Y338376D01*
X443465Y338413D01*
X443493Y338459D01*
X443530Y338533D01*
X443576Y338616D01*
X443641Y338718D01*
X443705Y338829D01*
X443779Y338949D01*
X443955Y339217D01*
X444140Y339494D01*
X444353Y339781D01*
X444575Y340049D01*
X441440D01*
Y340807D01*
X445582D01*
Y340188D01*
D02*
G37*
G36*
X438306Y340881D02*
X438389D01*
X438583Y340872D01*
X438787Y340844D01*
X439009Y340817D01*
X439212Y340770D01*
X439314Y340743D01*
X439397Y340715D01*
X439406D01*
X439416Y340706D01*
X439471Y340678D01*
X439554Y340641D01*
X439656Y340576D01*
X439767Y340493D01*
X439887Y340382D01*
X439998Y340253D01*
X440109Y340105D01*
Y340095D01*
X440118Y340086D01*
X440155Y340031D01*
X440192Y339938D01*
X440248Y339818D01*
X440294Y339679D01*
X440340Y339513D01*
X440368Y339337D01*
X440377Y339143D01*
Y339134D01*
Y339115D01*
Y339078D01*
X440368Y339032D01*
Y338967D01*
X440359Y338903D01*
X440322Y338746D01*
X440266Y338561D01*
X440192Y338367D01*
X440081Y338172D01*
X440007Y338080D01*
X439933Y337987D01*
X439924Y337978D01*
X439915Y337969D01*
X439887Y337941D01*
X439850Y337913D01*
X439804Y337877D01*
X439748Y337840D01*
X439674Y337793D01*
X439600Y337738D01*
X439508Y337692D01*
X439406Y337645D01*
X439295Y337590D01*
X439175Y337544D01*
X439036Y337507D01*
X438898Y337460D01*
X438741Y337433D01*
X438574Y337405D01*
X438593Y337396D01*
X438630Y337377D01*
X438685Y337340D01*
X438759Y337303D01*
X438925Y337201D01*
X439009Y337137D01*
X439083Y337081D01*
X439101Y337063D01*
X439147Y337017D01*
X439221Y336943D01*
X439314Y336850D01*
X439416Y336721D01*
X439536Y336582D01*
X439656Y336416D01*
X439785Y336231D01*
X440886Y334493D01*
X439832D01*
X438990Y335824D01*
Y335833D01*
X438972Y335852D01*
X438953Y335879D01*
X438925Y335916D01*
X438861Y336018D01*
X438778Y336147D01*
X438676Y336286D01*
X438574Y336434D01*
X438472Y336573D01*
X438380Y336702D01*
X438371Y336712D01*
X438343Y336749D01*
X438297Y336804D01*
X438232Y336869D01*
X438093Y337007D01*
X438019Y337072D01*
X437945Y337128D01*
X437936Y337137D01*
X437918Y337146D01*
X437881Y337165D01*
X437825Y337192D01*
X437770Y337220D01*
X437705Y337248D01*
X437557Y337294D01*
X437548D01*
X437529Y337303D01*
X437492D01*
X437446Y337313D01*
X437381Y337322D01*
X437308D01*
X437206Y337331D01*
X436115D01*
Y334493D01*
X435264D01*
Y340891D01*
X438232D01*
X438306Y340881D01*
D02*
G37*
G36*
X312983Y325186D02*
X313057Y325177D01*
X313150Y325168D01*
X313252Y325149D01*
X313353Y325131D01*
X313594Y325066D01*
X313834Y324974D01*
X313954Y324918D01*
X314074Y324854D01*
X314186Y324770D01*
X314287Y324678D01*
X314296Y324669D01*
X314315Y324659D01*
X314333Y324622D01*
X314370Y324585D01*
X314417Y324539D01*
X314463Y324474D01*
X314509Y324410D01*
X314564Y324327D01*
X314657Y324151D01*
X314750Y323929D01*
X314786Y323818D01*
X314805Y323689D01*
X314823Y323559D01*
X314833Y323420D01*
Y323402D01*
Y323356D01*
X314823Y323282D01*
X314814Y323180D01*
X314796Y323069D01*
X314759Y322940D01*
X314722Y322801D01*
X314666Y322662D01*
X314657Y322644D01*
X314639Y322598D01*
X314601Y322524D01*
X314546Y322422D01*
X314472Y322311D01*
X314380Y322172D01*
X314269Y322034D01*
X314139Y321876D01*
X314121Y321858D01*
X314074Y321802D01*
X314028Y321756D01*
X313982Y321710D01*
X313927Y321655D01*
X313853Y321581D01*
X313779Y321507D01*
X313686Y321423D01*
X313594Y321331D01*
X313483Y321229D01*
X313363Y321128D01*
X313233Y321007D01*
X313085Y320887D01*
X312937Y320758D01*
X312928Y320748D01*
X312910Y320730D01*
X312873Y320702D01*
X312826Y320665D01*
X312771Y320610D01*
X312706Y320554D01*
X312558Y320434D01*
X312401Y320295D01*
X312253Y320157D01*
X312124Y320037D01*
X312068Y319990D01*
X312022Y319944D01*
X312013Y319935D01*
X311985Y319907D01*
X311948Y319870D01*
X311902Y319815D01*
X311856Y319750D01*
X311800Y319685D01*
X311689Y319528D01*
X314842D01*
Y318770D01*
X310598D01*
Y318779D01*
Y318816D01*
Y318872D01*
X310607Y318946D01*
X310617Y319029D01*
X310635Y319121D01*
X310654Y319214D01*
X310691Y319315D01*
Y319325D01*
X310700Y319334D01*
X310718Y319389D01*
X310755Y319473D01*
X310811Y319583D01*
X310885Y319713D01*
X310977Y319861D01*
X311079Y320009D01*
X311208Y320166D01*
Y320175D01*
X311227Y320184D01*
X311273Y320240D01*
X311356Y320323D01*
X311476Y320443D01*
X311615Y320582D01*
X311791Y320748D01*
X312003Y320933D01*
X312235Y321128D01*
X312244Y321137D01*
X312281Y321165D01*
X312336Y321211D01*
X312401Y321266D01*
X312484Y321340D01*
X312586Y321423D01*
X312688Y321516D01*
X312808Y321618D01*
X313039Y321839D01*
X313270Y322061D01*
X313381Y322172D01*
X313483Y322283D01*
X313575Y322385D01*
X313649Y322487D01*
Y322496D01*
X313668Y322505D01*
X313686Y322533D01*
X313705Y322570D01*
X313769Y322672D01*
X313843Y322792D01*
X313908Y322940D01*
X313973Y323097D01*
X314010Y323273D01*
X314028Y323439D01*
Y323448D01*
Y323457D01*
X314019Y323513D01*
X314010Y323605D01*
X313982Y323707D01*
X313945Y323837D01*
X313880Y323966D01*
X313797Y324095D01*
X313686Y324225D01*
X313668Y324243D01*
X313622Y324280D01*
X313557Y324327D01*
X313455Y324391D01*
X313326Y324447D01*
X313178Y324502D01*
X313002Y324539D01*
X312808Y324548D01*
X312752D01*
X312715Y324539D01*
X312605Y324530D01*
X312475Y324502D01*
X312336Y324465D01*
X312179Y324400D01*
X312031Y324317D01*
X311893Y324206D01*
X311874Y324188D01*
X311837Y324142D01*
X311782Y324068D01*
X311726Y323957D01*
X311661Y323827D01*
X311606Y323661D01*
X311569Y323476D01*
X311551Y323263D01*
X310746Y323346D01*
Y323356D01*
X310755Y323383D01*
Y323430D01*
X310765Y323494D01*
X310783Y323568D01*
X310802Y323652D01*
X310829Y323753D01*
X310857Y323855D01*
X310931Y324077D01*
X311042Y324299D01*
X311107Y324410D01*
X311190Y324521D01*
X311273Y324622D01*
X311366Y324715D01*
X311375Y324724D01*
X311393Y324733D01*
X311421Y324761D01*
X311467Y324789D01*
X311523Y324826D01*
X311588Y324863D01*
X311661Y324909D01*
X311754Y324955D01*
X311856Y325001D01*
X311966Y325048D01*
X312087Y325085D01*
X312216Y325122D01*
X312355Y325149D01*
X312503Y325177D01*
X312660Y325186D01*
X312826Y325196D01*
X312919D01*
X312983Y325186D01*
D02*
G37*
G36*
X307630Y325159D02*
X307714D01*
X307908Y325149D01*
X308111Y325122D01*
X308333Y325094D01*
X308536Y325048D01*
X308638Y325020D01*
X308721Y324992D01*
X308731D01*
X308740Y324983D01*
X308795Y324955D01*
X308878Y324918D01*
X308980Y324854D01*
X309091Y324770D01*
X309211Y324659D01*
X309322Y324530D01*
X309433Y324382D01*
Y324373D01*
X309443Y324364D01*
X309480Y324308D01*
X309516Y324216D01*
X309572Y324095D01*
X309618Y323957D01*
X309664Y323790D01*
X309692Y323615D01*
X309701Y323420D01*
Y323411D01*
Y323393D01*
Y323356D01*
X309692Y323310D01*
Y323245D01*
X309683Y323180D01*
X309646Y323023D01*
X309590Y322838D01*
X309516Y322644D01*
X309405Y322450D01*
X309331Y322357D01*
X309258Y322265D01*
X309248Y322256D01*
X309239Y322246D01*
X309211Y322219D01*
X309174Y322191D01*
X309128Y322154D01*
X309073Y322117D01*
X308999Y322071D01*
X308925Y322015D01*
X308832Y321969D01*
X308731Y321923D01*
X308620Y321867D01*
X308499Y321821D01*
X308361Y321784D01*
X308222Y321738D01*
X308065Y321710D01*
X307899Y321682D01*
X307917Y321673D01*
X307954Y321655D01*
X308009Y321618D01*
X308083Y321581D01*
X308250Y321479D01*
X308333Y321414D01*
X308407Y321359D01*
X308426Y321340D01*
X308472Y321294D01*
X308546Y321220D01*
X308638Y321128D01*
X308740Y320998D01*
X308860Y320859D01*
X308980Y320693D01*
X309110Y320508D01*
X310210Y318770D01*
X309156D01*
X308314Y320101D01*
Y320111D01*
X308296Y320129D01*
X308277Y320157D01*
X308250Y320194D01*
X308185Y320295D01*
X308102Y320425D01*
X308000Y320564D01*
X307899Y320711D01*
X307797Y320850D01*
X307704Y320980D01*
X307695Y320989D01*
X307667Y321026D01*
X307621Y321081D01*
X307556Y321146D01*
X307418Y321285D01*
X307344Y321349D01*
X307270Y321405D01*
X307260Y321414D01*
X307242Y321423D01*
X307205Y321442D01*
X307150Y321470D01*
X307094Y321497D01*
X307029Y321525D01*
X306882Y321571D01*
X306872D01*
X306854Y321581D01*
X306817D01*
X306770Y321590D01*
X306706Y321599D01*
X306632D01*
X306530Y321608D01*
X305439D01*
Y318770D01*
X304589D01*
Y325168D01*
X307556D01*
X307630Y325159D01*
D02*
G37*
%LPC*%
G36*
X62971Y204643D02*
X60956D01*
Y201777D01*
X62971Y204643D01*
D02*
G37*
G36*
X105814Y77083D02*
X105805D01*
X105787D01*
X105750D01*
X105703Y77073D01*
X105648D01*
X105583Y77064D01*
X105435Y77036D01*
X105269Y76999D01*
X105093Y76934D01*
X104927Y76842D01*
X104770Y76722D01*
X104751Y76703D01*
X104705Y76657D01*
X104649Y76583D01*
X104575Y76481D01*
X104501Y76352D01*
X104446Y76204D01*
X104400Y76028D01*
X104381Y75834D01*
Y75779D01*
X104390Y75742D01*
X104400Y75649D01*
X104427Y75520D01*
X104474Y75381D01*
X104548Y75224D01*
X104640Y75076D01*
X104770Y74928D01*
X104788Y74910D01*
X104834Y74873D01*
X104917Y74808D01*
X105038Y74743D01*
X105176Y74679D01*
X105352Y74614D01*
X105546Y74577D01*
X105768Y74558D01*
X105787D01*
X105833D01*
X105916Y74568D01*
X106018Y74577D01*
X106138Y74595D01*
X106267Y74632D01*
X106406Y74669D01*
X106545Y74725D01*
X106563Y74734D01*
X106609Y74762D01*
X106674Y74799D01*
X106757Y74854D01*
X106841Y74919D01*
X106942Y75002D01*
X107025Y75095D01*
X107109Y75206D01*
X107118Y75224D01*
X107136Y75261D01*
X107173Y75326D01*
X107201Y75409D01*
X107238Y75501D01*
X107275Y75612D01*
X107294Y75733D01*
X107303Y75862D01*
Y75908D01*
X107294Y75945D01*
X107284Y76038D01*
X107257Y76158D01*
X107201Y76287D01*
X107136Y76435D01*
X107035Y76583D01*
X106979Y76657D01*
X106905Y76722D01*
X106896D01*
X106887Y76740D01*
X106831Y76777D01*
X106739Y76833D01*
X106619Y76907D01*
X106461Y76972D01*
X106277Y77027D01*
X106064Y77064D01*
X105814Y77083D01*
D02*
G37*
G36*
X141687Y76620D02*
X139570D01*
Y74715D01*
X139579Y74604D01*
X139588Y74475D01*
X139597Y74327D01*
X139616Y74179D01*
X139644Y74031D01*
X139681Y73901D01*
X139690Y73883D01*
X139708Y73846D01*
X139736Y73790D01*
X139773Y73716D01*
X139829Y73633D01*
X139893Y73550D01*
X139976Y73467D01*
X140069Y73402D01*
X140078Y73393D01*
X140115Y73374D01*
X140171Y73347D01*
X140245Y73310D01*
X140328Y73282D01*
X140420Y73254D01*
X140531Y73236D01*
X140642Y73226D01*
X140651D01*
X140661D01*
X140716Y73236D01*
X140799Y73245D01*
X140910Y73263D01*
X141021Y73310D01*
X141151Y73365D01*
X141271Y73448D01*
X141391Y73559D01*
X141400Y73578D01*
X141437Y73624D01*
X141483Y73698D01*
X141539Y73818D01*
X141594Y73957D01*
X141641Y74142D01*
X141678Y74354D01*
X141687Y74604D01*
Y76620D01*
D02*
G37*
G36*
X429298Y119621D02*
X427393D01*
X427282Y119612D01*
X427153Y119603D01*
X427005Y119593D01*
X426857Y119575D01*
X426709Y119547D01*
X426580Y119510D01*
X426561Y119501D01*
X426524Y119483D01*
X426469Y119455D01*
X426395Y119418D01*
X426312Y119362D01*
X426228Y119298D01*
X426145Y119214D01*
X426081Y119122D01*
X426071Y119113D01*
X426053Y119076D01*
X426025Y119020D01*
X425988Y118946D01*
X425960Y118863D01*
X425933Y118771D01*
X425914Y118660D01*
X425905Y118549D01*
Y118539D01*
Y118530D01*
X425914Y118475D01*
X425923Y118392D01*
X425942Y118281D01*
X425988Y118170D01*
X426044Y118040D01*
X426127Y117920D01*
X426238Y117800D01*
X426256Y117791D01*
X426302Y117754D01*
X426376Y117707D01*
X426497Y117652D01*
X426635Y117597D01*
X426820Y117550D01*
X427033Y117513D01*
X427282Y117504D01*
X429298D01*
Y119621D01*
D02*
G37*
G36*
X301316Y154378D02*
X299300D01*
Y152260D01*
X301205D01*
X301316Y152270D01*
X301445Y152279D01*
X301593Y152288D01*
X301741Y152307D01*
X301889Y152334D01*
X302019Y152371D01*
X302037Y152381D01*
X302074Y152399D01*
X302130Y152427D01*
X302204Y152464D01*
X302287Y152519D01*
X302370Y152584D01*
X302453Y152667D01*
X302518Y152760D01*
X302527Y152769D01*
X302546Y152806D01*
X302573Y152861D01*
X302610Y152935D01*
X302638Y153019D01*
X302666Y153111D01*
X302684Y153222D01*
X302694Y153333D01*
Y153342D01*
Y153351D01*
X302684Y153407D01*
X302675Y153490D01*
X302657Y153601D01*
X302610Y153712D01*
X302555Y153841D01*
X302472Y153962D01*
X302361Y154082D01*
X302342Y154091D01*
X302296Y154128D01*
X302222Y154174D01*
X302102Y154230D01*
X301963Y154285D01*
X301778Y154331D01*
X301566Y154368D01*
X301316Y154378D01*
D02*
G37*
G36*
X316146Y152787D02*
X316091D01*
X316054Y152778D01*
X315952Y152769D01*
X315832Y152741D01*
X315684Y152695D01*
X315527Y152630D01*
X315379Y152538D01*
X315231Y152418D01*
X315212Y152399D01*
X315175Y152353D01*
X315110Y152270D01*
X315046Y152159D01*
X314972Y152029D01*
X314907Y151863D01*
X314852Y151669D01*
X314824Y151456D01*
X317422D01*
Y151465D01*
Y151484D01*
X317413Y151511D01*
Y151549D01*
X317394Y151659D01*
X317366Y151780D01*
X317320Y151927D01*
X317274Y152066D01*
X317200Y152205D01*
X317117Y152325D01*
Y152334D01*
X317098Y152344D01*
X317052Y152399D01*
X316969Y152473D01*
X316858Y152556D01*
X316719Y152639D01*
X316553Y152713D01*
X316359Y152769D01*
X316257Y152778D01*
X316146Y152787D01*
D02*
G37*
G36*
X306697D02*
X306642D01*
X306604Y152778D01*
X306503Y152769D01*
X306383Y152741D01*
X306235Y152695D01*
X306077Y152630D01*
X305930Y152538D01*
X305782Y152418D01*
X305763Y152399D01*
X305726Y152353D01*
X305661Y152270D01*
X305597Y152159D01*
X305523Y152029D01*
X305458Y151863D01*
X305403Y151669D01*
X305375Y151456D01*
X307973D01*
Y151465D01*
Y151484D01*
X307964Y151511D01*
Y151549D01*
X307945Y151659D01*
X307917Y151780D01*
X307871Y151927D01*
X307825Y152066D01*
X307751Y152205D01*
X307668Y152325D01*
Y152334D01*
X307649Y152344D01*
X307603Y152399D01*
X307520Y152473D01*
X307409Y152556D01*
X307270Y152639D01*
X307104Y152713D01*
X306910Y152769D01*
X306808Y152778D01*
X306697Y152787D01*
D02*
G37*
G36*
X516971Y339458D02*
X516916D01*
X516879Y339449D01*
X516786Y339440D01*
X516657Y339412D01*
X516518Y339366D01*
X516361Y339292D01*
X516213Y339199D01*
X516065Y339070D01*
X516046Y339051D01*
X516009Y339005D01*
X515945Y338922D01*
X515880Y338802D01*
X515815Y338663D01*
X515751Y338487D01*
X515714Y338293D01*
X515695Y338071D01*
Y338053D01*
Y338007D01*
X515704Y337923D01*
X515714Y337822D01*
X515732Y337701D01*
X515769Y337572D01*
X515806Y337433D01*
X515862Y337295D01*
X515871Y337276D01*
X515899Y337230D01*
X515936Y337165D01*
X515991Y337082D01*
X516056Y336999D01*
X516139Y336897D01*
X516231Y336814D01*
X516342Y336731D01*
X516361Y336721D01*
X516398Y336703D01*
X516463Y336666D01*
X516546Y336638D01*
X516638Y336601D01*
X516749Y336564D01*
X516869Y336546D01*
X516999Y336536D01*
X517045D01*
X517082Y336546D01*
X517174Y336555D01*
X517295Y336583D01*
X517424Y336638D01*
X517572Y336703D01*
X517720Y336805D01*
X517794Y336860D01*
X517859Y336934D01*
Y336943D01*
X517877Y336953D01*
X517914Y337008D01*
X517970Y337100D01*
X518044Y337221D01*
X518108Y337378D01*
X518164Y337563D01*
X518201Y337775D01*
X518219Y338025D01*
Y338034D01*
Y338053D01*
Y338090D01*
X518210Y338136D01*
Y338191D01*
X518201Y338256D01*
X518173Y338404D01*
X518136Y338570D01*
X518071Y338746D01*
X517979Y338913D01*
X517859Y339070D01*
X517840Y339088D01*
X517794Y339134D01*
X517720Y339190D01*
X517618Y339264D01*
X517489Y339338D01*
X517341Y339393D01*
X517165Y339440D01*
X516971Y339458D01*
D02*
G37*
G36*
X511572Y341686D02*
X509556D01*
Y339569D01*
X511461D01*
X511572Y339578D01*
X511701Y339588D01*
X511849Y339597D01*
X511997Y339615D01*
X512145Y339643D01*
X512274Y339680D01*
X512293Y339689D01*
X512330Y339708D01*
X512385Y339735D01*
X512459Y339772D01*
X512542Y339828D01*
X512626Y339893D01*
X512709Y339976D01*
X512774Y340068D01*
X512783Y340078D01*
X512801Y340115D01*
X512829Y340170D01*
X512866Y340244D01*
X512894Y340327D01*
X512921Y340420D01*
X512940Y340531D01*
X512949Y340642D01*
Y340651D01*
Y340660D01*
X512940Y340715D01*
X512931Y340799D01*
X512912Y340910D01*
X512866Y341021D01*
X512811Y341150D01*
X512727Y341270D01*
X512616Y341390D01*
X512598Y341400D01*
X512552Y341437D01*
X512478Y341483D01*
X512357Y341538D01*
X512219Y341594D01*
X512034Y341640D01*
X511821Y341677D01*
X511572Y341686D01*
D02*
G37*
G36*
X595583Y125293D02*
X595528D01*
X595491Y125284D01*
X595389Y125274D01*
X595269Y125247D01*
X595121Y125201D01*
X594973Y125136D01*
X594825Y125043D01*
X594686Y124914D01*
X594668Y124895D01*
X594631Y124840D01*
X594575Y124757D01*
X594501Y124637D01*
X594437Y124489D01*
X594381Y124313D01*
X594344Y124100D01*
X594326Y123860D01*
Y123851D01*
Y123832D01*
Y123795D01*
X594335Y123749D01*
Y123684D01*
X594344Y123619D01*
X594372Y123472D01*
X594409Y123296D01*
X594474Y123111D01*
X594566Y122935D01*
X594686Y122778D01*
Y122769D01*
X594705Y122760D01*
X594751Y122713D01*
X594825Y122649D01*
X594927Y122575D01*
X595056Y122510D01*
X595204Y122445D01*
X595370Y122399D01*
X595463Y122381D01*
X595611D01*
X595648Y122390D01*
X595750Y122399D01*
X595870Y122436D01*
X596018Y122482D01*
X596175Y122565D01*
X596332Y122667D01*
X596406Y122741D01*
X596480Y122815D01*
Y122824D01*
X596498Y122834D01*
X596517Y122861D01*
X596535Y122889D01*
X596600Y122982D01*
X596665Y123111D01*
X596739Y123268D01*
X596804Y123462D01*
X596841Y123684D01*
X596859Y123925D01*
Y123934D01*
Y123952D01*
Y123980D01*
X596850Y124026D01*
Y124082D01*
X596841Y124137D01*
X596813Y124276D01*
X596767Y124433D01*
X596711Y124600D01*
X596619Y124766D01*
X596498Y124914D01*
X596480Y124932D01*
X596434Y124969D01*
X596351Y125034D01*
X596249Y125099D01*
X596110Y125173D01*
X595953Y125238D01*
X595777Y125274D01*
X595583Y125293D01*
D02*
G37*
G36*
X602933Y124590D02*
X601029D01*
X600918Y124581D01*
X600788Y124572D01*
X600640Y124563D01*
X600493Y124544D01*
X600345Y124516D01*
X600215Y124479D01*
X600197Y124470D01*
X600160Y124452D01*
X600104Y124424D01*
X600030Y124387D01*
X599947Y124332D01*
X599864Y124267D01*
X599781Y124184D01*
X599716Y124091D01*
X599707Y124082D01*
X599688Y124045D01*
X599660Y123989D01*
X599623Y123915D01*
X599596Y123832D01*
X599568Y123740D01*
X599549Y123629D01*
X599540Y123518D01*
Y123509D01*
Y123499D01*
X599549Y123444D01*
X599559Y123361D01*
X599577Y123250D01*
X599623Y123139D01*
X599679Y123009D01*
X599762Y122889D01*
X599873Y122769D01*
X599892Y122760D01*
X599938Y122723D01*
X600012Y122676D01*
X600132Y122621D01*
X600271Y122565D01*
X600456Y122519D01*
X600668Y122482D01*
X600918Y122473D01*
X602933D01*
Y124590D01*
D02*
G37*
G36*
X581759Y331511D02*
X579855D01*
X579744Y331502D01*
X579614Y331493D01*
X579467Y331484D01*
X579319Y331465D01*
X579171Y331437D01*
X579041Y331400D01*
X579023Y331391D01*
X578986Y331373D01*
X578930Y331345D01*
X578856Y331308D01*
X578773Y331253D01*
X578690Y331188D01*
X578607Y331105D01*
X578542Y331012D01*
X578533Y331003D01*
X578514Y330966D01*
X578487Y330910D01*
X578450Y330836D01*
X578422Y330753D01*
X578394Y330661D01*
X578376Y330550D01*
X578366Y330439D01*
Y330430D01*
Y330420D01*
X578376Y330365D01*
X578385Y330282D01*
X578403Y330171D01*
X578450Y330060D01*
X578505Y329930D01*
X578588Y329810D01*
X578699Y329690D01*
X578718Y329681D01*
X578764Y329644D01*
X578838Y329598D01*
X578958Y329542D01*
X579097Y329487D01*
X579282Y329440D01*
X579494Y329403D01*
X579744Y329394D01*
X581759D01*
Y331511D01*
D02*
G37*
G36*
X660444Y333019D02*
X658539D01*
X658428Y333010D01*
X658299Y333000D01*
X658151Y332991D01*
X658003Y332973D01*
X657855Y332945D01*
X657726Y332908D01*
X657707Y332899D01*
X657670Y332880D01*
X657615Y332853D01*
X657541Y332816D01*
X657457Y332760D01*
X657374Y332695D01*
X657291Y332612D01*
X657226Y332520D01*
X657217Y332510D01*
X657198Y332473D01*
X657171Y332418D01*
X657134Y332344D01*
X657106Y332261D01*
X657078Y332168D01*
X657060Y332057D01*
X657050Y331946D01*
Y331937D01*
Y331928D01*
X657060Y331872D01*
X657069Y331789D01*
X657087Y331678D01*
X657134Y331567D01*
X657189Y331438D01*
X657272Y331318D01*
X657383Y331198D01*
X657402Y331188D01*
X657448Y331151D01*
X657522Y331105D01*
X657642Y331050D01*
X657781Y330994D01*
X657966Y330948D01*
X658178Y330911D01*
X658428Y330902D01*
X660444D01*
Y333019D01*
D02*
G37*
G36*
X654674Y334332D02*
X652659D01*
Y331466D01*
X654674Y334332D01*
D02*
G37*
G36*
X403126Y282494D02*
X401009D01*
Y280590D01*
X401018Y280479D01*
X401027Y280349D01*
X401036Y280201D01*
X401055Y280054D01*
X401083Y279906D01*
X401120Y279776D01*
X401129Y279758D01*
X401147Y279721D01*
X401175Y279665D01*
X401212Y279591D01*
X401268Y279508D01*
X401332Y279425D01*
X401415Y279342D01*
X401508Y279277D01*
X401517Y279268D01*
X401554Y279249D01*
X401610Y279221D01*
X401684Y279184D01*
X401767Y279157D01*
X401859Y279129D01*
X401970Y279111D01*
X402081Y279101D01*
X402090D01*
X402100D01*
X402155Y279111D01*
X402238Y279120D01*
X402349Y279138D01*
X402460Y279184D01*
X402590Y279240D01*
X402710Y279323D01*
X402830Y279434D01*
X402839Y279453D01*
X402876Y279499D01*
X402923Y279573D01*
X402978Y279693D01*
X403033Y279832D01*
X403080Y280017D01*
X403117Y280229D01*
X403126Y280479D01*
Y282494D01*
D02*
G37*
G36*
X354283Y207140D02*
X352379D01*
X352268Y207131D01*
X352138Y207122D01*
X351991Y207113D01*
X351843Y207094D01*
X351695Y207066D01*
X351565Y207029D01*
X351547Y207020D01*
X351510Y207002D01*
X351454Y206974D01*
X351380Y206937D01*
X351297Y206882D01*
X351214Y206817D01*
X351131Y206733D01*
X351066Y206641D01*
X351057Y206632D01*
X351038Y206595D01*
X351011Y206539D01*
X350974Y206465D01*
X350946Y206382D01*
X350918Y206290D01*
X350900Y206179D01*
X350890Y206068D01*
Y206059D01*
Y206049D01*
X350900Y205994D01*
X350909Y205911D01*
X350927Y205800D01*
X350974Y205689D01*
X351029Y205559D01*
X351112Y205439D01*
X351223Y205319D01*
X351242Y205310D01*
X351288Y205273D01*
X351362Y205226D01*
X351482Y205171D01*
X351621Y205116D01*
X351806Y205069D01*
X352018Y205032D01*
X352268Y205023D01*
X354283D01*
Y207140D01*
D02*
G37*
G36*
X346915Y210173D02*
X346859D01*
X346822Y210164D01*
X346711Y210154D01*
X346582Y210127D01*
X346434Y210080D01*
X346277Y210025D01*
X346129Y209932D01*
X345981Y209812D01*
X345962Y209794D01*
X345925Y209748D01*
X345861Y209664D01*
X345796Y209563D01*
X345731Y209433D01*
X345667Y209276D01*
X345630Y209091D01*
X345611Y208897D01*
Y208888D01*
Y208869D01*
Y208841D01*
X345620Y208804D01*
X345630Y208703D01*
X345657Y208564D01*
X345704Y208426D01*
X345768Y208268D01*
X345861Y208111D01*
X345990Y207963D01*
X346009Y207945D01*
X346055Y207908D01*
X346138Y207843D01*
X346249Y207769D01*
X346388Y207704D01*
X346554Y207640D01*
X346739Y207603D01*
X346942Y207584D01*
X346998D01*
X347035Y207593D01*
X347137Y207603D01*
X347266Y207630D01*
X347414Y207677D01*
X347562Y207741D01*
X347719Y207834D01*
X347858Y207954D01*
X347876Y207972D01*
X347913Y208019D01*
X347969Y208102D01*
X348033Y208204D01*
X348107Y208342D01*
X348163Y208499D01*
X348200Y208675D01*
X348218Y208869D01*
Y208888D01*
Y208925D01*
X348209Y208989D01*
X348200Y209073D01*
X348181Y209174D01*
X348154Y209285D01*
X348117Y209396D01*
X348070Y209516D01*
X348061Y209526D01*
X348043Y209572D01*
X348006Y209627D01*
X347950Y209692D01*
X347886Y209775D01*
X347802Y209858D01*
X347710Y209932D01*
X347599Y210007D01*
X347580Y210016D01*
X347543Y210034D01*
X347479Y210062D01*
X347396Y210090D01*
X347294Y210117D01*
X347174Y210145D01*
X347044Y210164D01*
X346915Y210173D01*
D02*
G37*
G36*
Y206946D02*
X346896D01*
X346841Y206937D01*
X346758Y206928D01*
X346647Y206909D01*
X346526Y206872D01*
X346406Y206826D01*
X346277Y206752D01*
X346166Y206660D01*
X346157Y206650D01*
X346120Y206604D01*
X346073Y206549D01*
X346018Y206465D01*
X345962Y206364D01*
X345916Y206243D01*
X345879Y206105D01*
X345870Y205957D01*
Y205948D01*
Y205938D01*
Y205883D01*
X345888Y205800D01*
X345907Y205698D01*
X345944Y205587D01*
X345999Y205467D01*
X346073Y205347D01*
X346175Y205226D01*
X346184Y205217D01*
X346231Y205180D01*
X346295Y205134D01*
X346379Y205079D01*
X346489Y205023D01*
X346610Y204977D01*
X346758Y204940D01*
X346915Y204931D01*
X346989D01*
X347072Y204949D01*
X347183Y204968D01*
X347303Y205005D01*
X347433Y205051D01*
X347553Y205125D01*
X347673Y205226D01*
X347682Y205236D01*
X347719Y205273D01*
X347765Y205337D01*
X347812Y205421D01*
X347867Y205522D01*
X347913Y205643D01*
X347950Y205772D01*
X347960Y205920D01*
Y205929D01*
Y205938D01*
X347950Y205994D01*
X347941Y206077D01*
X347923Y206179D01*
X347886Y206299D01*
X347839Y206419D01*
X347765Y206549D01*
X347673Y206660D01*
X347664Y206669D01*
X347617Y206706D01*
X347553Y206752D01*
X347469Y206798D01*
X347359Y206854D01*
X347229Y206900D01*
X347081Y206937D01*
X346915Y206946D01*
D02*
G37*
G36*
X402317Y218419D02*
X400199D01*
Y216515D01*
X400209Y216404D01*
X400218Y216274D01*
X400227Y216126D01*
X400246Y215979D01*
X400273Y215831D01*
X400310Y215701D01*
X400320Y215683D01*
X400338Y215646D01*
X400366Y215590D01*
X400403Y215516D01*
X400458Y215433D01*
X400523Y215350D01*
X400606Y215267D01*
X400699Y215202D01*
X400708Y215193D01*
X400745Y215174D01*
X400800Y215146D01*
X400874Y215109D01*
X400958Y215082D01*
X401050Y215054D01*
X401161Y215035D01*
X401272Y215026D01*
X401281D01*
X401290D01*
X401346Y215035D01*
X401429Y215045D01*
X401540Y215063D01*
X401651Y215109D01*
X401780Y215165D01*
X401901Y215248D01*
X402021Y215359D01*
X402030Y215378D01*
X402067Y215424D01*
X402113Y215498D01*
X402169Y215618D01*
X402224Y215757D01*
X402270Y215942D01*
X402307Y216154D01*
X402317Y216404D01*
Y218419D01*
D02*
G37*
G36*
X438130Y340179D02*
X436115D01*
Y338061D01*
X438019D01*
X438130Y338071D01*
X438260Y338080D01*
X438408Y338089D01*
X438556Y338108D01*
X438703Y338135D01*
X438833Y338172D01*
X438852Y338182D01*
X438889Y338200D01*
X438944Y338228D01*
X439018Y338265D01*
X439101Y338320D01*
X439184Y338385D01*
X439268Y338468D01*
X439332Y338561D01*
X439342Y338570D01*
X439360Y338607D01*
X439388Y338662D01*
X439425Y338736D01*
X439452Y338820D01*
X439480Y338912D01*
X439499Y339023D01*
X439508Y339134D01*
Y339143D01*
Y339152D01*
X439499Y339208D01*
X439489Y339291D01*
X439471Y339402D01*
X439425Y339513D01*
X439369Y339642D01*
X439286Y339763D01*
X439175Y339883D01*
X439157Y339892D01*
X439110Y339929D01*
X439036Y339975D01*
X438916Y340031D01*
X438778Y340086D01*
X438593Y340132D01*
X438380Y340169D01*
X438130Y340179D01*
D02*
G37*
G36*
X307455Y324456D02*
X305439D01*
Y322339D01*
X307344D01*
X307455Y322348D01*
X307584Y322357D01*
X307732Y322366D01*
X307880Y322385D01*
X308028Y322413D01*
X308157Y322450D01*
X308176Y322459D01*
X308213Y322477D01*
X308268Y322505D01*
X308342Y322542D01*
X308426Y322598D01*
X308509Y322662D01*
X308592Y322746D01*
X308657Y322838D01*
X308666Y322847D01*
X308684Y322884D01*
X308712Y322940D01*
X308749Y323014D01*
X308777Y323097D01*
X308804Y323189D01*
X308823Y323300D01*
X308832Y323411D01*
Y323420D01*
Y323430D01*
X308823Y323485D01*
X308814Y323568D01*
X308795Y323679D01*
X308749Y323790D01*
X308694Y323920D01*
X308610Y324040D01*
X308499Y324160D01*
X308481Y324169D01*
X308435Y324206D01*
X308361Y324253D01*
X308241Y324308D01*
X308102Y324364D01*
X307917Y324410D01*
X307704Y324447D01*
X307455Y324456D01*
D02*
G37*
%LPD*%
D11*
X68485Y389966D02*
X153485D01*
X68485D02*
Y444966D01*
X153485D01*
Y389966D02*
Y444966D01*
X55600Y345327D02*
Y430326D01*
X600Y345327D02*
X55600D01*
X600D02*
Y430326D01*
X55600D01*
X91381Y194229D02*
Y219791D01*
X48319D02*
X91381D01*
X48319Y194229D02*
Y219791D01*
Y194229D02*
X91381D01*
X141223Y260208D02*
Y285770D01*
X98161D02*
X141223D01*
X98161Y260208D02*
Y285770D01*
Y260208D02*
X141223D01*
X47224Y127120D02*
Y161120D01*
Y127120D02*
X87931D01*
Y161120D01*
X47224D02*
X87931D01*
X111819Y112949D02*
Y138511D01*
Y112949D02*
X154881D01*
Y138511D01*
X111819D02*
X154881D01*
X95169Y45779D02*
X120731D01*
Y88841D01*
X95169D02*
X120731D01*
X95169Y45779D02*
Y88841D01*
X128829Y92030D02*
X142951D01*
X128829Y62909D02*
Y92030D01*
Y62909D02*
X142951D01*
Y92030D01*
X443690Y115190D02*
Y131190D01*
X416607D02*
X443690D01*
X416607Y115190D02*
Y131190D01*
Y115190D02*
X443690D01*
X642240Y124270D02*
X658240D01*
X642240D02*
Y132270D01*
X658240D01*
Y124270D02*
Y132270D01*
X249700Y189090D02*
X347200D01*
Y108090D02*
Y189090D01*
X249700Y108090D02*
X347200D01*
X249700D02*
Y189090D01*
X489877Y346200D02*
X527535D01*
Y325579D02*
Y346200D01*
X489877Y325579D02*
X527535D01*
X489877D02*
Y346200D01*
X584955Y117959D02*
X622613D01*
X584955D02*
Y138581D01*
X622613D01*
Y117959D02*
Y138581D01*
X563781Y324880D02*
X601439D01*
X563781D02*
Y345502D01*
X601439D01*
Y324880D02*
Y345502D01*
X642465Y326277D02*
X680123D01*
X642465D02*
Y346898D01*
X680123D01*
Y326277D02*
Y346898D01*
X175453Y251842D02*
Y332842D01*
Y251842D02*
X272954D01*
Y332842D01*
X175453D02*
X272954D01*
X390019Y297674D02*
X404640D01*
X390019Y269016D02*
Y297674D01*
Y269016D02*
X404640D01*
Y297674D01*
X369463Y203509D02*
Y218131D01*
X340805D02*
X369463D01*
X340805Y203509D02*
Y218131D01*
Y203509D02*
X369463D01*
X389320Y233599D02*
X403941D01*
X389320Y204941D02*
Y233599D01*
Y204941D02*
X403941D01*
Y233599D01*
X416436Y324182D02*
Y344804D01*
Y324182D02*
X454094D01*
Y344804D01*
X416436D02*
X454094D01*
X297226Y315020D02*
Y322520D01*
Y315020D02*
X311951D01*
Y322520D01*
X297226D02*
X311951D01*
M02*
