G04*
G04 #@! TF.GenerationSoftware,Altium Limited,Altium Designer,24.1.2 (44)*
G04*
G04 Layer_Color=16711935*
%FSLAX44Y44*%
%MOMM*%
G71*
G04*
G04 #@! TF.SameCoordinates,5DE7BCAC-930E-4ACC-850D-064FDCF0EFED*
G04*
G04*
G04 #@! TF.FilePolarity,Positive*
G04*
G01*
G75*
%ADD11C,0.2000*%
%ADD12C,0.1270*%
%ADD71C,0.1000*%
D11*
X38590Y104140D02*
G03*
X38590Y104140I-1000J0D01*
G01*
X82700Y60310D02*
G03*
X82700Y60310I-1000J0D01*
G01*
X77485Y402966D02*
X144485D01*
X77485D02*
Y443966D01*
X144485D01*
Y402966D02*
Y443966D01*
X42600Y354326D02*
Y421327D01*
X1600Y354326D02*
X42600D01*
X1600D02*
Y421327D01*
X42600D01*
X79850Y200760D02*
Y213260D01*
X59850D02*
X79850D01*
X59850Y200760D02*
Y213260D01*
Y200760D02*
X79850D01*
X129692Y266739D02*
Y279239D01*
X109692D02*
X129692D01*
X109692Y266739D02*
Y279239D01*
Y266739D02*
X129692D01*
X59578Y129620D02*
Y158621D01*
Y129620D02*
X75578D01*
Y158621D01*
X59578D02*
X75578D01*
X123350Y119480D02*
Y131980D01*
Y119480D02*
X143350D01*
Y131980D01*
X123350D02*
X143350D01*
X101700Y57310D02*
X114200D01*
Y77310D01*
X101700D02*
X114200D01*
X101700Y57310D02*
Y77310D01*
X131890Y85470D02*
X139890D01*
X131890Y69469D02*
Y85470D01*
Y69469D02*
X139890D01*
Y85470D01*
X440149Y116940D02*
Y129440D01*
X420149D02*
X440149D01*
X420149Y116940D02*
Y129440D01*
Y116940D02*
X440149D01*
X644990Y125520D02*
X655490D01*
X644990D02*
Y131020D01*
X655490D01*
Y125520D02*
Y131020D01*
X259450Y188090D02*
X337450D01*
Y109090D02*
Y188090D01*
X259450Y109090D02*
X337450D01*
X259450D02*
Y188090D01*
X500956Y340140D02*
X516456D01*
Y331640D02*
Y340140D01*
X500956Y331640D02*
X516456D01*
X500956D02*
Y340140D01*
X596034Y124020D02*
X611534D01*
X596034D02*
Y132520D01*
X611534D01*
Y124020D02*
Y132520D01*
X574860Y330941D02*
X590360D01*
X574860D02*
Y339441D01*
X590360D01*
Y330941D02*
Y339441D01*
X653544Y332338D02*
X669044D01*
X653544D02*
Y340838D01*
X669044D01*
Y332338D02*
Y340838D01*
X185204Y252842D02*
Y331842D01*
Y252842D02*
X263204D01*
Y331842D01*
X185204D02*
X263204D01*
X393079Y291095D02*
X401579D01*
X393079Y275595D02*
Y291095D01*
Y275595D02*
X401579D01*
Y291095D01*
X362884Y206570D02*
Y215070D01*
X347384D02*
X362884D01*
X347384Y206570D02*
Y215070D01*
Y206570D02*
X362884D01*
X392381Y227020D02*
X400881D01*
X392381Y211520D02*
Y227020D01*
Y211520D02*
X400881D01*
Y227020D01*
X427514Y330243D02*
Y338742D01*
Y330243D02*
X443015D01*
Y338742D01*
X427514D02*
X443015D01*
X299589Y316270D02*
Y321270D01*
Y316270D02*
X309589D01*
Y321270D01*
X299589D02*
X309589D01*
D12*
X31590Y97890D02*
Y110390D01*
X11590D02*
X31590D01*
X11590Y97890D02*
Y110390D01*
Y97890D02*
X31590D01*
X21100Y-51690D02*
Y9310D01*
X8200D02*
X21100D01*
X8200Y85310D02*
X21100D01*
X8200Y9310D02*
Y85310D01*
X21100D02*
X66200D01*
X21100Y9310D02*
Y85310D01*
Y9310D02*
X66200D01*
Y85310D01*
X419520Y153610D02*
Y313610D01*
X659520D01*
Y153610D02*
Y313610D01*
X419520Y153610D02*
X659520D01*
D71*
X368589Y293988D02*
G03*
X329913Y293985I-19339J13352D01*
G01*
X372399Y231758D02*
G03*
X333723Y231755I-19339J13352D01*
G01*
X123740Y154460D02*
X160740D01*
X123740Y221460D02*
X160740D01*
Y154460D02*
Y221460D01*
X123740Y154460D02*
Y221460D01*
X12300Y159090D02*
X25800D01*
X12300Y138090D02*
X25800D01*
Y159090D01*
X12300Y138090D02*
Y159090D01*
X522810Y112130D02*
Y126630D01*
X500810Y112130D02*
Y126630D01*
Y112130D02*
X522810D01*
X500810Y126630D02*
X522810D01*
X255950Y216550D02*
X277450D01*
X255950Y202550D02*
X277450D01*
X255950D02*
Y216550D01*
X277450Y202550D02*
Y216550D01*
X171005Y355168D02*
X694006D01*
Y447168D01*
X171005D02*
X694006D01*
X171005Y355168D02*
Y447168D01*
X170336Y96648D02*
X693337D01*
X170336Y4648D02*
Y96648D01*
Y4648D02*
X693337D01*
Y96648D01*
X329913Y293990D02*
X368587D01*
X333723Y231760D02*
X372397D01*
M02*
