G04*
G04 #@! TF.GenerationSoftware,Altium Limited,Altium Designer,24.1.2 (44)*
G04*
G04 Layer_Color=255*
%FSLAX44Y44*%
%MOMM*%
G71*
G04*
G04 #@! TF.SameCoordinates,5DE7BCAC-930E-4ACC-850D-064FDCF0EFED*
G04*
G04*
G04 #@! TF.FilePolarity,Positive*
G04*
G01*
G75*
%ADD55C,0.9000*%
%ADD59R,1.5500X1.5500*%
%ADD60C,1.5500*%
%ADD64C,0.5000*%
%ADD65C,2.1000*%
G04:AMPARAMS|DCode=66|XSize=2.1mm|YSize=2.1mm|CornerRadius=0.525mm|HoleSize=0mm|Usage=FLASHONLY|Rotation=180.000|XOffset=0mm|YOffset=0mm|HoleType=Round|Shape=RoundedRectangle|*
%AMROUNDEDRECTD66*
21,1,2.1000,1.0500,0,0,180.0*
21,1,1.0500,2.1000,0,0,180.0*
1,1,1.0500,-0.5250,0.5250*
1,1,1.0500,0.5250,0.5250*
1,1,1.0500,0.5250,-0.5250*
1,1,1.0500,-0.5250,-0.5250*
%
%ADD66ROUNDEDRECTD66*%
%ADD67R,1.0500X1.0500*%
%ADD68C,1.0500*%
D55*
X125985Y415966D02*
D03*
X95985D02*
D03*
X29600Y402827D02*
D03*
Y372826D02*
D03*
D59*
X258450Y178590D02*
D03*
X184204Y322342D02*
D03*
D60*
X338450Y178590D02*
D03*
X258450Y118590D02*
D03*
X338450D02*
D03*
X264204Y262342D02*
D03*
X184204D02*
D03*
X264204Y322342D02*
D03*
D64*
X59600Y27310D02*
D03*
Y67310D02*
D03*
D65*
X242006Y367168D02*
D03*
X280106D02*
D03*
X356306D02*
D03*
X432506D02*
D03*
X508706D02*
D03*
X546806D02*
D03*
X584906D02*
D03*
X470606D02*
D03*
X394406D02*
D03*
X318206D02*
D03*
X622337Y84648D02*
D03*
X584237D02*
D03*
X508037D02*
D03*
X431837D02*
D03*
X355637D02*
D03*
X317537D02*
D03*
X279437D02*
D03*
X393737D02*
D03*
X469937D02*
D03*
X546137D02*
D03*
D66*
X623006Y367168D02*
D03*
X241337Y84648D02*
D03*
D67*
X336550Y307340D02*
D03*
X340360Y245110D02*
D03*
D68*
X349250Y307340D02*
D03*
X361950D02*
D03*
X353060Y245110D02*
D03*
X365760D02*
D03*
M02*
