G04*
G04 #@! TF.GenerationSoftware,Altium Limited,Altium Designer,24.1.2 (44)*
G04*
G04 Layer_Color=128*
%FSLAX44Y44*%
%MOMM*%
G71*
G04*
G04 #@! TF.SameCoordinates,5DE7BCAC-930E-4ACC-850D-064FDCF0EFED*
G04*
G04*
G04 #@! TF.FilePolarity,Positive*
G04*
G01*
G75*
%ADD12C,0.1270*%
D12*
X121485Y415966D02*
X130485D01*
X125985Y411466D02*
Y420466D01*
X91485Y415966D02*
X100485D01*
X95985Y411466D02*
Y420466D01*
X25100Y402827D02*
X34100D01*
X29600Y398327D02*
Y407327D01*
X25100Y372826D02*
X34100D01*
X29600Y368326D02*
Y377326D01*
X57100Y27310D02*
X62100D01*
X59600Y24810D02*
Y29810D01*
X57100Y67310D02*
X62100D01*
X59600Y64810D02*
Y69810D01*
X235006Y367168D02*
X249006D01*
X242006Y360168D02*
Y374168D01*
X273106Y367168D02*
X287106D01*
X280106Y360168D02*
Y374168D01*
X349306Y367168D02*
X363306D01*
X356306Y360168D02*
Y374168D01*
X425506Y367168D02*
X439506D01*
X432506Y360168D02*
Y374168D01*
X501706Y367168D02*
X515706D01*
X508706Y360168D02*
Y374168D01*
X539806Y367168D02*
X553806D01*
X546806Y360168D02*
Y374168D01*
X577906Y367168D02*
X591906D01*
X584906Y360168D02*
Y374168D01*
X616006Y367168D02*
X630006D01*
X623006Y360168D02*
Y374168D01*
X463606Y367168D02*
X477606D01*
X470606Y360168D02*
Y374168D01*
X387406Y367168D02*
X401406D01*
X394406Y360168D02*
Y374168D01*
X311206Y367168D02*
X325206D01*
X318206Y360168D02*
Y374168D01*
X615337Y84648D02*
X629337D01*
X622337Y77648D02*
Y91648D01*
X577237Y84648D02*
X591237D01*
X584237Y77648D02*
Y91648D01*
X501037Y84648D02*
X515037D01*
X508037Y77648D02*
Y91648D01*
X424837Y84648D02*
X438837D01*
X431837Y77648D02*
Y91648D01*
X348637Y84648D02*
X362637D01*
X355637Y77648D02*
Y91648D01*
X310537Y84648D02*
X324537D01*
X317537Y77648D02*
Y91648D01*
X272437Y84648D02*
X286437D01*
X279437Y77648D02*
Y91648D01*
X234337Y84648D02*
X248337D01*
X241337Y77648D02*
Y91648D01*
X386737Y84648D02*
X400737D01*
X393737Y77648D02*
Y91648D01*
X462937Y84648D02*
X476937D01*
X469937Y77648D02*
Y91648D01*
X539137Y84648D02*
X553137D01*
X546137Y77648D02*
Y91648D01*
X253450Y178590D02*
X263450D01*
X258450Y173590D02*
Y183590D01*
X333450Y178590D02*
X343450D01*
X338450Y173590D02*
Y183590D01*
X253450Y118590D02*
X263450D01*
X258450Y113590D02*
Y123590D01*
X333450Y118590D02*
X343450D01*
X338450Y113590D02*
Y123590D01*
X259204Y262342D02*
X269204D01*
X264204Y257342D02*
Y267342D01*
X179204Y262342D02*
X189204D01*
X184204Y257342D02*
Y267342D01*
X259204Y322342D02*
X269204D01*
X264204Y317342D02*
Y327342D01*
X179204Y322342D02*
X189204D01*
X184204Y317342D02*
Y327342D01*
X332550Y307340D02*
X340550D01*
X336550Y303340D02*
Y311340D01*
X345250Y307340D02*
X353250D01*
X349250Y303340D02*
Y311340D01*
X357950Y307340D02*
X365950D01*
X361950Y303340D02*
Y311340D01*
X336360Y245110D02*
X344360D01*
X340360Y241110D02*
Y249110D01*
X349060Y245110D02*
X357060D01*
X353060Y241110D02*
Y249110D01*
X361760Y245110D02*
X369760D01*
X365760Y241110D02*
Y249110D01*
X520964Y253814D02*
X528076D01*
X524520Y250258D02*
Y257370D01*
X538988Y386334D02*
X546100D01*
X542544Y382778D02*
Y389890D01*
X581152Y276098D02*
X588264D01*
X584708Y272542D02*
Y279654D01*
X125394Y247396D02*
X132506D01*
X128950Y243840D02*
Y250952D01*
X460248Y123190D02*
X467360D01*
X463804Y119634D02*
Y126746D01*
X499110Y136144D02*
X506222D01*
X502666Y132588D02*
Y139700D01*
X102362Y227330D02*
X109474D01*
X105918Y223774D02*
Y230886D01*
X46990Y322326D02*
X54102D01*
X50546Y318770D02*
Y325882D01*
X266954Y154178D02*
X274066D01*
X270510Y150622D02*
Y157734D01*
X56388Y105918D02*
X63500D01*
X59944Y102362D02*
Y109474D01*
X68326Y190500D02*
X75438D01*
X71882Y186944D02*
Y194056D01*
X623062Y129794D02*
X630174D01*
X626618Y126238D02*
Y133350D01*
X371348Y210820D02*
X378460D01*
X374904Y207264D02*
Y214376D01*
M02*
