G04*
G04 #@! TF.GenerationSoftware,Altium Limited,Altium Designer,24.1.2 (44)*
G04*
G04 Layer_Color=2752767*
%FSLAX44Y44*%
%MOMM*%
G71*
G04*
G04 #@! TF.SameCoordinates,5DE7BCAC-930E-4ACC-850D-064FDCF0EFED*
G04*
G04*
G04 #@! TF.FilePolarity,Positive*
G04*
G01*
G75*
%ADD12C,0.1270*%
%ADD73C,0.1693*%
D12*
X54520Y22230D02*
X57060Y27310D01*
X54520Y32390D01*
X59600Y29850D01*
X64680Y32390D01*
X62140Y27310D01*
X64680Y22230D01*
X59600Y24770D01*
X54520Y22230D01*
Y62230D02*
X57060Y67310D01*
X54520Y72390D01*
X59600Y69850D01*
X64680Y72390D01*
X62140Y67310D01*
X64680Y62230D01*
X59600Y64770D01*
X54520Y62230D01*
X236926Y362088D02*
Y372248D01*
X247086D01*
Y362088D01*
X236926D01*
X275026D02*
Y372248D01*
X285186D01*
Y362088D01*
X275026D01*
X351226D02*
Y372248D01*
X361386D01*
Y362088D01*
X351226D01*
X427426D02*
Y372248D01*
X437586D01*
Y362088D01*
X427426D01*
X503626D02*
Y372248D01*
X513786D01*
Y362088D01*
X503626D01*
X541726D02*
Y372248D01*
X551886D01*
Y362088D01*
X541726D01*
X579826D02*
Y372248D01*
X589986D01*
Y362088D01*
X579826D01*
X617926D02*
Y372248D01*
X628086D01*
Y362088D01*
X617926D01*
X465526D02*
Y372248D01*
X475686D01*
Y362088D01*
X465526D01*
X389326D02*
Y372248D01*
X399486D01*
Y362088D01*
X389326D01*
X313126D02*
Y372248D01*
X323286D01*
Y362088D01*
X313126D01*
X617257Y79567D02*
Y89727D01*
X627417D01*
Y79567D01*
X617257D01*
X579157D02*
Y89727D01*
X589317D01*
Y79567D01*
X579157D01*
X502957D02*
Y89727D01*
X513117D01*
Y79567D01*
X502957D01*
X426757D02*
Y89727D01*
X436917D01*
Y79567D01*
X426757D01*
X350557D02*
Y89727D01*
X360717D01*
Y79567D01*
X350557D01*
X312457D02*
Y89727D01*
X322617D01*
Y79567D01*
X312457D01*
X274357D02*
Y89727D01*
X284517D01*
Y79567D01*
X274357D01*
X236257D02*
Y89727D01*
X246417D01*
Y79567D01*
X236257D01*
X388657D02*
Y89727D01*
X398817D01*
Y79567D01*
X388657D01*
X464857D02*
Y89727D01*
X475017D01*
Y79567D01*
X464857D01*
X541057D02*
Y89727D01*
X551217D01*
Y79567D01*
X541057D01*
X258450Y173510D02*
X260990Y176050D01*
X263530D01*
X260990Y178590D01*
X263530Y181130D01*
X260990D01*
X258450Y183670D01*
X255910Y181130D01*
X253370D01*
X255910Y178590D01*
X253370Y176050D01*
X255910D01*
X258450Y173510D01*
X338450D02*
X340990Y176050D01*
X343530D01*
X340990Y178590D01*
X343530Y181130D01*
X340990D01*
X338450Y183670D01*
X335910Y181130D01*
X333370D01*
X335910Y178590D01*
X333370Y176050D01*
X335910D01*
X338450Y173510D01*
X258450Y113510D02*
X260990Y116050D01*
X263530D01*
X260990Y118590D01*
X263530Y121130D01*
X260990D01*
X258450Y123670D01*
X255910Y121130D01*
X253370D01*
X255910Y118590D01*
X253370Y116050D01*
X255910D01*
X258450Y113510D01*
X338450D02*
X340990Y116050D01*
X343530D01*
X340990Y118590D01*
X343530Y121130D01*
X340990D01*
X338450Y123670D01*
X335910Y121130D01*
X333370D01*
X335910Y118590D01*
X333370Y116050D01*
X335910D01*
X338450Y113510D01*
X264204Y257262D02*
X266744Y259802D01*
X269284D01*
X266744Y262342D01*
X269284Y264882D01*
X266744D01*
X264204Y267422D01*
X261664Y264882D01*
X259124D01*
X261664Y262342D01*
X259124Y259802D01*
X261664D01*
X264204Y257262D01*
X184204D02*
X186744Y259802D01*
X189284D01*
X186744Y262342D01*
X189284Y264882D01*
X186744D01*
X184204Y267422D01*
X181664Y264882D01*
X179124D01*
X181664Y262342D01*
X179124Y259802D01*
X181664D01*
X184204Y257262D01*
X264204Y317262D02*
X266744Y319802D01*
X269284D01*
X266744Y322342D01*
X269284Y324882D01*
X266744D01*
X264204Y327422D01*
X261664Y324882D01*
X259124D01*
X261664Y322342D01*
X259124Y319802D01*
X261664D01*
X264204Y317262D01*
X184204D02*
X186744Y319802D01*
X189284D01*
X186744Y322342D01*
X189284Y324882D01*
X186744D01*
X184204Y327422D01*
X181664Y324882D01*
X179124D01*
X181664Y322342D01*
X179124Y319802D01*
X181664D01*
X184204Y317262D01*
X336550Y302260D02*
X331470Y312420D01*
X341630D01*
X336550Y302260D01*
X349250D02*
X344170Y312420D01*
X354330D01*
X349250Y302260D01*
X361950D02*
X356870Y312420D01*
X367030D01*
X361950Y302260D01*
X340360Y240030D02*
X335280Y250190D01*
X345440D01*
X340360Y240030D01*
X353060D02*
X347980Y250190D01*
X358140D01*
X353060Y240030D01*
X365760D02*
X360680Y250190D01*
X370840D01*
X365760Y240030D01*
X521980Y251274D02*
Y248734D01*
X527060D01*
Y251274D01*
X529600D01*
Y256354D01*
X527060D01*
Y258894D01*
X521980D01*
Y256354D01*
X519440D01*
Y251274D01*
X521980D01*
X540004Y383794D02*
Y381254D01*
X545084D01*
Y383794D01*
X547624D01*
Y388874D01*
X545084D01*
Y391414D01*
X540004D01*
Y388874D01*
X537464D01*
Y383794D01*
X540004D01*
X582168Y273558D02*
Y271018D01*
X587248D01*
Y273558D01*
X589788D01*
Y278638D01*
X587248D01*
Y281178D01*
X582168D01*
Y278638D01*
X579628D01*
Y273558D01*
X582168D01*
X126410Y244856D02*
Y242316D01*
X131490D01*
Y244856D01*
X134030D01*
Y249936D01*
X131490D01*
Y252476D01*
X126410D01*
Y249936D01*
X123870D01*
Y244856D01*
X126410D01*
X461264Y120650D02*
Y118110D01*
X466344D01*
Y120650D01*
X468884D01*
Y125730D01*
X466344D01*
Y128270D01*
X461264D01*
Y125730D01*
X458724D01*
Y120650D01*
X461264D01*
X500126Y133604D02*
Y131064D01*
X505206D01*
Y133604D01*
X507746D01*
Y138684D01*
X505206D01*
Y141224D01*
X500126D01*
Y138684D01*
X497586D01*
Y133604D01*
X500126D01*
X103378Y224790D02*
Y222250D01*
X108458D01*
Y224790D01*
X110998D01*
Y229870D01*
X108458D01*
Y232410D01*
X103378D01*
Y229870D01*
X100838D01*
Y224790D01*
X103378D01*
X48006Y319786D02*
Y317246D01*
X53086D01*
Y319786D01*
X55626D01*
Y324866D01*
X53086D01*
Y327406D01*
X48006D01*
Y324866D01*
X45466D01*
Y319786D01*
X48006D01*
X267970Y151638D02*
Y149098D01*
X273050D01*
Y151638D01*
X275590D01*
Y156718D01*
X273050D01*
Y159258D01*
X267970D01*
Y156718D01*
X265430D01*
Y151638D01*
X267970D01*
X57404Y103378D02*
Y100838D01*
X62484D01*
Y103378D01*
X65024D01*
Y108458D01*
X62484D01*
Y110998D01*
X57404D01*
Y108458D01*
X54864D01*
Y103378D01*
X57404D01*
X69342Y187960D02*
Y185420D01*
X74422D01*
Y187960D01*
X76962D01*
Y193040D01*
X74422D01*
Y195580D01*
X69342D01*
Y193040D01*
X66802D01*
Y187960D01*
X69342D01*
X624078Y127254D02*
Y124714D01*
X629158D01*
Y127254D01*
X631698D01*
Y132334D01*
X629158D01*
Y134874D01*
X624078D01*
Y132334D01*
X621538D01*
Y127254D01*
X624078D01*
X372364Y208280D02*
Y205740D01*
X377444D01*
Y208280D01*
X379984D01*
Y213360D01*
X377444D01*
Y215900D01*
X372364D01*
Y213360D01*
X369824D01*
Y208280D01*
X372364D01*
D73*
X131065Y415966D02*
G03*
X131065Y415966I-5080J0D01*
G01*
X101065D02*
G03*
X101065Y415966I-5080J0D01*
G01*
X34680Y402827D02*
G03*
X34680Y402827I-5080J0D01*
G01*
Y372826D02*
G03*
X34680Y372826I-5080J0D01*
G01*
M02*
