G04*
G04 #@! TF.GenerationSoftware,Altium Limited,Altium Designer,24.1.2 (44)*
G04*
G04 Layer_Color=65535*
%FSLAX44Y44*%
%MOMM*%
G71*
G04*
G04 #@! TF.SameCoordinates,5DE7BCAC-930E-4ACC-850D-064FDCF0EFED*
G04*
G04*
G04 #@! TF.FilePolarity,Positive*
G04*
G01*
G75*
%ADD10C,0.2500*%
%ADD11C,0.2000*%
%ADD12C,0.1270*%
%ADD13C,0.2540*%
D10*
X134735Y385215D02*
G03*
X134735Y385215I-1250J0D01*
G01*
X61600Y410326D02*
G03*
X61600Y410326I-1250J0D01*
G01*
X55530Y251340D02*
G03*
X55530Y251340I-1250J0D01*
G01*
X112990Y221460D02*
G03*
X112990Y221460I-1250J0D01*
G01*
X45974Y153620D02*
G03*
X45974Y153620I-1250J0D01*
G01*
X246200Y178590D02*
G03*
X246200Y178590I-1250J0D01*
G01*
X171954Y322342D02*
G03*
X171954Y322342I-1250J0D01*
G01*
X321000Y307340D02*
G03*
X321000Y307340I-1250J0D01*
G01*
X324810Y245110D02*
G03*
X324810Y245110I-1250J0D01*
G01*
D11*
X38590Y104140D02*
G03*
X38590Y104140I-1000J0D01*
G01*
X82700Y60310D02*
G03*
X82700Y60310I-1000J0D01*
G01*
X368589Y293988D02*
G03*
X329913Y293985I-19339J13352D01*
G01*
X372399Y231758D02*
G03*
X333723Y231755I-19339J13352D01*
G01*
X110735Y402966D02*
X126235D01*
X95735D02*
X96235D01*
X77485Y433366D02*
Y443966D01*
Y414066D02*
Y417866D01*
Y443966D02*
X144485D01*
Y433366D02*
Y443966D01*
Y414066D02*
Y417866D01*
X42600Y387577D02*
Y403077D01*
Y372576D02*
Y373077D01*
X1600Y354326D02*
X12200D01*
X27700D02*
X31500D01*
X1600D02*
Y421327D01*
X12200D01*
X27700D02*
X31500D01*
X9780Y236840D02*
Y299340D01*
X14780D01*
X43280D02*
X48280D01*
X43280Y236840D02*
X48280D01*
X9780D02*
X14780D01*
X48280Y281840D02*
Y299340D01*
Y236840D02*
Y254340D01*
X53319Y195229D02*
X86381D01*
X53319Y218791D02*
X86381D01*
X103161Y261208D02*
X136223D01*
X103161Y284770D02*
X136223D01*
X127240Y154460D02*
X157240D01*
X127240Y221460D02*
X157240D01*
Y154460D02*
Y221460D01*
X127240Y154460D02*
Y221460D01*
X24300Y147590D02*
Y149590D01*
X13800Y147590D02*
Y149590D01*
X68107Y129620D02*
Y158621D01*
X67048Y129620D02*
X68107D01*
X67048D02*
Y158621D01*
X68107D01*
X116819Y137511D02*
X149881D01*
X116819Y113949D02*
X149881D01*
X96169Y50779D02*
Y83841D01*
X119731Y50779D02*
Y83841D01*
X144451Y65409D02*
Y89530D01*
X127329Y65409D02*
Y89530D01*
X429423Y129440D02*
X430874D01*
X429423Y116940D02*
X430874D01*
X171005Y355168D02*
Y447168D01*
Y355168D02*
X235905D01*
X248106D02*
X274006D01*
X324306D02*
X350205D01*
X362406D02*
X388306D01*
X400506D02*
X426405D01*
X476706D02*
X502606D01*
X514806D02*
X540705D01*
X552906D02*
X578806D01*
X591006D02*
X609506D01*
X636506D02*
X694006D01*
Y447168D01*
X171005D02*
X694006D01*
X438606Y355168D02*
X464506D01*
X286206D02*
X312106D01*
X693337Y4648D02*
Y96648D01*
X628437D02*
X693337D01*
X590337D02*
X616236D01*
X514137D02*
X540037D01*
X476037D02*
X501936D01*
X437937D02*
X463837D01*
X361737D02*
X387636D01*
X323637D02*
X349537D01*
X285537D02*
X311437D01*
X254837D02*
X273337D01*
X170336D02*
X227836D01*
X170336Y4648D02*
Y96648D01*
Y4648D02*
X693337D01*
X399837Y96648D02*
X425737D01*
X552237D02*
X578136D01*
X645240Y121920D02*
X655240D01*
X645240Y134620D02*
X655240D01*
X269950Y188090D02*
X326950D01*
X337450Y130090D02*
Y167090D01*
X269950Y109090D02*
X326950D01*
X259450Y130090D02*
Y167090D01*
X501205Y345390D02*
X516206D01*
X501205Y326390D02*
X516206D01*
X596284Y118770D02*
X611284D01*
X596284Y137770D02*
X611284D01*
X575110Y325691D02*
X590110D01*
X575110Y344691D02*
X590110D01*
X653794Y327088D02*
X668794D01*
X653794Y346088D02*
X668794D01*
X185204Y273842D02*
Y310842D01*
X195704Y252842D02*
X252704D01*
X263204Y273842D02*
Y310842D01*
X195704Y331842D02*
X252704D01*
X387829Y275845D02*
Y290845D01*
X406329Y275845D02*
Y290845D01*
X347634Y220320D02*
X362634D01*
X347634Y201820D02*
X362634D01*
X387131Y211770D02*
Y226770D01*
X405631Y211770D02*
Y226770D01*
X427764Y324992D02*
X442765D01*
X427764Y343993D02*
X442765D01*
X329913Y293990D02*
X368587D01*
X333723Y231760D02*
X372397D01*
X298227Y325520D02*
X310951D01*
X298227Y312020D02*
X310951D01*
D12*
X498270Y141110D02*
G03*
X498270Y141110I-2500J0D01*
G01*
X20290Y97890D02*
X22890D01*
X20290Y110390D02*
X22890D01*
X21100Y9310D02*
Y85310D01*
X28400D01*
X21100Y9310D02*
X28400D01*
X497120Y173610D02*
Y293610D01*
X647120D01*
Y173610D02*
Y293610D01*
X497120Y173610D02*
X647120D01*
X419520Y153610D02*
X494520D01*
X419520D02*
Y313610D01*
X494520D01*
X654520Y153610D02*
X659520D01*
Y173610D01*
X654520Y313610D02*
X659520D01*
Y293610D02*
Y313610D01*
D13*
X562967Y134115D02*
X572963D01*
Y129117D01*
X571297Y127451D01*
X567965D01*
X566299Y129117D01*
Y134115D01*
Y130783D02*
X562967Y127451D01*
X564633Y124118D02*
X562967Y122452D01*
Y119120D01*
X564633Y117454D01*
X571297D01*
X572963Y119120D01*
Y122452D01*
X571297Y124118D01*
X569631D01*
X567965Y122452D01*
Y117454D01*
X102676Y373080D02*
X101010Y374746D01*
X97678D01*
X96012Y373080D01*
Y371414D01*
X97678Y369748D01*
X101010D01*
X102676Y368082D01*
Y366416D01*
X101010Y364750D01*
X97678D01*
X96012Y366416D01*
X106009Y374746D02*
Y364750D01*
X109341Y368082D01*
X112673Y364750D01*
Y374746D01*
X116005Y364750D02*
X119338D01*
X117672D01*
Y374746D01*
X116005Y373080D01*
X69082Y351648D02*
X67416Y349982D01*
Y346649D01*
X69082Y344983D01*
X70748D01*
X72414Y346649D01*
Y349982D01*
X74081Y351648D01*
X75747D01*
X77413Y349982D01*
Y346649D01*
X75747Y344983D01*
X67416Y354980D02*
X77413D01*
X74081Y358312D01*
X77413Y361645D01*
X67416D01*
X77413Y371641D02*
Y364977D01*
X70748Y371641D01*
X69082D01*
X67416Y369975D01*
Y366643D01*
X69082Y364977D01*
X15238Y319784D02*
X13969Y321054D01*
X11430D01*
X10160Y319784D01*
Y314706D01*
X11430Y313436D01*
X13969D01*
X15238Y314706D01*
X17778Y313436D02*
Y321054D01*
X22856Y313436D01*
Y321054D01*
X35721Y208676D02*
X37388Y210342D01*
Y213675D01*
X35721Y215341D01*
X29057D01*
X27391Y213675D01*
Y210342D01*
X29057Y208676D01*
X27391Y200345D02*
X37388D01*
X32389Y205344D01*
Y198679D01*
X115486Y314421D02*
X113820Y316087D01*
X110487D01*
X108821Y314421D01*
Y307757D01*
X110487Y306091D01*
X113820D01*
X115486Y307757D01*
X125483Y316087D02*
X118818D01*
Y311089D01*
X122150Y312755D01*
X123816D01*
X125483Y311089D01*
Y307757D01*
X123816Y306091D01*
X120484D01*
X118818Y307757D01*
X206532Y162135D02*
X196535D01*
Y167133D01*
X198202Y168799D01*
X201534D01*
X203200Y167133D01*
Y162135D01*
Y165467D02*
X206532Y168799D01*
Y177130D02*
Y173798D01*
X204866Y172132D01*
X201534D01*
X199868Y173798D01*
Y177130D01*
X201534Y178796D01*
X203200D01*
Y172132D01*
X209865Y185461D02*
Y187127D01*
X208198Y188793D01*
X199868D01*
Y183795D01*
X201534Y182129D01*
X204866D01*
X206532Y183795D01*
Y188793D01*
X199868Y192125D02*
X204866D01*
X206532Y193792D01*
Y198790D01*
X199868D01*
X206532Y202122D02*
Y205454D01*
Y203788D01*
X196535D01*
Y202122D01*
X206532Y210453D02*
Y213785D01*
Y212119D01*
X196535D01*
X198202Y210453D01*
X9856Y173200D02*
Y183197D01*
X14854D01*
X16521Y181531D01*
Y178199D01*
X14854Y176532D01*
X9856D01*
X13188D02*
X16521Y173200D01*
X19853D02*
X23185D01*
X21519D01*
Y183197D01*
X19853Y181531D01*
X34848Y173200D02*
X28184D01*
X34848Y179865D01*
Y181531D01*
X33182Y183197D01*
X29850D01*
X28184Y181531D01*
X44071Y178432D02*
Y170102D01*
X45737Y168435D01*
X49070D01*
X50736Y170102D01*
Y178432D01*
X60732Y168435D02*
X54068D01*
X60732Y175100D01*
Y176766D01*
X59066Y178432D01*
X55734D01*
X54068Y176766D01*
X164308Y129144D02*
X162642Y127478D01*
Y124145D01*
X164308Y122479D01*
X170972D01*
X172638Y124145D01*
Y127478D01*
X170972Y129144D01*
X164308Y132476D02*
X162642Y134142D01*
Y137474D01*
X164308Y139141D01*
X165974D01*
X167640Y137474D01*
Y135808D01*
Y137474D01*
X169306Y139141D01*
X170972D01*
X172638Y137474D01*
Y134142D01*
X170972Y132476D01*
X12385Y128877D02*
Y118880D01*
X17384D01*
X19050Y120546D01*
Y127211D01*
X17384Y128877D01*
X12385D01*
X22382Y118880D02*
X25714D01*
X24048D01*
Y128877D01*
X22382Y127211D01*
X108154Y21604D02*
X106488Y19938D01*
Y16605D01*
X108154Y14939D01*
X114819D01*
X116485Y16605D01*
Y19938D01*
X114819Y21604D01*
X106488Y31601D02*
X108154Y28268D01*
X111487Y24936D01*
X114819D01*
X116485Y26602D01*
Y29934D01*
X114819Y31601D01*
X113153D01*
X111487Y29934D01*
Y24936D01*
X140888Y15131D02*
X130892D01*
Y20130D01*
X132558Y21796D01*
X135890D01*
X137556Y20130D01*
Y15131D01*
Y18464D02*
X140888Y21796D01*
Y25128D02*
Y28461D01*
Y26794D01*
X130892D01*
X132558Y25128D01*
Y33459D02*
X130892Y35125D01*
Y38457D01*
X132558Y40123D01*
X134224D01*
X135890Y38457D01*
Y36791D01*
Y38457D01*
X137556Y40123D01*
X139222D01*
X140888Y38457D01*
Y35125D01*
X139222Y33459D01*
X92187Y36599D02*
X87189D01*
X85523Y34933D01*
Y29934D01*
X92187D01*
X85523Y26602D02*
Y21604D01*
X87189Y19938D01*
X88855Y21604D01*
Y24936D01*
X90521Y26602D01*
X92187Y24936D01*
Y19938D01*
X95520Y16605D02*
X85523D01*
Y11607D01*
X87189Y9941D01*
X88855D01*
X90521D01*
X92187Y11607D01*
Y16605D01*
X400132Y172405D02*
X408462D01*
X410128Y174072D01*
Y177404D01*
X408462Y179070D01*
X400132D01*
X410128Y182402D02*
Y185735D01*
Y184068D01*
X400132D01*
X401798Y182402D01*
X356312Y156155D02*
X366308D01*
Y151157D01*
X364642Y149490D01*
X361310D01*
X359644Y151157D01*
Y156155D01*
Y152823D02*
X356312Y149490D01*
Y141160D02*
Y144492D01*
X357978Y146158D01*
X361310D01*
X362976Y144492D01*
Y141160D01*
X361310Y139494D01*
X359644D01*
Y146158D01*
X356312Y136161D02*
Y131163D01*
X357978Y129497D01*
X359644Y131163D01*
Y134495D01*
X361310Y136161D01*
X362976Y134495D01*
Y129497D01*
X356312Y121166D02*
Y124498D01*
X357978Y126165D01*
X361310D01*
X362976Y124498D01*
Y121166D01*
X361310Y119500D01*
X359644D01*
Y126165D01*
X364642Y114502D02*
X362976D01*
Y116168D01*
Y112836D01*
Y114502D01*
X357978D01*
X356312Y112836D01*
Y107837D02*
Y104505D01*
Y106171D01*
X366308D01*
X364642Y107837D01*
X395242Y134020D02*
X405239D01*
Y129021D01*
X403573Y127355D01*
X400240D01*
X398574Y129021D01*
Y134020D01*
Y130688D02*
X395242Y127355D01*
Y124023D02*
Y120691D01*
Y122357D01*
X405239D01*
X403573Y124023D01*
X395242Y115692D02*
Y112360D01*
Y114026D01*
X405239D01*
X403573Y115692D01*
X473386Y138281D02*
X483383D01*
Y133282D01*
X481717Y131616D01*
X478385D01*
X476719Y133282D01*
Y138281D01*
Y134948D02*
X473386Y131616D01*
Y128284D02*
Y124951D01*
Y126618D01*
X483383D01*
X481717Y128284D01*
Y119953D02*
X483383Y118287D01*
Y114955D01*
X481717Y113289D01*
X475052D01*
X473386Y114955D01*
Y118287D01*
X475052Y119953D01*
X481717D01*
X320460Y219151D02*
X330456D01*
Y214152D01*
X328790Y212486D01*
X325458D01*
X323792Y214152D01*
Y219151D01*
Y215818D02*
X320460Y212486D01*
X328790Y209154D02*
X330456Y207488D01*
Y204155D01*
X328790Y202489D01*
X327124D01*
X325458Y204155D01*
X323792Y202489D01*
X322126D01*
X320460Y204155D01*
Y207488D01*
X322126Y209154D01*
X323792D01*
X325458Y207488D01*
X327124Y209154D01*
X328790D01*
X325458Y207488D02*
Y204155D01*
X392331Y342823D02*
X402328D01*
Y337825D01*
X400661Y336159D01*
X397329D01*
X395663Y337825D01*
Y342823D01*
Y339491D02*
X392331Y336159D01*
X402328Y332826D02*
Y326162D01*
X400661D01*
X393997Y332826D01*
X392331D01*
X462904Y342823D02*
X472900D01*
Y337825D01*
X471234Y336159D01*
X467902D01*
X466236Y337825D01*
Y342823D01*
Y339491D02*
X462904Y336159D01*
X472900Y326162D02*
X471234Y329494D01*
X467902Y332826D01*
X464570D01*
X462904Y331160D01*
Y327828D01*
X464570Y326162D01*
X466236D01*
X467902Y327828D01*
Y332826D01*
X542052Y344792D02*
X552048D01*
Y339793D01*
X550382Y338127D01*
X547050D01*
X545384Y339793D01*
Y344792D01*
Y341459D02*
X542052Y338127D01*
X552048Y328130D02*
Y334795D01*
X547050D01*
X548716Y331463D01*
Y329796D01*
X547050Y328130D01*
X543718D01*
X542052Y329796D01*
Y333129D01*
X543718Y334795D01*
X623276Y344918D02*
X633273D01*
Y339920D01*
X631606Y338254D01*
X628274D01*
X626608Y339920D01*
Y344918D01*
Y341586D02*
X623276Y338254D01*
Y329923D02*
X633273D01*
X628274Y334921D01*
Y328257D01*
X387729Y305016D02*
Y315013D01*
X392727D01*
X394393Y313347D01*
Y310015D01*
X392727Y308349D01*
X387729D01*
X391061D02*
X394393Y305016D01*
X397725Y313347D02*
X399391Y315013D01*
X402724D01*
X404390Y313347D01*
Y311681D01*
X402724Y310015D01*
X401058D01*
X402724D01*
X404390Y308349D01*
Y306683D01*
X402724Y305016D01*
X399391D01*
X397725Y306683D01*
X298704Y334264D02*
Y344261D01*
X303702D01*
X305368Y342595D01*
Y339262D01*
X303702Y337596D01*
X298704D01*
X302036D02*
X305368Y334264D01*
X315365D02*
X308701D01*
X315365Y340928D01*
Y342595D01*
X313699Y344261D01*
X310367D01*
X308701Y342595D01*
X400359Y244355D02*
X390362D01*
Y249354D01*
X392029Y251020D01*
X395361D01*
X397027Y249354D01*
Y244355D01*
Y247688D02*
X400359Y251020D01*
Y254352D02*
Y257684D01*
Y256018D01*
X390362D01*
X392029Y254352D01*
X313212Y248524D02*
X306548D01*
X304882Y246858D01*
Y243526D01*
X306548Y241859D01*
X313212D01*
X314878Y243526D01*
Y246858D01*
X311546Y245192D02*
X314878Y248524D01*
Y246858D02*
X313212Y248524D01*
X314878Y258521D02*
Y251856D01*
X308214Y258521D01*
X306548D01*
X304882Y256854D01*
Y253522D01*
X306548Y251856D01*
X349250Y278608D02*
Y285272D01*
X347584Y286938D01*
X344252D01*
X342585Y285272D01*
Y278608D01*
X344252Y276942D01*
X347584D01*
X345918Y280274D02*
X349250Y276942D01*
X347584D02*
X349250Y278608D01*
X352582Y276942D02*
X355914D01*
X354248D01*
Y286938D01*
X352582Y285272D01*
X159374Y355027D02*
X149377D01*
Y360025D01*
X151043Y361692D01*
X154376D01*
X156042Y360025D01*
Y355027D01*
X159374Y371688D02*
Y365024D01*
X152710Y371688D01*
X151043D01*
X149377Y370022D01*
Y366690D01*
X151043Y365024D01*
X158705Y13213D02*
X148708D01*
Y18211D01*
X150374Y19877D01*
X153707D01*
X155373Y18211D01*
Y13213D01*
X158705Y23210D02*
Y26542D01*
Y24876D01*
X148708D01*
X150374Y23210D01*
X152231Y282786D02*
Y276121D01*
X157230D01*
Y279454D01*
Y276121D01*
X162228D01*
X152231Y286118D02*
X162228D01*
Y292783D01*
X153898Y302780D02*
X152231Y301113D01*
Y297781D01*
X153898Y296115D01*
X155564D01*
X157230Y297781D01*
Y301113D01*
X158896Y302780D01*
X160562D01*
X162228Y301113D01*
Y297781D01*
X160562Y296115D01*
X162228Y306112D02*
Y309444D01*
Y307778D01*
X152231D01*
X153898Y306112D01*
X672514Y130332D02*
X670848Y131998D01*
X667515D01*
X665849Y130332D01*
Y123668D01*
X667515Y122002D01*
X670848D01*
X672514Y123668D01*
X682511Y122002D02*
X675846D01*
X682511Y128666D01*
Y130332D01*
X680844Y131998D01*
X677512D01*
X675846Y130332D01*
X236698Y209550D02*
X235032Y207884D01*
Y204552D01*
X236698Y202885D01*
X243362D01*
X245028Y204552D01*
Y207884D01*
X243362Y209550D01*
X245028Y212882D02*
Y216215D01*
Y214548D01*
X235032D01*
X236698Y212882D01*
M02*
