G04*
G04 #@! TF.GenerationSoftware,Altium Limited,Altium Designer,24.1.2 (44)*
G04*
G04 Layer_Physical_Order=1*
G04 Layer_Color=255*
%FSLAX44Y44*%
%MOMM*%
G71*
G04*
G04 #@! TF.SameCoordinates,5DE7BCAC-930E-4ACC-850D-064FDCF0EFED*
G04*
G04*
G04 #@! TF.FilePolarity,Positive*
G04*
G01*
G75*
%ADD13C,0.2540*%
%ADD14R,0.7000X1.5000*%
%ADD15R,1.0000X0.8000*%
%ADD16R,1.5000X0.7000*%
%ADD17R,0.8000X1.0000*%
%ADD18R,3.6000X0.7000*%
%ADD19R,2.3000X1.5000*%
%ADD20R,1.4546X1.5562*%
%ADD21R,2.5000X3.3000*%
%ADD22R,2.5000X1.0000*%
%ADD23R,1.2500X0.8000*%
G04:AMPARAMS|DCode=24|XSize=1.3383mm|YSize=0.578mm|CornerRadius=0.289mm|HoleSize=0mm|Usage=FLASHONLY|Rotation=0.000|XOffset=0mm|YOffset=0mm|HoleType=Round|Shape=RoundedRectangle|*
%AMROUNDEDRECTD24*
21,1,1.3383,0.0000,0,0,0.0*
21,1,0.7603,0.5780,0,0,0.0*
1,1,0.5780,0.3802,0.0000*
1,1,0.5780,-0.3802,0.0000*
1,1,0.5780,-0.3802,0.0000*
1,1,0.5780,0.3802,0.0000*
%
%ADD24ROUNDEDRECTD24*%
%ADD25R,1.3383X0.5780*%
%ADD26R,0.5700X1.2000*%
%ADD27R,1.5562X1.4546*%
%ADD28R,0.9121X0.8587*%
%ADD29R,1.3000X1.6900*%
%ADD30R,0.9000X1.6250*%
%ADD31R,1.8500X0.4000*%
%ADD32R,1.3500X1.5500*%
%ADD33R,0.8065X1.3082*%
%ADD34R,1.0500X1.3500*%
%ADD35R,0.5200X0.5200*%
%ADD36R,1.1350X1.0621*%
%ADD37R,0.9621X0.9350*%
%ADD38R,0.9350X0.9621*%
%ADD39R,1.2000X2.0000*%
%ADD40R,1.7000X1.1000*%
%ADD41R,0.4682X0.4725*%
%ADD55C,0.9000*%
%ADD59R,1.5500X1.5500*%
%ADD60C,1.5500*%
%ADD64C,0.5000*%
%ADD65C,2.1000*%
G04:AMPARAMS|DCode=66|XSize=2.1mm|YSize=2.1mm|CornerRadius=0.525mm|HoleSize=0mm|Usage=FLASHONLY|Rotation=180.000|XOffset=0mm|YOffset=0mm|HoleType=Round|Shape=RoundedRectangle|*
%AMROUNDEDRECTD66*
21,1,2.1000,1.0500,0,0,180.0*
21,1,1.0500,2.1000,0,0,180.0*
1,1,1.0500,-0.5250,0.5250*
1,1,1.0500,0.5250,0.5250*
1,1,1.0500,0.5250,-0.5250*
1,1,1.0500,-0.5250,-0.5250*
%
%ADD66ROUNDEDRECTD66*%
%ADD67R,1.0500X1.0500*%
%ADD68C,1.0500*%
%ADD69C,1.2700*%
D13*
X147485Y424434D02*
Y425616D01*
Y406316D02*
Y424434D01*
X146558Y406316D02*
Y414020D01*
X147485Y424434D02*
X153924D01*
X136144D02*
X147485D01*
X117602D02*
X136144D01*
X114808D02*
X117602D01*
X190012Y205232D02*
X259200D01*
Y209550D01*
Y199524D02*
Y205232D01*
X611938Y119557D02*
Y128270D01*
Y95046D02*
Y119557D01*
X126017Y85237D02*
X130195D01*
X104394Y411226D02*
X117602Y424434D01*
X103485Y410317D02*
X104394Y411226D01*
Y414020D01*
Y402590D02*
Y411226D01*
X103485Y402590D02*
Y410317D01*
X147485Y425616D02*
X152742D01*
X74485D02*
X147485D01*
X103485Y402590D02*
X104394D01*
X63856Y144120D02*
X84480D01*
X107208Y34310D02*
X138430D01*
X523240Y335890D02*
Y381508D01*
X634492Y158496D02*
X644520D01*
X88485Y349411D02*
Y377859D01*
X62230Y275590D02*
Y405246D01*
X71882Y190500D02*
Y207010D01*
X62230Y275590D02*
X68834D01*
X49530D02*
X62230D01*
X59944Y105918D02*
Y134620D01*
X70104Y60310D02*
X85852D01*
X66450D02*
X70104D01*
Y134620D01*
X22352Y67818D02*
Y140590D01*
X128950Y247396D02*
Y272989D01*
Y228170D02*
Y247396D01*
X50546Y322326D02*
Y365327D01*
X105918Y210960D02*
Y227330D01*
X611938Y95046D02*
X622337Y84648D01*
X259200Y199524D02*
X270256Y188468D01*
Y167640D02*
Y188468D01*
X260136Y164377D02*
X270256Y167640D01*
X258450Y118590D02*
X260136Y164377D01*
X172740Y187960D02*
X190012Y205232D01*
X172740Y167406D02*
Y187960D01*
X142608Y137274D02*
X172740Y167406D01*
X142608Y125730D02*
Y137274D01*
X61700Y15185D02*
Y18520D01*
X66450Y23270D01*
Y34310D01*
X117348Y76568D02*
X126017Y85237D01*
X107950Y76568D02*
X117348D01*
X516860Y335890D02*
X523240D01*
X464312Y440436D02*
X523240Y381508D01*
X392430Y440436D02*
X464312D01*
X376174Y424180D02*
X392430Y440436D01*
X376174Y340106D02*
Y424180D01*
X361188Y325120D02*
X376174Y340106D01*
X294386Y325120D02*
X361188D01*
X294386Y291084D02*
Y325120D01*
Y291084D02*
X340360Y245110D01*
X88485Y349411D02*
X145113Y292783D01*
Y209053D02*
Y292783D01*
X132911Y196850D02*
X145113Y209053D01*
X95250Y196850D02*
X132911D01*
X95250Y167500D02*
Y196850D01*
Y167500D02*
X111740Y164960D01*
X355637Y84648D02*
X388214Y52070D01*
X639826D01*
X654240Y66484D01*
Y128270D01*
X524520Y253814D02*
Y308610D01*
X544520Y270058D02*
Y308610D01*
Y270058D02*
X554482Y260096D01*
Y131093D02*
Y260096D01*
X508037Y84648D02*
X554482Y131093D01*
X542544Y386334D02*
X550164D01*
X564520Y371978D01*
Y308610D02*
Y371978D01*
X584520Y276286D02*
X584708Y276098D01*
X584520Y276286D02*
Y308610D01*
X78740Y153620D02*
X87524D01*
X107950Y133195D01*
Y120904D02*
Y133195D01*
Y120904D02*
X118110Y110744D01*
X132588D01*
X144272Y99060D01*
Y73005D02*
Y99060D01*
X135890Y69703D02*
X144272Y73005D01*
X133485Y388620D02*
Y398465D01*
Y388620D02*
X139073Y383032D01*
X150622D01*
X229870Y303784D01*
X264135D01*
X300990Y266929D01*
Y185920D02*
Y266929D01*
Y185920D02*
X374346Y112564D01*
Y73181D02*
Y112564D01*
Y73181D02*
X382270Y65257D01*
X519663D01*
X531826Y77420D01*
Y90780D01*
X564520Y123474D01*
Y158610D01*
X438657Y123190D02*
X463804D01*
X111740Y210960D02*
X128950Y228170D01*
X431837Y84648D02*
X456409Y109220D01*
X502060D01*
Y119380D01*
X521560Y109220D02*
Y119380D01*
X511298Y98958D02*
X521560Y109220D01*
X459892Y98958D02*
X511298D01*
X446147Y85213D02*
X459892Y98958D01*
X446147Y78334D02*
Y85213D01*
X438150Y70337D02*
X446147Y78334D01*
X422910Y70337D02*
X438150D01*
X417322Y75925D02*
X422910Y70337D01*
X417322Y75925D02*
Y99060D01*
X421640Y103378D01*
Y123190D01*
Y134620D01*
X414274Y141986D02*
X421640Y134620D01*
X355084Y141986D02*
X414274D01*
X322834Y174236D02*
X355084Y141986D01*
X322834Y174236D02*
Y255451D01*
X267897Y310388D02*
X322834Y255451D01*
X254198Y310388D02*
X267897D01*
X242006Y322580D02*
X254198Y310388D01*
X242006Y322580D02*
Y367168D01*
X502666Y136144D02*
X503682D01*
X514350Y146812D01*
Y247396D01*
X504520Y257226D02*
X514350Y247396D01*
X504520Y257226D02*
Y308610D01*
X644520Y177678D02*
Y308610D01*
Y177678D02*
X648970Y173228D01*
X651510D01*
X654558Y170180D01*
Y139954D02*
Y170180D01*
X646240Y131636D02*
X654558Y139954D01*
X646240Y128270D02*
Y131636D01*
X421411Y334493D02*
X427111D01*
X418084Y337820D02*
X421411Y334493D01*
X418084Y337820D02*
Y414020D01*
X430784Y426720D01*
X457906D01*
X470606Y414020D01*
Y367168D02*
Y414020D01*
X544520Y158610D02*
Y244658D01*
X534670Y254508D02*
X544520Y244658D01*
X534670Y254508D02*
Y320040D01*
X532130Y322580D02*
X534670Y320040D01*
X448498Y322580D02*
X532130D01*
X443419Y327660D02*
X448498Y322580D01*
X443419Y327660D02*
Y334493D01*
X147485Y406316D02*
X279058D01*
X318206Y367168D01*
X347980Y204724D02*
Y210820D01*
Y204724D02*
X356870Y195834D01*
X387350D01*
X396631Y205115D01*
Y212116D01*
X504520Y147066D02*
Y158610D01*
X387858Y147066D02*
X504520D01*
X339344Y195580D02*
X387858Y147066D01*
X339344Y195580D02*
Y235458D01*
X340360Y236474D01*
Y245110D01*
X105918Y210960D02*
X111740D01*
X47100Y365327D02*
X50546D01*
X274200Y199644D02*
Y209550D01*
Y199644D02*
X275336Y198508D01*
Y159004D02*
Y198508D01*
X270510Y154178D02*
X275336Y159004D01*
X103485Y398465D02*
Y402590D01*
X104394Y414020D02*
X114808Y424434D01*
X152742Y425616D02*
X153924Y424434D01*
X669448Y336588D02*
X677926D01*
Y151956D02*
Y336588D01*
X654240Y128270D02*
X677926Y151956D01*
X46990Y144120D02*
X56416D01*
X41148Y138278D02*
X46990Y144120D01*
X41148Y103378D02*
Y138278D01*
Y103378D02*
X49303Y95223D01*
X57410D01*
X61700Y90932D01*
Y79435D02*
Y90932D01*
X56416Y134620D02*
X59944D01*
X71882Y207010D02*
X79108D01*
X84480Y144120D02*
X90424Y138176D01*
Y83820D02*
Y138176D01*
Y83820D02*
X97676Y76568D01*
X107950D01*
X29860Y60310D02*
X66450D01*
X22352Y67818D02*
X29860Y60310D01*
X19050Y140590D02*
X22352D01*
X138430Y34310D02*
X149352Y45232D01*
Y107950D01*
X142608Y114694D02*
X149352Y107950D01*
X142608Y114694D02*
Y125730D01*
X361950Y307340D02*
X403098D01*
X406146Y304292D01*
Y254625D02*
Y304292D01*
X396631Y245110D02*
X406146Y254625D01*
X396631Y226424D02*
Y245110D01*
X88485Y377859D02*
Y398465D01*
Y377859D02*
X173482Y292862D01*
X258434D01*
X292354Y258942D01*
Y147930D02*
Y258942D01*
Y147930D02*
X355637Y84648D01*
X611938Y119557D02*
X637527D01*
X646240Y128270D01*
X604520Y144780D02*
Y158610D01*
Y144780D02*
X610108Y139192D01*
X621030D01*
X626618Y133604D01*
Y129794D02*
Y133604D01*
X362288Y210820D02*
X374904D01*
X70104Y134620D02*
X78740D01*
X130195Y85237D02*
X135890D01*
X123698Y78740D02*
X130195Y85237D01*
X123698Y50800D02*
Y78740D01*
X107208Y34310D02*
X123698Y50800D01*
X66450Y34310D02*
X107208D01*
X564520Y254762D02*
Y308610D01*
Y254762D02*
X574548Y244734D01*
Y113059D02*
Y244734D01*
X546137Y84648D02*
X574548Y113059D01*
X590764Y335191D02*
X591029D01*
X623006Y367168D01*
X380331Y276191D02*
X397329D01*
X365760Y261620D02*
X380331Y276191D01*
X365760Y245110D02*
Y261620D01*
X669448Y336588D02*
Y354310D01*
X656590Y367168D02*
X669448Y354310D01*
X623006Y367168D02*
X656590D01*
X615950Y336588D02*
X653140D01*
X604520Y325158D02*
X615950Y336588D01*
X604520Y308610D02*
Y325158D01*
X36830Y153620D02*
X56416D01*
X29240Y146030D02*
X36830Y153620D01*
X29240Y104140D02*
Y146030D01*
X105566Y272989D02*
X110434D01*
X93167Y260590D02*
X105566Y272989D01*
X49530Y260590D02*
X93167D01*
X68834Y275590D02*
X79756Y286512D01*
X135890D01*
X140033Y282369D01*
Y214133D02*
Y282369D01*
X128050Y202150D02*
X140033Y214133D01*
X95250Y202150D02*
X128050D01*
X90390Y207010D02*
X95250Y202150D01*
X79108Y207010D02*
X90390D01*
X355931Y290499D02*
X397329D01*
X349250Y297180D02*
X355931Y290499D01*
X349250Y297180D02*
Y307340D01*
X184204Y262342D02*
X243626D01*
X283464Y222504D01*
Y126775D02*
Y222504D01*
X241337Y84648D02*
X283464Y126775D01*
X361950Y307340D02*
Y313690D01*
X356870Y318770D02*
X361950Y313690D01*
X308610Y318770D02*
X356870D01*
X136144Y424434D02*
X146558Y414020D01*
Y406316D02*
X147485D01*
X624520Y302448D02*
Y308610D01*
X594614Y272542D02*
X624520Y302448D01*
X594614Y147066D02*
Y272542D01*
Y147066D02*
X595630Y146050D01*
Y128270D02*
Y146050D01*
X644520Y158496D02*
Y158610D01*
X634492Y158496D02*
Y320548D01*
X638810Y324866D01*
X666750D01*
X669448Y327564D01*
Y336588D01*
X31256Y260590D02*
X49530D01*
X27686Y264160D02*
X31256Y260590D01*
X27686Y264160D02*
Y282956D01*
X41910D01*
X49022Y290068D01*
Y308236D01*
X39250Y318008D02*
X49022Y308236D01*
X39250Y318008D02*
Y351327D01*
X11430Y156590D02*
X19050D01*
X8890Y154050D02*
X11430Y156590D01*
X8890Y135098D02*
Y154050D01*
Y135098D02*
X13940Y130048D01*
Y104140D02*
Y130048D01*
X56416Y144120D02*
X63856D01*
X67056Y147320D01*
Y160528D01*
X60592Y166992D02*
X67056Y160528D01*
X60592Y166992D02*
Y207010D01*
X427111Y334493D02*
Y341513D01*
X430530Y344932D01*
X500552D01*
Y335890D02*
Y344932D01*
X47100Y410326D02*
X57150D01*
X62230Y405246D01*
X111740Y187960D02*
X172740D01*
X49530Y239154D02*
Y260590D01*
Y239154D02*
X60592Y228092D01*
Y207010D02*
Y228092D01*
X50105Y15185D02*
X61700D01*
X49530Y14610D02*
X50105Y15185D01*
X38100Y14610D02*
X49530D01*
X50105Y79435D02*
X61700D01*
X49530Y80010D02*
X50105Y79435D01*
X38100Y80010D02*
X49530D01*
X19950Y351327D02*
X39250D01*
X19950D02*
Y424326D01*
X39250D01*
X57423Y425616D02*
X74485D01*
X56134Y424326D02*
X57423Y425616D01*
X39250Y424326D02*
X56134D01*
X74485Y406316D02*
Y425616D01*
X111740Y151290D02*
Y164960D01*
Y151290D02*
X124092Y138938D01*
Y125730D02*
Y138938D01*
X88110Y58052D02*
X107950D01*
X85852Y60310D02*
X88110Y58052D01*
X546806Y338835D02*
Y367168D01*
X544520Y336550D02*
X546806Y338835D01*
X544520Y308610D02*
Y336550D01*
X524520Y140374D02*
Y158610D01*
X521560Y137414D02*
X524520Y140374D01*
X521560Y119380D02*
Y137414D01*
X574456Y326802D02*
Y335191D01*
Y326802D02*
X584520Y316738D01*
Y308610D02*
Y316738D01*
X353060Y230378D02*
Y245110D01*
X347980Y225298D02*
X353060Y230378D01*
X347980Y210820D02*
Y225298D01*
D14*
X103485Y398465D02*
D03*
X88485D02*
D03*
X133485D02*
D03*
D15*
X147485Y406316D02*
D03*
X74485D02*
D03*
X147485Y425616D02*
D03*
X74485D02*
D03*
D16*
X47100Y380326D02*
D03*
Y365327D02*
D03*
Y410326D02*
D03*
D17*
X39250Y424326D02*
D03*
Y351327D02*
D03*
X19950Y424326D02*
D03*
Y351327D02*
D03*
D18*
X49530Y260590D02*
D03*
Y275590D02*
D03*
D19*
X29030Y240090D02*
D03*
Y296090D02*
D03*
D20*
X60592Y207010D02*
D03*
X79108D02*
D03*
X110434Y272989D02*
D03*
X128950D02*
D03*
X142608Y125730D02*
D03*
X124092D02*
D03*
D21*
X172740Y187960D02*
D03*
D22*
X111740Y164960D02*
D03*
Y187960D02*
D03*
Y210960D02*
D03*
D23*
X19050Y156590D02*
D03*
Y140590D02*
D03*
D24*
X78740Y153620D02*
D03*
Y134620D02*
D03*
X56416D02*
D03*
Y144120D02*
D03*
D25*
Y153620D02*
D03*
D26*
X29240Y104140D02*
D03*
X13940D02*
D03*
D27*
X107950Y76568D02*
D03*
Y58052D02*
D03*
D28*
X135890Y69703D02*
D03*
Y85237D02*
D03*
D29*
X38100Y14610D02*
D03*
Y80010D02*
D03*
D30*
X61700Y15185D02*
D03*
Y79435D02*
D03*
D31*
X66450Y34310D02*
D03*
Y40810D02*
D03*
Y47310D02*
D03*
Y53810D02*
D03*
Y60310D02*
D03*
D32*
X521560Y119380D02*
D03*
X502060D02*
D03*
D33*
X421640Y123190D02*
D03*
X438657D02*
D03*
D34*
X259200Y209550D02*
D03*
X274200D02*
D03*
D35*
X654240Y128270D02*
D03*
X646240D02*
D03*
D36*
X500552Y335890D02*
D03*
X516860D02*
D03*
X611938Y128270D02*
D03*
X595630D02*
D03*
X590764Y335191D02*
D03*
X574456D02*
D03*
X669448Y336588D02*
D03*
X653140D02*
D03*
X443419Y334493D02*
D03*
X427111D02*
D03*
D37*
X397329Y276191D02*
D03*
Y290499D02*
D03*
X396631Y212116D02*
D03*
Y226424D02*
D03*
D38*
X347980Y210820D02*
D03*
X362288D02*
D03*
D39*
X504520Y158610D02*
D03*
X524520D02*
D03*
X544520D02*
D03*
X564520D02*
D03*
X584520D02*
D03*
X604520D02*
D03*
X624520D02*
D03*
X644520D02*
D03*
Y308610D02*
D03*
X624520D02*
D03*
X604520D02*
D03*
X584520D02*
D03*
X564520D02*
D03*
X544520D02*
D03*
X524520D02*
D03*
X504520D02*
D03*
D40*
X659520Y183610D02*
D03*
Y203610D02*
D03*
Y223610D02*
D03*
Y243610D02*
D03*
Y263610D02*
D03*
Y283610D02*
D03*
D41*
X308610Y318770D02*
D03*
X300567D02*
D03*
D55*
X125985Y415966D02*
D03*
X95985D02*
D03*
X29600Y402827D02*
D03*
Y372826D02*
D03*
D59*
X258450Y178590D02*
D03*
X184204Y322342D02*
D03*
D60*
X338450Y178590D02*
D03*
X258450Y118590D02*
D03*
X338450D02*
D03*
X264204Y262342D02*
D03*
X184204D02*
D03*
X264204Y322342D02*
D03*
D64*
X59600Y27310D02*
D03*
Y67310D02*
D03*
D65*
X242006Y367168D02*
D03*
X280106D02*
D03*
X356306D02*
D03*
X432506D02*
D03*
X508706D02*
D03*
X546806D02*
D03*
X584906D02*
D03*
X470606D02*
D03*
X394406D02*
D03*
X318206D02*
D03*
X622337Y84648D02*
D03*
X584237D02*
D03*
X508037D02*
D03*
X431837D02*
D03*
X355637D02*
D03*
X317537D02*
D03*
X279437D02*
D03*
X393737D02*
D03*
X469937D02*
D03*
X546137D02*
D03*
D66*
X623006Y367168D02*
D03*
X241337Y84648D02*
D03*
D67*
X336550Y307340D02*
D03*
X340360Y245110D02*
D03*
D68*
X349250Y307340D02*
D03*
X361950D02*
D03*
X353060Y245110D02*
D03*
X365760D02*
D03*
D69*
X524520Y253814D02*
D03*
X542544Y386334D02*
D03*
X584708Y276098D02*
D03*
X128950Y247396D02*
D03*
X463804Y123190D02*
D03*
X502666Y136144D02*
D03*
X105918Y227330D02*
D03*
X50546Y322326D02*
D03*
X270510Y154178D02*
D03*
X59944Y105918D02*
D03*
X71882Y190500D02*
D03*
X626618Y129794D02*
D03*
X374904Y210820D02*
D03*
M02*
