G04*
G04 #@! TF.GenerationSoftware,Altium Limited,Altium Designer,24.1.2 (44)*
G04*
G04 Layer_Color=16711935*
%FSLAX44Y44*%
%MOMM*%
G71*
G04*
G04 #@! TF.SameCoordinates,5DE7BCAC-930E-4ACC-850D-064FDCF0EFED*
G04*
G04*
G04 #@! TF.FilePolarity,Negative*
G04*
G01*
G75*
%ADD55C,0.9000*%
%ADD56C,0.7032*%
%ADD57C,2.3032*%
G04:AMPARAMS|DCode=58|XSize=2.3032mm|YSize=2.3032mm|CornerRadius=0.6266mm|HoleSize=0mm|Usage=FLASHONLY|Rotation=180.000|XOffset=0mm|YOffset=0mm|HoleType=Round|Shape=RoundedRectangle|*
%AMROUNDEDRECTD58*
21,1,2.3032,1.0500,0,0,180.0*
21,1,1.0500,2.3032,0,0,180.0*
1,1,1.2532,-0.5250,0.5250*
1,1,1.2532,0.5250,0.5250*
1,1,1.2532,0.5250,-0.5250*
1,1,1.2532,-0.5250,-0.5250*
%
%ADD58ROUNDEDRECTD58*%
%ADD59R,1.5500X1.5500*%
%ADD60C,1.5500*%
%ADD61R,1.2532X1.2532*%
%ADD62C,1.2532*%
%ADD63C,1.4732*%
D55*
X125985Y415966D02*
D03*
X95985D02*
D03*
X29600Y402827D02*
D03*
Y372826D02*
D03*
D56*
X59600Y27310D02*
D03*
Y67310D02*
D03*
D57*
X242006Y367168D02*
D03*
X280106D02*
D03*
X356306D02*
D03*
X432506D02*
D03*
X508706D02*
D03*
X546806D02*
D03*
X584906D02*
D03*
X470606D02*
D03*
X394406D02*
D03*
X318206D02*
D03*
X622337Y84648D02*
D03*
X584237D02*
D03*
X508037D02*
D03*
X431837D02*
D03*
X355637D02*
D03*
X317537D02*
D03*
X279437D02*
D03*
X393737D02*
D03*
X469937D02*
D03*
X546137D02*
D03*
D58*
X623006Y367168D02*
D03*
X241337Y84648D02*
D03*
D59*
X258450Y178590D02*
D03*
X184204Y322342D02*
D03*
D60*
X338450Y178590D02*
D03*
X258450Y118590D02*
D03*
X338450D02*
D03*
X264204Y262342D02*
D03*
X184204D02*
D03*
X264204Y322342D02*
D03*
D61*
X336550Y307340D02*
D03*
X340360Y245110D02*
D03*
D62*
X349250Y307340D02*
D03*
X361950D02*
D03*
X353060Y245110D02*
D03*
X365760D02*
D03*
D63*
X524520Y253814D02*
D03*
X542544Y386334D02*
D03*
X584708Y276098D02*
D03*
X128950Y247396D02*
D03*
X463804Y123190D02*
D03*
X502666Y136144D02*
D03*
X105918Y227330D02*
D03*
X50546Y322326D02*
D03*
X270510Y154178D02*
D03*
X59944Y105918D02*
D03*
X71882Y190500D02*
D03*
X626618Y129794D02*
D03*
X374904Y210820D02*
D03*
M02*
